<svg width="20" height="20" viewBox="0 0 20 20" fill="none" xmlns="http://www.w3.org/2000/svg">
<path d="M11.6667 4.66683C11.6667 4.20012 11.6667 3.96676 11.7576 3.7885C11.8375 3.6317 11.9649 3.50422 12.1217 3.42432C12.3 3.3335 12.5333 3.3335 13.0001 3.3335H15.3334C15.8002 3.3335 16.0335 3.3335 16.2117 3.42432C16.3686 3.50422 16.496 3.6317 16.5759 3.7885C16.6667 3.96676 16.6667 4.20012 16.6667 4.66683V7.00016C16.6667 7.46687 16.6667 7.70023 16.5759 7.87849C16.496 8.03529 16.3686 8.16277 16.2117 8.24267C16.0335 8.3335 15.8002 8.3335 15.3334 8.3335H13.0001C12.5333 8.3335 12.3 8.3335 12.1217 8.24267C11.9649 8.16277 11.8375 8.03529 11.7576 7.87849C11.6667 7.70023 11.6667 7.46687 11.6667 7.00016V4.66683Z" stroke="#1B1B1B" stroke-width="2" stroke-linecap="round" stroke-linejoin="round"/>
<path d="M3.33325 4.66683C3.33325 4.20012 3.33325 3.96676 3.42408 3.7885C3.50398 3.6317 3.63146 3.50422 3.78826 3.42432C3.96652 3.3335 4.19988 3.3335 4.66659 3.3335H6.99992C7.46663 3.3335 7.69999 3.3335 7.87824 3.42432C8.03504 3.50422 8.16253 3.6317 8.24243 3.7885C8.33325 3.96676 8.33325 4.20012 8.33325 4.66683V7.00016C8.33325 7.46687 8.33325 7.70023 8.24243 7.87849C8.16253 8.03529 8.03504 8.16277 7.87824 8.24267C7.69999 8.3335 7.46663 8.3335 6.99992 8.3335H4.66659C4.19988 8.3335 3.96652 8.3335 3.78826 8.24267C3.63146 8.16277 3.50398 8.03529 3.42408 7.87849C3.33325 7.70023 3.33325 7.46687 3.33325 7.00016V4.66683Z" stroke="#1B1B1B" stroke-width="2" stroke-linecap="round" stroke-linejoin="round"/>
<path d="M3.33325 12.9998C3.33325 12.5331 3.33325 12.2998 3.42408 12.1215C3.50398 11.9647 3.63146 11.8373 3.78826 11.7573C3.96652 11.6665 4.19988 11.6665 4.66659 11.6665H6.99992C7.46663 11.6665 7.69999 11.6665 7.87824 11.7573C8.03504 11.8373 8.16253 11.9647 8.24243 12.1215C8.33325 12.2998 8.33325 12.5331 8.33325 12.9998V15.3332C8.33325 15.7999 8.33325 16.0333 8.24243 16.2115C8.16253 16.3683 8.03504 16.4958 7.87824 16.5757C7.69999 16.6665 7.46663 16.6665 6.99992 16.6665H4.66659C4.19988 16.6665 3.96652 16.6665 3.78826 16.5757C3.63146 16.4958 3.50398 16.3683 3.42408 16.2115C3.33325 16.0333 3.33325 15.7999 3.33325 15.3332V12.9998Z" stroke="#1B1B1B" stroke-width="2" stroke-linecap="round" stroke-linejoin="round"/>
<path d="M11.6667 12.9998C11.6667 12.5331 11.6667 12.2998 11.7576 12.1215C11.8375 11.9647 11.9649 11.8373 12.1217 11.7573C12.3 11.6665 12.5333 11.6665 13.0001 11.6665H15.3334C15.8002 11.6665 16.0335 11.6665 16.2117 11.7573C16.3686 11.8373 16.496 11.9647 16.5759 12.1215C16.6667 12.2998 16.6667 12.5331 16.6667 12.9998V15.3332C16.6667 15.7999 16.6667 16.0333 16.5759 16.2115C16.496 16.3683 16.3686 16.4958 16.2117 16.5757C16.0335 16.6665 15.8002 16.6665 15.3334 16.6665H13.0001C12.5333 16.6665 12.3 16.6665 12.1217 16.5757C11.9649 16.4958 11.8375 16.3683 11.7576 16.2115C11.6667 16.0333 11.6667 15.7999 11.6667 15.3332V12.9998Z" stroke="#1B1B1B" stroke-width="2" stroke-linecap="round" stroke-linejoin="round"/>
</svg>
