<svg width="20" height="20" viewBox="0 0 20 20" fill="none" xmlns="http://www.w3.org/2000/svg">
<path d="M3.33337 14.2275V8.15711C3.33337 7.90488 3.42664 7.69815 3.61317 7.5369C3.79969 7.37551 4.01997 7.3087 4.274 7.33648C5.34997 7.50315 6.36844 7.82607 7.32942 8.30523C8.29039 8.7844 9.1806 9.38461 10 10.1059C10.8195 9.38461 11.7097 8.7844 12.6707 8.30523C13.6316 7.82607 14.6501 7.50315 15.7261 7.33648C15.9801 7.3087 16.2004 7.37551 16.3869 7.5369C16.5734 7.69815 16.6667 7.90488 16.6667 8.15711V14.2275C16.6667 14.4477 16.593 14.6392 16.4455 14.8021C16.2981 14.965 16.1143 15.0604 15.8942 15.0881C14.9199 15.2377 14.0134 15.4696 13.1746 15.7838C12.336 16.0978 11.5129 16.5294 10.7052 17.0786C10.5951 17.1608 10.4823 17.2198 10.3667 17.2556C10.251 17.2915 10.1284 17.3094 9.99879 17.3094C9.86935 17.3094 9.74719 17.2915 9.63233 17.2556C9.51747 17.2198 9.40497 17.1608 9.29483 17.0786C8.48719 16.5294 7.66671 16.0978 6.83337 15.7838C6.00004 15.4696 5.09087 15.2377 4.10587 15.0881C3.88574 15.0604 3.70199 14.965 3.55462 14.8021C3.40712 14.6392 3.33337 14.4477 3.33337 14.2275ZM10 16.5513C10.875 15.9092 11.8056 15.3914 12.7917 14.9979C13.7778 14.6045 14.7917 14.3445 15.8334 14.2179V8.14752C14.7448 8.32808 13.7055 8.67926 12.7157 9.20107C11.7258 9.72301 10.8206 10.3943 10 11.2148C9.17948 10.3943 8.27428 9.72301 7.28442 9.20107C6.29455 8.67926 5.25532 8.32808 4.16671 8.14752V14.2179C5.20837 14.3445 6.22226 14.6045 7.20837 14.9979C8.19448 15.3914 9.12504 15.9092 10 16.5513ZM10 7.14752C9.25962 7.14752 8.6258 6.88391 8.09858 6.35669C7.57136 5.82933 7.30775 5.19551 7.30775 4.45523C7.30775 3.71481 7.57136 3.081 8.09858 2.55377C8.6258 2.02655 9.25962 1.76294 10 1.76294C10.7405 1.76294 11.3743 2.02655 11.9015 2.55377C12.4287 3.081 12.6923 3.71481 12.6923 4.45523C12.6923 5.19551 12.4287 5.82933 11.9015 6.35669C11.3743 6.88391 10.7405 7.14752 10 7.14752ZM10.0007 6.31419C10.5121 6.31419 10.9496 6.13211 11.3134 5.76794C11.6771 5.40377 11.859 4.966 11.859 4.45461C11.859 3.94322 11.6769 3.50565 11.3127 3.1419C10.9486 2.77815 10.5108 2.59627 9.99942 2.59627C9.48803 2.59627 9.05046 2.77829 8.68671 3.14231C8.32296 3.50648 8.14108 3.94426 8.14108 4.45565C8.14108 4.96704 8.32317 5.40461 8.68733 5.76836C9.0515 6.13225 9.48928 6.31419 10.0007 6.31419Z" fill="black"/>
</svg>
