<svg width="20" height="20" viewBox="0 0 20 20" fill="none" xmlns="http://www.w3.org/2000/svg">
<path d="M2.75581 16.4869C2.39581 16.4869 2.08247 16.3537 1.81581 16.0871C1.54928 15.8206 1.41602 15.5073 1.41602 15.1473V6.49025C1.41602 6.3365 1.46747 6.20782 1.57039 6.10421C1.67317 6.00046 1.80081 5.94859 1.95331 5.94859C2.10581 5.94859 2.2349 6.00046 2.3406 6.10421C2.44643 6.20782 2.49935 6.3365 2.49935 6.49025V15.1473C2.49935 15.2221 2.52338 15.2834 2.57143 15.3315C2.61949 15.3796 2.68095 15.4036 2.75581 15.4036H15.041C15.1948 15.4036 15.3234 15.455 15.4271 15.558C15.5308 15.6607 15.5827 15.7884 15.5827 15.9409C15.5827 16.0934 15.5308 16.2225 15.4271 16.3284C15.3234 16.4341 15.1948 16.4869 15.041 16.4869H2.75581ZM5.33914 13.9036C4.979 13.9036 4.66567 13.7703 4.39914 13.5038C4.13261 13.2373 3.99935 12.924 3.99935 12.564V3.7563C3.99935 3.38657 4.13261 3.07081 4.39914 2.809C4.66567 2.54734 4.979 2.4165 5.33914 2.4165H8.28289C8.45914 2.4165 8.62872 2.44859 8.79164 2.51275C8.9547 2.57678 9.10456 2.6772 9.24122 2.814L10.8439 4.4165H16.2429C16.6126 4.4165 16.9284 4.54734 17.1902 4.809C17.4519 5.07081 17.5827 5.38657 17.5827 5.7563V12.564C17.5827 12.924 17.4519 13.2373 17.1902 13.5038C16.9284 13.7703 16.6126 13.9036 16.2429 13.9036H5.33914ZM5.33914 12.8205H16.2429C16.3178 12.8205 16.3792 12.7964 16.4273 12.7482C16.4753 12.7001 16.4994 12.6387 16.4994 12.564V5.7563C16.4994 5.68143 16.4753 5.61998 16.4273 5.57192C16.3792 5.52387 16.3178 5.49984 16.2429 5.49984H10.416L8.41602 3.49984H5.33914C5.26428 3.49984 5.20282 3.52387 5.15477 3.57192C5.10671 3.61998 5.08268 3.68143 5.08268 3.7563V12.564C5.08268 12.6387 5.10671 12.7001 5.15477 12.7482C5.20282 12.7964 5.26428 12.8205 5.33914 12.8205ZM10.3712 10.3844L9.23977 8.94692C9.17213 8.85192 9.08692 8.80442 8.98414 8.80442C8.88122 8.80442 8.79602 8.85463 8.72852 8.95505L7.60185 10.4598C7.51532 10.5741 7.5015 10.6927 7.56039 10.8155C7.61914 10.9384 7.71685 10.9998 7.85352 10.9998H13.985C14.1215 10.9998 14.2192 10.9384 14.2781 10.8155C14.3369 10.6927 14.3257 10.5741 14.2446 10.4598L12.5698 8.20025C12.5023 8.09984 12.4157 8.04963 12.3102 8.04963C12.2048 8.04963 12.1182 8.09984 12.0506 8.20025L10.3712 10.3844Z" fill="#525866"/>
</svg>
