<svg width="19" height="19" viewBox="0 0 19 19" fill="none" xmlns="http://www.w3.org/2000/svg">
<path d="M4.4751 14.3634V13.3886H5.23091V8.5423C5.23091 7.48367 5.5641 6.55749 6.23047 5.76374C6.89672 4.96999 7.7491 4.48992 8.7876 4.32355V3.38755C8.7876 3.18967 8.85679 3.02142 8.99516 2.8828C9.13354 2.7443 9.30154 2.67505 9.49916 2.67505C9.69691 2.67505 9.86522 2.7443 10.0041 2.8828C10.1431 3.02142 10.2126 3.18967 10.2126 3.38755V4.32355C11.2511 4.48992 12.1035 4.96999 12.7697 5.76374C13.4361 6.55749 13.7693 7.48367 13.7693 8.5423V13.3886H14.5251V14.3634H4.4751ZM9.49485 16.4692C9.16185 16.4692 8.87854 16.3512 8.64491 16.115C8.41116 15.8789 8.29429 15.595 8.29429 15.2634H10.7059C10.7059 15.6 10.5873 15.8852 10.35 16.1188C10.1129 16.3524 9.82785 16.4692 9.49485 16.4692ZM6.20591 13.3886H12.7943V8.5423C12.7943 7.62405 12.4748 6.84549 11.836 6.20661C11.197 5.56761 10.4183 5.24811 9.5001 5.24811C8.58185 5.24811 7.80322 5.56761 7.16422 6.20661C6.52535 6.84549 6.20591 7.62405 6.20591 8.5423V13.3886Z" fill="#525866"/>
</svg>
