<svg width="20" height="20" viewBox="0 0 20 20" fill="none" xmlns="http://www.w3.org/2000/svg">
<path d="M3.75581 16.5835C3.38067 16.5835 3.06358 16.454 2.80456 16.195C2.54553 15.9359 2.41602 15.6188 2.41602 15.2437V6.75662C2.41602 6.38148 2.54553 6.0644 2.80456 5.80537C3.06358 5.54634 3.38067 5.41683 3.75581 5.41683H6.41602V4.16891C6.41602 3.79252 6.54553 3.47586 6.80456 3.21891C7.06359 2.96197 7.38067 2.8335 7.75581 2.8335H12.2429C12.618 2.8335 12.9351 2.96301 13.1941 3.22204C13.4532 3.48107 13.5827 3.79815 13.5827 4.17329V5.41683H16.2429C16.618 5.41683 16.9351 5.54634 17.1941 5.80537C17.4532 6.0644 17.5827 6.38148 17.5827 6.75662V15.2437C17.5827 15.6188 17.4532 15.9359 17.1941 16.195C16.9351 16.454 16.618 16.5835 16.2429 16.5835H3.75581ZM7.49935 5.41683H12.4993V4.17329C12.4993 4.10912 12.4726 4.05037 12.4191 3.99704C12.3658 3.94357 12.3071 3.91683 12.2429 3.91683H7.75581C7.69164 3.91683 7.63289 3.94357 7.57956 3.99704C7.52609 4.05037 7.49935 4.10912 7.49935 4.17329V5.41683ZM16.4993 12.0418H12.0827V12.9135C12.0827 13.1047 12.0188 13.2642 11.891 13.3918C11.7634 13.5196 11.6039 13.5835 11.4127 13.5835H8.58602C8.39477 13.5835 8.23532 13.5196 8.10768 13.3918C7.97991 13.2642 7.91602 13.1047 7.91602 12.9135V12.0418H3.49935V15.2437C3.49935 15.3079 3.52609 15.3666 3.57956 15.42C3.63289 15.4734 3.69164 15.5002 3.75581 15.5002H16.2429C16.3071 15.5002 16.3658 15.4734 16.4191 15.42C16.4726 15.3666 16.4993 15.3079 16.4993 15.2437V12.0418ZM8.99935 12.5002H10.9993V10.5002H8.99935V12.5002ZM3.49935 10.9585H7.91602V10.0868C7.91602 9.89558 7.97991 9.73614 8.10768 9.6085C8.23532 9.48072 8.39477 9.41683 8.58602 9.41683H11.4127C11.6039 9.41683 11.7634 9.48072 11.891 9.6085C12.0188 9.73614 12.0827 9.89558 12.0827 10.0868V10.9585H16.4993V6.75662C16.4993 6.69245 16.4726 6.6337 16.4191 6.58037C16.3658 6.5269 16.3071 6.50016 16.2429 6.50016H3.75581C3.69164 6.50016 3.63289 6.5269 3.57956 6.58037C3.52609 6.6337 3.49935 6.69245 3.49935 6.75662V10.9585Z" fill="#525866"/>
</svg>
