<svg width="20" height="21" viewBox="0 0 20 21" fill="none" xmlns="http://www.w3.org/2000/svg">
<path d="M13.2975 8.74984C13.4512 8.74984 13.5799 8.69845 13.6835 8.59567C13.7873 8.49275 13.8391 8.36505 13.8391 8.21255C13.8391 8.06005 13.7873 7.93095 13.6835 7.82525C13.5799 7.71942 13.4512 7.6665 13.2975 7.6665H10.541C10.3873 7.6665 10.2586 7.71796 10.155 7.82088C10.0512 7.92366 9.99935 8.0513 9.99935 8.2038C9.99935 8.3563 10.0512 8.48539 10.155 8.59109C10.2586 8.69692 10.3873 8.74984 10.541 8.74984H13.2975ZM13.2975 13.3332C13.4512 13.3332 13.5799 13.2817 13.6835 13.1788C13.7873 13.076 13.8391 12.9484 13.8391 12.7959C13.8391 12.6434 13.7873 12.5143 13.6835 12.4086C13.5799 12.3028 13.4512 12.2498 13.2975 12.2498H10.541C10.3873 12.2498 10.2586 12.3012 10.155 12.404C10.0512 12.5069 9.99935 12.6346 9.99935 12.7871C9.99935 12.9396 10.0512 13.0687 10.155 13.1744C10.2586 13.2803 10.3873 13.3332 10.541 13.3332H13.2975ZM7.50372 9.38755C7.83206 9.38755 8.10997 9.27234 8.33747 9.04192C8.56497 8.81137 8.67872 8.53199 8.67872 8.2038C8.67872 7.8756 8.56352 7.59768 8.3331 7.37005C8.10254 7.14255 7.82317 7.0288 7.49497 7.0288C7.16664 7.0288 6.88872 7.144 6.66122 7.37442C6.43372 7.60498 6.31997 7.88435 6.31997 8.21255C6.31997 8.54088 6.43518 8.8188 6.6656 9.0463C6.89615 9.2738 7.17553 9.38755 7.50372 9.38755ZM7.50372 13.9709C7.83206 13.9709 8.10997 13.8557 8.33747 13.6253C8.56497 13.3947 8.67872 13.1153 8.67872 12.7871C8.67872 12.4588 8.56352 12.1809 8.3331 11.9534C8.10254 11.7259 7.82317 11.6121 7.49497 11.6121C7.16664 11.6121 6.88872 11.7273 6.66122 11.9578C6.43372 12.1883 6.31997 12.4677 6.31997 12.7959C6.31997 13.1241 6.43518 13.402 6.6656 13.6296C6.89615 13.8571 7.17553 13.9709 7.50372 13.9709ZM4.75581 17.0832C4.38067 17.0832 4.06358 16.9537 3.80456 16.6946C3.54553 16.4356 3.41602 16.1185 3.41602 15.7434V5.2563C3.41602 4.88116 3.54553 4.56407 3.80456 4.30505C4.06358 4.04602 4.38067 3.9165 4.75581 3.9165H15.2429C15.618 3.9165 15.9351 4.04602 16.1941 4.30505C16.4532 4.56407 16.5827 4.88116 16.5827 5.2563V15.7434C16.5827 16.1185 16.4532 16.4356 16.1941 16.6946C15.9351 16.9537 15.618 17.0832 15.2429 17.0832H4.75581ZM4.75581 15.9998H15.2429C15.3071 15.9998 15.3658 15.9731 15.4191 15.9196C15.4726 15.8663 15.4993 15.8075 15.4993 15.7434V5.2563C15.4993 5.19213 15.4726 5.13338 15.4191 5.08005C15.3658 5.02657 15.3071 4.99984 15.2429 4.99984H4.75581C4.69164 4.99984 4.63289 5.02657 4.57956 5.08005C4.52609 5.13338 4.49935 5.19213 4.49935 5.2563V15.7434C4.49935 15.8075 4.52609 15.8663 4.57956 15.9196C4.63289 15.9731 4.69164 15.9998 4.75581 15.9998Z" fill="white"/>
</svg>
