<svg width="20" height="21" viewBox="0 0 20 21" fill="none" xmlns="http://www.w3.org/2000/svg">
<path d="M4.82883 14.3395C4.6248 14.2445 4.46001 14.0843 4.33445 13.8591C4.2089 13.6338 4.14612 13.3976 4.14612 13.1505V9.49343L2.31612 8.59447C2.1932 8.53031 2.09973 8.44669 2.0357 8.34364C1.97154 8.24045 1.93945 8.12579 1.93945 7.99968C1.93945 7.87357 1.97154 7.75899 2.0357 7.65593C2.09973 7.55301 2.1932 7.46947 2.31612 7.40531L8.63695 4.27197C8.73015 4.22308 8.82619 4.18739 8.92508 4.16489C9.02397 4.14253 9.12543 4.13135 9.22945 4.13135C9.33348 4.13135 9.43494 4.14253 9.53383 4.16489C9.63272 4.18739 9.7289 4.22301 9.82237 4.27176L17.0082 7.8076C17.1225 7.87704 17.2104 7.96218 17.272 8.06301C17.3333 8.16385 17.364 8.2726 17.364 8.38926V13.2851C17.364 13.4205 17.3076 13.5447 17.1947 13.6576C17.0817 13.7704 16.9541 13.8268 16.8117 13.8268C16.6692 13.8268 16.5451 13.7704 16.4395 13.6576C16.3336 13.5447 16.2807 13.4205 16.2807 13.2851V8.52551L14.3128 9.49343V13.1505C14.3128 13.3976 14.2535 13.6303 14.1349 13.8486C14.0163 14.067 13.848 14.2306 13.6301 14.3395L9.82404 16.2451C9.72362 16.2952 9.62536 16.3281 9.52924 16.3436C9.43327 16.3591 9.3348 16.3668 9.23383 16.3668C9.13272 16.3668 9.03272 16.3591 8.93383 16.3436C8.83494 16.3281 8.73529 16.2952 8.63487 16.2451L4.82883 14.3395ZM9.1332 10.7643C9.1707 10.7857 9.20411 10.7963 9.23341 10.7963C9.26286 10.7963 9.29626 10.7857 9.33362 10.7643L14.8674 7.99989L9.33362 5.24343C9.29626 5.22204 9.26286 5.21135 9.23341 5.21135C9.20411 5.21135 9.1707 5.22204 9.1332 5.24343L3.59154 7.99989L9.1332 10.7643ZM9.12529 15.2466C9.16265 15.2679 9.19737 15.2786 9.22945 15.2786C9.26154 15.2786 9.29626 15.2679 9.33362 15.2466L13.1092 13.3876C13.152 13.3609 13.1827 13.3302 13.2013 13.2955C13.2201 13.2608 13.2295 13.2167 13.2295 13.1632V10.0559L9.87841 11.713C9.76411 11.777 9.6548 11.8203 9.5505 11.8428C9.44619 11.8653 9.33918 11.8766 9.22945 11.8766C9.10126 11.8766 8.98612 11.8653 8.88404 11.8428C8.78209 11.8203 8.68091 11.777 8.5805 11.713L5.22945 10.0559V13.1632C5.22945 13.206 5.23883 13.2475 5.25758 13.2876C5.27619 13.3276 5.30688 13.3609 5.34966 13.3876L9.12529 15.2466Z" fill="#525866"/>
</svg>
