<svg width="20" height="20" viewBox="0 0 20 20" fill="none" xmlns="http://www.w3.org/2000/svg">
<mask id="path-1-inside-1_4220_3197" fill="white">
<path d="M10.125 16.125C9.78333 16.125 9.5 15.8417 9.5 15.5V13.75C9.5 13.4083 9.78333 13.125 10.125 13.125C10.4667 13.125 10.75 13.4083 10.75 13.75V15.5C10.75 15.8417 10.4667 16.125 10.125 16.125Z"/>
</mask>
<path d="M10.125 16.125C9.78333 16.125 9.5 15.8417 9.5 15.5V13.75C9.5 13.4083 9.78333 13.125 10.125 13.125C10.4667 13.125 10.75 13.4083 10.75 13.75V15.5C10.75 15.8417 10.4667 16.125 10.125 16.125Z" fill="#292D32"/>
<path d="M10.125 16.125V14.625C10.6118 14.625 11 15.0132 11 15.5H9.5H8C8 16.6701 8.95491 17.625 10.125 17.625V16.125ZM9.5 15.5H11V13.75H9.5H8V15.5H9.5ZM9.5 13.75H11C11 14.2368 10.6118 14.625 10.125 14.625V13.125V11.625C8.95491 11.625 8 12.5799 8 13.75H9.5ZM10.125 13.125V14.625C9.63824 14.625 9.25 14.2368 9.25 13.75H10.75H12.25C12.25 12.5799 11.2951 11.625 10.125 11.625V13.125ZM10.75 13.75H9.25V15.5H10.75H12.25V13.75H10.75ZM10.75 15.5H9.25C9.25 15.0132 9.63824 14.625 10.125 14.625V16.125V17.625C11.2951 17.625 12.25 16.6701 12.25 15.5H10.75Z" fill="#242424" mask="url(#path-1-inside-1_4220_3197)"/>
<mask id="path-3-inside-2_4220_3197" fill="white">
<path d="M14.9168 18.9583H5.3335V17.4999C5.3335 16.2333 6.3585 15.2083 7.62516 15.2083H12.6252C13.8918 15.2083 14.9168 16.2333 14.9168 17.4999V18.9583ZM6.5835 17.7083H13.6668V17.4999C13.6668 16.9249 13.2002 16.4583 12.6252 16.4583H7.62516C7.05016 16.4583 6.5835 16.9249 6.5835 17.4999V17.7083Z"/>
</mask>
<path d="M14.9168 18.9583H5.3335V17.4999C5.3335 16.2333 6.3585 15.2083 7.62516 15.2083H12.6252C13.8918 15.2083 14.9168 16.2333 14.9168 17.4999V18.9583ZM6.5835 17.7083H13.6668V17.4999C13.6668 16.9249 13.2002 16.4583 12.6252 16.4583H7.62516C7.05016 16.4583 6.5835 16.9249 6.5835 17.4999V17.7083Z" fill="#292D32"/>
<path d="M14.9168 18.9583V20.4583H16.4168V18.9583H14.9168ZM5.3335 18.9583H3.8335V20.4583H5.3335V18.9583ZM13.6668 17.7083V19.2083H15.1668V17.7083H13.6668ZM14.9168 18.9583V17.4583H5.3335V18.9583V20.4583H14.9168V18.9583ZM5.3335 18.9583H6.8335V17.4999H5.3335H3.8335V18.9583H5.3335ZM5.3335 17.4999H6.8335C6.8335 17.0617 7.18692 16.7083 7.62516 16.7083V15.2083V13.7083C5.53007 13.7083 3.8335 15.4048 3.8335 17.4999H5.3335ZM7.62516 15.2083V16.7083H12.6252V15.2083V13.7083H7.62516V15.2083ZM12.6252 15.2083V16.7083C13.0634 16.7083 13.4168 17.0617 13.4168 17.4999H14.9168H16.4168C16.4168 15.4048 14.7203 13.7083 12.6252 13.7083V15.2083ZM14.9168 17.4999H13.4168V18.9583H14.9168H16.4168V17.4999H14.9168ZM6.5835 17.7083V19.2083H13.6668V17.7083V16.2083H6.5835V17.7083ZM13.6668 17.7083H15.1668V17.4999H13.6668H12.1668V17.7083H13.6668ZM13.6668 17.4999H15.1668C15.1668 16.0965 14.0286 14.9583 12.6252 14.9583V16.4583V17.9583C12.3717 17.9583 12.1668 17.7533 12.1668 17.4999H13.6668ZM12.6252 16.4583V14.9583H7.62516V16.4583V17.9583H12.6252V16.4583ZM7.62516 16.4583V14.9583C6.22173 14.9583 5.0835 16.0965 5.0835 17.4999H6.5835H8.0835C8.0835 17.7533 7.87859 17.9583 7.62516 17.9583V16.4583ZM6.5835 17.4999H5.0835V17.7083H6.5835H8.0835V17.4999H6.5835Z" fill="#242424" mask="url(#path-3-inside-2_4220_3197)"/>
<mask id="path-5-inside-3_4220_3197" fill="white">
<path d="M15.125 18.9583H5.125C4.78333 18.9583 4.5 18.6749 4.5 18.3333C4.5 17.9916 4.78333 17.7083 5.125 17.7083H15.125C15.4667 17.7083 15.75 17.9916 15.75 18.3333C15.75 18.6749 15.4667 18.9583 15.125 18.9583Z"/>
</mask>
<path d="M15.125 18.9583H5.125C4.78333 18.9583 4.5 18.6749 4.5 18.3333C4.5 17.9916 4.78333 17.7083 5.125 17.7083H15.125C15.4667 17.7083 15.75 17.9916 15.75 18.3333C15.75 18.6749 15.4667 18.9583 15.125 18.9583Z" fill="#292D32"/>
<path d="M15.125 18.9583V17.4583H5.125V18.9583V20.4583H15.125V18.9583ZM5.125 18.9583V17.4583C5.61176 17.4583 6 17.8465 6 18.3333H4.5H3C3 19.5033 3.95491 20.4583 5.125 20.4583V18.9583ZM4.5 18.3333H6C6 18.82 5.61176 19.2083 5.125 19.2083V17.7083V16.2083C3.95491 16.2083 3 17.1632 3 18.3333H4.5ZM5.125 17.7083V19.2083H15.125V17.7083V16.2083H5.125V17.7083ZM15.125 17.7083V19.2083C14.6382 19.2083 14.25 18.82 14.25 18.3333H15.75H17.25C17.25 17.1632 16.2951 16.2083 15.125 16.2083V17.7083ZM15.75 18.3333H14.25C14.25 17.8465 14.6382 17.4583 15.125 17.4583V18.9583V20.4583C16.2951 20.4583 17.25 19.5033 17.25 18.3333H15.75Z" fill="#242424" mask="url(#path-5-inside-3_4220_3197)"/>
<path d="M15.3581 10.3666C15.1831 10.3666 15.0081 10.2916 14.8831 10.1499C14.7248 9.96655 14.6831 9.70822 14.7831 9.49155C15.0664 8.84155 15.2081 8.14989 15.2081 7.42489V4.92489C15.2081 4.63322 15.1581 4.34989 15.0581 4.04989C15.0498 4.02489 15.0414 3.99155 15.0331 3.95822C15.0081 3.83322 14.9998 3.70822 14.9998 3.59155C14.9998 3.24989 15.2831 2.96655 15.6248 2.96655H16.1248C17.6164 2.96655 18.8331 4.21655 18.8331 5.75822C18.8331 7.03322 18.3081 8.29155 17.3998 9.19989C17.3831 9.21655 17.3331 9.25822 17.3248 9.26655C16.8331 9.67489 16.2748 10.1332 15.5248 10.3416C15.4664 10.3582 15.4164 10.3666 15.3581 10.3666ZM16.3998 4.24155C16.4414 4.46655 16.4581 4.69989 16.4581 4.92489V7.42489C16.4581 7.76655 16.4331 8.09155 16.3831 8.42489C16.4331 8.38322 16.4748 8.34989 16.5248 8.30822C17.1914 7.64155 17.5831 6.70822 17.5831 5.75822C17.5831 5.00822 17.0748 4.37489 16.3998 4.24155Z" fill="#292D32"/>
<path d="M4.64984 10.3333C4.58317 10.3333 4.52484 10.325 4.45817 10.3C3.77484 10.0833 3.13317 9.68333 2.59984 9.15C1.6415 8.09167 1.1665 6.93333 1.1665 5.70833C1.1665 4.19167 2.35817 3 3.87484 3H4.4165C4.62484 3 4.82484 3.10833 4.9415 3.28333C5.05817 3.45833 5.07484 3.68333 4.9915 3.875C4.85817 4.175 4.7915 4.51667 4.7915 4.875V7.375C4.7915 8.09167 4.93317 8.79167 5.22484 9.45833C5.32484 9.68333 5.27484 9.94167 5.1165 10.125C4.9915 10.2583 4.82484 10.3333 4.64984 10.3333ZM3.58317 4.275C2.90817 4.40833 2.4165 4.99167 2.4165 5.70833C2.4165 6.61667 2.78317 7.49167 3.50817 8.29167C3.5415 8.33333 3.58317 8.36667 3.62484 8.4C3.5665 8.05833 3.5415 7.71667 3.5415 7.375V4.875C3.5415 4.675 3.55817 4.475 3.58317 4.275Z" fill="#292D32"/>
<path d="M9.99984 13.9584C6.4415 13.9584 3.5415 11.0584 3.5415 7.50008V5.00008C3.5415 2.81675 5.3165 1.04175 7.49984 1.04175H12.4998C14.6832 1.04175 16.4582 2.81675 16.4582 5.00008V7.50008C16.4582 11.0584 13.5582 13.9584 9.99984 13.9584ZM7.49984 2.29175C6.00817 2.29175 4.7915 3.50841 4.7915 5.00008V7.50008C4.7915 10.3751 7.12484 12.7084 9.99984 12.7084C12.8748 12.7084 15.2082 10.3751 15.2082 7.50008V5.00008C15.2082 3.50841 13.9915 2.29175 12.4998 2.29175H7.49984Z" fill="#292D32"/>
</svg>
