<svg width="20" height="20" viewBox="0 0 20 20" fill="none" xmlns="http://www.w3.org/2000/svg">
<mask id="path-1-inside-1_4220_4776" fill="white">
<path d="M7.5 14.7917C7.41667 14.7917 7.34167 14.7751 7.25833 14.7417C7.025 14.6501 6.875 14.4167 6.875 14.1667V9.16675C6.875 8.82508 7.15833 8.54175 7.5 8.54175C7.84167 8.54175 8.125 8.82508 8.125 9.16675V12.6584L8.725 12.0584C8.96667 11.8167 9.36667 11.8167 9.60833 12.0584C9.85 12.3001 9.85 12.7001 9.60833 12.9417L7.94167 14.6084C7.825 14.7251 7.65833 14.7917 7.5 14.7917Z"/>
</mask>
<path d="M7.5 14.7917C7.41667 14.7917 7.34167 14.7751 7.25833 14.7417C7.025 14.6501 6.875 14.4167 6.875 14.1667V9.16675C6.875 8.82508 7.15833 8.54175 7.5 8.54175C7.84167 8.54175 8.125 8.82508 8.125 9.16675V12.6584L8.725 12.0584C8.96667 11.8167 9.36667 11.8167 9.60833 12.0584C9.85 12.3001 9.85 12.7001 9.60833 12.9417L7.94167 14.6084C7.825 14.7251 7.65833 14.7917 7.5 14.7917Z" fill="#292D32"/>
<path d="M7.25833 14.7417L7.72258 13.5811L7.7154 13.5783L7.25833 14.7417ZM8.125 12.6584H6.875V15.6762L9.00888 13.5423L8.125 12.6584ZM8.725 12.0584L9.60888 12.9423L9.60888 12.9423L8.725 12.0584ZM9.60833 12.9417L8.72445 12.0579L8.72445 12.0579L9.60833 12.9417ZM7.94167 14.6084L8.82555 15.4923H8.82555L7.94167 14.6084ZM7.5 14.7917V13.5417C7.54449 13.5417 7.59122 13.5465 7.63668 13.5561C7.68038 13.5653 7.71051 13.5763 7.72257 13.5812L7.25833 14.7417L6.7941 15.9023C6.99669 15.9834 7.22969 16.0417 7.5 16.0417V14.7917ZM7.25833 14.7417L7.7154 13.5783C7.98827 13.6855 8.125 13.9334 8.125 14.1667H6.875H5.625C5.625 14.9001 6.06173 15.6147 6.80127 15.9052L7.25833 14.7417ZM6.875 14.1667H8.125V9.16675H6.875H5.625V14.1667H6.875ZM6.875 9.16675H8.125C8.125 9.51544 7.84869 9.79175 7.5 9.79175V8.54175V7.29175C6.46798 7.29175 5.625 8.13473 5.625 9.16675H6.875ZM7.5 8.54175V9.79175C7.15131 9.79175 6.875 9.51544 6.875 9.16675H8.125H9.375C9.375 8.13473 8.53202 7.29175 7.5 7.29175V8.54175ZM8.125 9.16675H6.875V12.6584H8.125H9.375V9.16675H8.125ZM8.125 12.6584L9.00888 13.5423L9.60888 12.9423L8.725 12.0584L7.84112 11.1745L7.24112 11.7745L8.125 12.6584ZM8.725 12.0584L9.60888 12.9423C9.3624 13.1888 8.97094 13.1888 8.72445 12.9423L9.60833 12.0584L10.4922 11.1745C9.76239 10.4447 8.57094 10.4447 7.84112 11.1745L8.725 12.0584ZM9.60833 12.0584L8.72445 12.9423C8.47796 12.6958 8.47796 12.3044 8.72445 12.0579L9.60833 12.9417L10.4922 13.8256C11.222 13.0958 11.222 11.9044 10.4922 11.1745L9.60833 12.0584ZM9.60833 12.9417L8.72445 12.0579L7.05778 13.7245L7.94167 14.6084L8.82555 15.4923L10.4922 13.8256L9.60833 12.9417ZM7.94167 14.6084L7.05778 13.7245C7.12422 13.6581 7.19508 13.6149 7.26132 13.5877C7.32712 13.5606 7.40683 13.5417 7.5 13.5417V14.7917V16.0417C7.98482 16.0417 8.47093 15.8469 8.82555 15.4923L7.94167 14.6084Z" fill="#242424" mask="url(#path-1-inside-1_4220_4776)"/>
<mask id="path-3-inside-2_4220_4776" fill="white">
<path d="M7.50003 14.7918C7.3417 14.7918 7.18337 14.7334 7.05837 14.6084L5.3917 12.9418C5.15003 12.7001 5.15003 12.3001 5.3917 12.0584C5.63337 11.8168 6.03337 11.8168 6.27503 12.0584L7.9417 13.7251C8.18337 13.9668 8.18337 14.3668 7.9417 14.6084C7.8167 14.7334 7.65837 14.7918 7.50003 14.7918Z"/>
</mask>
<path d="M7.50003 14.7918C7.3417 14.7918 7.18337 14.7334 7.05837 14.6084L5.3917 12.9418C5.15003 12.7001 5.15003 12.3001 5.3917 12.0584C5.63337 11.8168 6.03337 11.8168 6.27503 12.0584L7.9417 13.7251C8.18337 13.9668 8.18337 14.3668 7.9417 14.6084C7.8167 14.7334 7.65837 14.7918 7.50003 14.7918Z" fill="#292D32"/>
<path d="M7.05837 14.6084L6.17448 15.4923L6.17448 15.4923L7.05837 14.6084ZM5.3917 12.9418L6.27558 12.0579L6.27558 12.0579L5.3917 12.9418ZM6.27503 12.0584L5.39115 12.9423L5.39115 12.9423L6.27503 12.0584ZM7.9417 13.7251L8.82558 12.8412V12.8412L7.9417 13.7251ZM7.50003 14.7918V13.5418C7.65533 13.5418 7.82047 13.6028 7.94225 13.7246L7.05837 14.6084L6.17448 15.4923C6.54626 15.8641 7.02807 16.0418 7.50003 16.0418V14.7918ZM7.05837 14.6084L7.94225 13.7246L6.27558 12.0579L5.3917 12.9418L4.50782 13.8257L6.17448 15.4923L7.05837 14.6084ZM5.3917 12.9418L6.27558 12.0579C6.52207 12.3044 6.52207 12.6958 6.27558 12.9423L5.3917 12.0584L4.50782 11.1746C3.77799 11.9044 3.77799 13.0958 4.50782 13.8257L5.3917 12.9418ZM5.3917 12.0584L6.27558 12.9423C6.02909 13.1888 5.63764 13.1888 5.39115 12.9423L6.27503 12.0584L7.15892 11.1746C6.42909 10.4447 5.23764 10.4447 4.50782 11.1746L5.3917 12.0584ZM6.27503 12.0584L5.39115 12.9423L7.05782 14.609L7.9417 13.7251L8.82558 12.8412L7.15892 11.1746L6.27503 12.0584ZM7.9417 13.7251L7.05782 14.609C6.81133 14.3625 6.81133 13.9711 7.05782 13.7246L7.9417 14.6084L8.82558 15.4923C9.5554 14.7625 9.5554 13.5711 8.82558 12.8412L7.9417 13.7251ZM7.9417 14.6084L7.05782 13.7246C7.17959 13.6028 7.34474 13.5418 7.50003 13.5418V14.7918V16.0418C7.972 16.0418 8.45381 15.8641 8.82558 15.4923L7.9417 14.6084Z" fill="#242424" mask="url(#path-3-inside-2_4220_4776)"/>
<path d="M7.11279 18.3279C7.0981 18.3275 7.08347 18.3264 7.06885 18.3259C7.08348 18.3263 7.09811 18.3275 7.11279 18.3279ZM12.9331 18.3259C12.9169 18.3264 12.9006 18.3274 12.8843 18.3279C12.9006 18.3275 12.9169 18.3264 12.9331 18.3259Z" fill="#292D32" stroke="#242424" stroke-width="1.25"/>
<path d="M18.3332 8.95841H14.9998C12.1498 8.95841 11.0415 7.85007 11.0415 5.00007V1.66674C11.0415 1.41674 11.1915 1.18341 11.4248 1.09174C11.6582 0.991739 11.9248 1.05007 12.1082 1.22507L18.7748 7.89174C18.9498 8.06674 19.0082 8.34174 18.9082 8.57507C18.8082 8.8084 18.5832 8.95841 18.3332 8.95841ZM12.2915 3.17507V5.00007C12.2915 7.15007 12.8498 7.70841 14.9998 7.70841H16.8248L12.2915 3.17507Z" fill="#292D32"/>
</svg>
