<svg width="20" height="21" viewBox="0 0 20 21" fill="none" xmlns="http://www.w3.org/2000/svg">
<path d="M10.0008 18.0832C8.96136 18.0832 7.98074 17.8858 7.05893 17.4911C6.13713 17.0964 5.33032 16.5532 4.63852 15.8617C3.94671 15.1702 3.40331 14.3637 3.00831 13.4423C2.61345 12.5209 2.41602 11.5406 2.41602 10.5013C2.41602 9.44796 2.61338 8.46386 3.0081 7.549C3.40282 6.63414 3.94595 5.83081 4.63747 5.139C5.329 4.4472 6.13546 3.9038 7.05685 3.5088C7.97824 3.11393 8.95859 2.9165 9.99789 2.9165C11.0512 2.9165 12.0353 3.11386 12.9502 3.50859C13.865 3.90331 14.6684 4.44643 15.3602 5.13796C16.052 5.82949 16.5954 6.63248 16.9904 7.54692C17.3853 8.46137 17.5827 9.44518 17.5827 10.4984C17.5827 11.5378 17.3853 12.5184 16.9906 13.4403C16.5959 14.3621 16.0528 15.1689 15.3612 15.8607C14.6697 16.5525 13.8667 17.0959 12.9523 17.4909C12.0378 17.8857 11.054 18.0832 10.0008 18.0832ZM9.99935 16.9998C11.8049 16.9998 13.3396 16.3679 14.6035 15.104C15.8674 13.8401 16.4993 12.3054 16.4993 10.4998C16.4993 8.69428 15.8674 7.15956 14.6035 5.89567C13.3396 4.63178 11.8049 3.99984 9.99935 3.99984C8.19379 3.99984 6.65907 4.63178 5.39518 5.89567C4.13129 7.15956 3.49935 8.69428 3.49935 10.4998C3.49935 12.3054 4.13129 13.8401 5.39518 15.104C6.65907 16.3679 8.19379 16.9998 9.99935 16.9998ZM9.97852 15.8396C10.1302 15.8396 10.2594 15.7931 10.3662 15.7C10.4732 15.6071 10.5266 15.4848 10.5266 15.3332V14.8925C11.1591 14.8188 11.7062 14.5551 12.1677 14.1015C12.6292 13.648 12.86 13.1072 12.86 12.479C12.86 11.854 12.6532 11.331 12.2398 10.91C11.8263 10.4892 11.2446 10.1469 10.4946 9.88296C9.66011 9.5838 9.1131 9.31775 8.85352 9.08484C8.59393 8.85192 8.46414 8.54581 8.46414 8.1665C8.46414 7.85664 8.60782 7.59275 8.89518 7.37484C9.18254 7.15692 9.54365 7.04796 9.97852 7.04796C10.2745 7.04796 10.5387 7.09894 10.771 7.20088C11.0034 7.30296 11.1997 7.44373 11.36 7.62317C11.4615 7.7472 11.579 7.83025 11.7125 7.87234C11.8461 7.91456 11.9725 7.909 12.0918 7.85567C12.227 7.7915 12.3175 7.69935 12.3633 7.57921C12.4091 7.45893 12.3941 7.34116 12.3183 7.22588C12.11 6.91171 11.8482 6.66407 11.5329 6.48296C11.2178 6.30185 10.8823 6.17657 10.5266 6.10713V5.6665C10.5266 5.51484 10.4766 5.39255 10.3766 5.29963C10.2768 5.20657 10.151 5.16005 9.99935 5.16005C9.84768 5.16005 9.72192 5.20657 9.62206 5.29963C9.52206 5.39255 9.47206 5.51484 9.47206 5.6665V6.10713C8.83109 6.24394 8.32713 6.50435 7.96018 6.88838C7.5931 7.27255 7.40956 7.70553 7.40956 8.18734C7.40956 8.75789 7.60963 9.24775 8.00977 9.65692C8.4099 10.0661 9.10782 10.4592 10.1035 10.8363C10.8087 11.1056 11.2782 11.3589 11.5123 11.5961C11.7462 11.8332 11.8631 12.1275 11.8631 12.479C11.8631 12.9043 11.6919 13.2525 11.3496 13.5238C11.0071 13.7952 10.6125 13.9309 10.166 13.9309C9.77018 13.9309 9.40893 13.8286 9.08227 13.624C8.7556 13.4194 8.49824 13.1441 8.31018 12.798C8.23977 12.6794 8.13643 12.5947 8.00018 12.544C7.86393 12.4932 7.73421 12.4948 7.61102 12.5488C7.46324 12.6028 7.36546 12.6984 7.31768 12.8357C7.27004 12.9729 7.27984 13.1034 7.34706 13.2273C7.57997 13.6526 7.88046 14.0052 8.24852 14.285C8.61657 14.565 9.01747 14.7606 9.45122 14.8717V15.3332C9.45122 15.4848 9.50122 15.6071 9.60122 15.7C9.70109 15.7931 9.82685 15.8396 9.97852 15.8396Z" fill="#525866"/>
</svg>
