<svg width="20" height="21" viewBox="0 0 20 21" fill="none" xmlns="http://www.w3.org/2000/svg">
<path d="M8.99935 10.2433C8.2806 10.2433 7.67039 9.99249 7.16872 9.49083C6.66692 8.98902 6.41602 8.37874 6.41602 7.65999C6.41602 6.94124 6.66692 6.33104 7.16872 5.82937C7.67039 5.32756 8.2806 5.07666 8.99935 5.07666C9.7181 5.07666 10.3283 5.32756 10.83 5.82937C11.3318 6.33104 11.5827 6.94124 11.5827 7.65999C11.5827 8.37874 11.3318 8.98902 10.83 9.49083C10.3283 9.99249 9.7181 10.2433 8.99935 10.2433ZM9.00372 9.15999C9.41747 9.15999 9.77018 9.0127 10.0618 8.71812C10.3535 8.42353 10.4993 8.06937 10.4993 7.65562C10.4993 7.24187 10.3521 6.88916 10.0575 6.59749C9.76289 6.30583 9.40872 6.15999 8.99497 6.15999C8.58122 6.15999 8.22852 6.30735 7.93685 6.60208C7.64518 6.89666 7.49935 7.25083 7.49935 7.66458C7.49935 8.07819 7.64664 8.43083 7.94122 8.72249C8.23581 9.01416 8.58997 9.15999 9.00372 9.15999ZM17.6952 18.9523L15.7235 17.0046C15.447 17.1819 15.1631 17.3174 14.8718 17.4108C14.5807 17.5043 14.2905 17.551 14.001 17.551C13.1506 17.551 12.4291 17.2542 11.8366 16.6606C11.2443 16.0669 10.9481 15.346 10.9481 14.4979C10.9481 13.6499 11.2449 12.9296 11.8385 12.3371C12.4323 11.7447 13.1532 11.4485 14.0012 11.4485C14.8493 11.4485 15.5696 11.7452 16.1621 12.3385C16.7544 12.9319 17.0506 13.6523 17.0506 14.4998C17.0506 14.7903 17.0039 15.0812 16.9104 15.3723C16.8169 15.6635 16.6815 15.9474 16.5041 16.224L18.4704 18.1956C18.5826 18.3087 18.64 18.4317 18.6427 18.5646C18.6453 18.6976 18.5863 18.8245 18.4656 18.9452C18.3449 19.0659 18.2159 19.1262 18.0787 19.1262C17.9414 19.1262 17.8135 19.0683 17.6952 18.9523ZM13.9946 16.4677C14.548 16.4677 15.0152 16.2788 15.396 15.901C15.7768 15.5234 15.9673 15.0579 15.9673 14.5046C15.9673 13.9511 15.7784 13.484 15.4006 13.1031C15.023 12.7223 14.5575 12.5319 14.0041 12.5319C13.4507 12.5319 12.9835 12.7208 12.6027 13.0985C12.2218 13.4762 12.0314 13.9417 12.0314 14.495C12.0314 15.0485 12.2203 15.5156 12.5981 15.8965C12.9757 16.2773 13.4412 16.4677 13.9946 16.4677ZM3.41602 14.8235V14.3956C3.41602 14.1105 3.49352 13.8493 3.64852 13.6121C3.80338 13.3749 4.0149 13.1809 4.2831 13.0302C5.05865 12.5826 5.904 12.2401 6.81914 12.0029C7.73414 11.7658 8.63129 11.6809 9.5106 11.7481C9.66018 11.7642 9.7865 11.8253 9.88956 11.9315C9.99275 12.0377 10.0443 12.166 10.0443 12.3165C10.0443 12.4449 9.99275 12.5567 9.88956 12.6519C9.7865 12.747 9.66018 12.7962 9.5106 12.7994C8.58963 12.7738 7.73442 12.869 6.94497 13.0848C6.15539 13.3005 5.45664 13.5916 4.84872 13.9581C4.73859 14.0059 4.65282 14.0684 4.59143 14.1456C4.53004 14.2228 4.49935 14.3062 4.49935 14.3956V14.8396H9.00747C9.16095 14.8396 9.28956 14.8911 9.39331 14.9942C9.4972 15.0971 9.54914 15.2247 9.54914 15.3771C9.54914 15.5294 9.4972 15.6585 9.39331 15.7642C9.28956 15.87 9.16095 15.9229 9.00747 15.9229H4.51539C4.2097 15.9229 3.95004 15.8161 3.73643 15.6025C3.52282 15.3887 3.41602 15.1291 3.41602 14.8235Z" fill="#525866"/>
</svg>
