<svg width="20" height="21" viewBox="0 0 20 21" fill="none" xmlns="http://www.w3.org/2000/svg">
<path d="M3.74914 15.9232C3.45428 15.9232 3.20004 15.8164 2.98643 15.6028C2.77282 15.3891 2.66602 15.1348 2.66602 14.8399V14.4853C2.66602 14.1713 2.74213 13.8936 2.89435 13.6522C3.04657 13.4108 3.25928 13.2103 3.53247 13.0507C4.21331 12.6495 4.92977 12.3335 5.68185 12.1026C6.43407 11.8719 7.28984 11.7566 8.24914 11.7566C8.51553 11.7566 8.779 11.763 9.03956 11.7757C9.30011 11.7885 9.54518 11.8174 9.77477 11.8624C9.90935 11.8831 9.99803 11.9532 10.0408 12.0726C10.0836 12.1921 10.0856 12.3184 10.0468 12.4516C10.0082 12.5848 9.92227 12.6996 9.78893 12.7962C9.6556 12.8926 9.47636 12.9253 9.25122 12.8943C9.09178 12.8719 8.92824 12.8573 8.7606 12.8503C8.59296 12.8434 8.42004 12.8399 8.24185 12.8399C7.44338 12.8399 6.70171 12.9344 6.01685 13.1235C5.33199 13.3126 4.69525 13.591 4.10664 13.9585C3.97372 14.0297 3.88095 14.106 3.82831 14.1874C3.77553 14.2688 3.74914 14.3681 3.74914 14.4853V14.8399H9.09539C9.269 14.8399 9.39921 14.8962 9.48602 15.0087C9.57282 15.1212 9.61622 15.245 9.61622 15.3801C9.61622 15.5151 9.57282 15.6394 9.48602 15.7528C9.39921 15.8664 9.269 15.9232 9.09539 15.9232H3.74914ZM8.24914 10.2437C7.53039 10.2437 6.92018 9.99283 6.41852 9.49117C5.91685 8.98936 5.66602 8.37908 5.66602 7.66033C5.66602 6.94158 5.91685 6.33137 6.41852 5.82971C6.92018 5.3279 7.53039 5.077 8.24914 5.077C8.96789 5.077 9.57817 5.3279 10.08 5.82971C10.5816 6.33137 10.8325 6.94158 10.8325 7.66033C10.8325 8.37908 10.5816 8.98936 10.08 9.49117C9.57817 9.99283 8.96789 10.2437 8.24914 10.2437ZM14.1112 7.66033C14.1112 8.37908 13.8604 8.98936 13.3587 9.49117C12.8571 9.99283 12.2468 10.2437 11.5281 10.2437C11.4757 10.2437 11.4464 10.2469 11.44 10.2532C11.4334 10.2596 11.4041 10.257 11.3518 10.2453C11.6527 9.89186 11.8914 9.49867 12.0679 9.06575C12.2443 8.63283 12.3325 8.16408 12.3325 7.6595C12.3325 7.15478 12.2425 6.6879 12.0625 6.25887C11.8825 5.82998 11.6456 5.43554 11.3518 5.07554C11.3881 5.07443 11.4175 5.07443 11.44 5.07554C11.4623 5.07651 11.4917 5.077 11.5281 5.077C12.2468 5.077 12.8571 5.3279 13.3587 5.82971C13.8604 6.33137 14.1112 6.94158 14.1112 7.66033ZM8.25372 9.16033C8.66734 9.16033 9.01997 9.01304 9.31164 8.71846C9.60331 8.42387 9.74914 8.06971 9.74914 7.65596C9.74914 7.24221 9.60185 6.8895 9.30727 6.59783C9.01268 6.30617 8.65852 6.16033 8.24477 6.16033C7.83102 6.16033 7.47831 6.30769 7.18664 6.60241C6.89497 6.897 6.74914 7.25116 6.74914 7.66492C6.74914 8.07853 6.8965 8.43117 7.19122 8.72283C7.48581 9.0145 7.83997 9.16033 8.25372 9.16033ZM13.8737 16.0001C14.3271 16.0001 14.7129 15.8343 15.0312 15.5026C15.3496 15.1708 15.5061 14.7939 15.5008 14.372C15.4955 13.9178 15.3374 13.5329 15.0264 13.2172C14.7156 12.9015 14.3325 12.7437 13.8771 12.7437C13.4215 12.7437 13.0355 12.9019 12.7191 13.2185C12.4026 13.5348 12.2443 13.9197 12.2443 14.373C12.2443 14.8264 12.4026 15.2109 12.7191 15.5266C13.0355 15.8423 13.4204 16.0001 13.8737 16.0001ZM13.8727 17.0835C13.1187 17.0835 12.4782 16.8201 11.9514 16.2935C11.4245 15.7668 11.161 15.1266 11.161 14.3728C11.161 13.6191 11.4243 12.9785 11.951 12.4512C12.4777 11.9239 13.1179 11.6603 13.8716 11.6603C14.6255 11.6603 15.2661 11.9238 15.7933 12.4507C16.3205 12.9776 16.5841 13.618 16.5841 14.372C16.5841 14.6507 16.5454 14.9143 16.4679 15.1626C16.3904 15.4111 16.2839 15.6411 16.1483 15.8526L18.1275 17.8318C18.2428 17.9472 18.3018 18.0714 18.3046 18.2045C18.3072 18.3374 18.2508 18.4629 18.1354 18.581C18.02 18.699 17.8909 18.7567 17.7483 18.7541C17.6057 18.7514 17.4767 18.6924 17.3614 18.577L15.3823 16.6187C15.1568 16.7735 14.92 16.8897 14.6716 16.9672C14.4234 17.0447 14.1571 17.0835 13.8727 17.0835Z" fill="#525866"/>
</svg>
