<svg width="20" height="20" viewBox="0 0 20 20" fill="none" xmlns="http://www.w3.org/2000/svg">
<path d="M6.54813 13.4998H16.0352C16.0994 13.4998 16.1581 13.4731 16.2115 13.4196C16.2649 13.3663 16.2917 13.3075 16.2917 13.2434V3.7563C16.2917 3.69213 16.2649 3.63338 16.2115 3.58005C16.1581 3.52657 16.0994 3.49984 16.0352 3.49984H14.7917V9.09921C14.7917 9.22894 14.7358 9.3263 14.6242 9.3913C14.5125 9.45616 14.4065 9.45921 14.306 9.40046L13.2852 8.90213C13.1848 8.85185 13.0897 8.82671 13 8.82671C12.9103 8.82671 12.8152 8.85185 12.7148 8.90213L11.694 9.40046C11.5849 9.45921 11.4767 9.45616 11.3694 9.3913C11.262 9.3263 11.2083 9.22894 11.2083 9.09921V3.49984H6.54813C6.48396 3.49984 6.42521 3.52657 6.37188 3.58005C6.3184 3.63338 6.29167 3.69213 6.29167 3.7563V13.2434C6.29167 13.3075 6.3184 13.3663 6.37188 13.4196C6.42521 13.4731 6.48396 13.4998 6.54813 13.4998ZM6.54813 14.5832C6.17299 14.5832 5.8559 14.4537 5.59687 14.1946C5.33785 13.9356 5.20833 13.6185 5.20833 13.2434V3.7563C5.20833 3.38116 5.33785 3.06407 5.59687 2.80505C5.8559 2.54602 6.17299 2.4165 6.54813 2.4165H16.0352C16.4103 2.4165 16.7274 2.54602 16.9865 2.80505C17.2455 3.06407 17.375 3.38116 17.375 3.7563V13.2434C17.375 13.6185 17.2455 13.9356 16.9865 14.1946C16.7274 14.4537 16.4103 14.5832 16.0352 14.5832H6.54813ZM3.96479 17.1665C3.58965 17.1665 3.27257 17.037 3.01354 16.778C2.75451 16.5189 2.625 16.2019 2.625 15.8267V5.79796C2.625 5.64421 2.67646 5.51546 2.77938 5.41171C2.88215 5.3081 3.00979 5.2563 3.16229 5.2563C3.31479 5.2563 3.44396 5.3081 3.54979 5.41171C3.65549 5.51546 3.70833 5.64421 3.70833 5.79796V15.8267C3.70833 15.8909 3.73507 15.9496 3.78854 16.003C3.84188 16.0564 3.90062 16.0832 3.96479 16.0832H13.9935C14.1473 16.0832 14.276 16.1346 14.3798 16.2373C14.4834 16.3403 14.5352 16.468 14.5352 16.6205C14.5352 16.773 14.4834 16.9021 14.3798 17.0078C14.276 17.1136 14.1473 17.1665 13.9935 17.1665H3.96479Z" fill="#525866"/>
</svg>
