<svg width="20" height="20" viewBox="0 0 20 20" fill="none" xmlns="http://www.w3.org/2000/svg">
<path d="M9.45768 5.04183H7.24935C7.09588 5.04183 6.96727 4.9903 6.86352 4.88725C6.75963 4.78419 6.70768 4.65655 6.70768 4.50433C6.70768 4.35197 6.75963 4.22294 6.86352 4.11725C6.96727 4.01141 7.09588 3.9585 7.24935 3.9585H9.45768V1.75016C9.45768 1.59669 9.50921 1.46808 9.61227 1.36433C9.71532 1.26044 9.84296 1.2085 9.99518 1.2085C10.1475 1.2085 10.2766 1.26044 10.3823 1.36433C10.4881 1.46808 10.541 1.59669 10.541 1.75016V3.9585H12.7493C12.9028 3.9585 13.0314 4.01002 13.1352 4.11308C13.2391 4.21614 13.291 4.34377 13.291 4.496C13.291 4.64836 13.2391 4.77739 13.1352 4.88308C13.0314 4.98891 12.9028 5.04183 12.7493 5.04183H10.541V7.25016C10.541 7.40364 10.4895 7.53225 10.3864 7.636C10.2834 7.73989 10.1557 7.79183 10.0035 7.79183C9.85116 7.79183 9.72213 7.73989 9.61643 7.636C9.5106 7.53225 9.45768 7.40364 9.45768 7.25016V5.04183ZM5.6231 17.6316C5.26282 17.6316 4.95824 17.5056 4.70935 17.2537C4.46046 17.0019 4.33602 16.6958 4.33602 16.3354C4.33602 15.9751 4.46192 15.6705 4.71372 15.4216C4.96567 15.1727 5.27178 15.0483 5.63206 15.0483C5.99234 15.0483 6.29692 15.1742 6.54581 15.426C6.7947 15.6779 6.91914 15.9841 6.91914 16.3443C6.91914 16.7046 6.79324 17.0092 6.54143 17.2581C6.28949 17.5071 5.98338 17.6316 5.6231 17.6316ZM14.3666 17.6316C14.0064 17.6316 13.7018 17.5056 13.4529 17.2537C13.204 17.0019 13.0796 16.6958 13.0796 16.3354C13.0796 15.9751 13.2055 15.6705 13.4573 15.4216C13.7092 15.1727 14.0153 15.0483 14.3756 15.0483C14.7359 15.0483 15.0405 15.1742 15.2893 15.426C15.5382 15.6779 15.6627 15.9841 15.6627 16.3443C15.6627 16.7046 15.5368 17.0092 15.285 17.2581C15.033 17.5071 14.7269 17.6316 14.3666 17.6316ZM3.12768 3.29183H1.95768C1.80421 3.29183 1.6756 3.2403 1.57185 3.13725C1.46796 3.03419 1.41602 2.90655 1.41602 2.75433C1.41602 2.60197 1.46796 2.47294 1.57185 2.36725C1.6756 2.26141 1.80421 2.2085 1.95768 2.2085H3.38914C3.53206 2.2085 3.65504 2.246 3.7581 2.321C3.86129 2.396 3.94386 2.49523 4.00581 2.6187L7.00727 9.54829H13.126C13.1741 9.54829 13.2168 9.53627 13.2541 9.51225C13.2915 9.48822 13.3236 9.45482 13.3504 9.41204L15.4048 4.56266C15.4582 4.46114 15.5296 4.37676 15.6187 4.30954C15.708 4.24218 15.8072 4.2085 15.9162 4.2085C16.1207 4.2085 16.274 4.2862 16.3762 4.44162C16.4786 4.59704 16.4929 4.76502 16.4191 4.94558L14.3406 9.82704C14.2317 10.0675 14.0716 10.2616 13.8604 10.4095C13.6491 10.5576 13.4097 10.6316 13.1421 10.6316H6.60352L5.68039 12.2277C5.63761 12.2918 5.63629 12.3613 5.67643 12.436C5.71643 12.5109 5.7765 12.5483 5.85664 12.5483H15.1212C15.2747 12.5483 15.4033 12.5998 15.5071 12.7029C15.6108 12.8058 15.6627 12.9334 15.6627 13.0858C15.6627 13.2381 15.6108 13.3672 15.5071 13.4729C15.4033 13.5787 15.2747 13.6316 15.1212 13.6316H5.87747C5.36358 13.6316 4.9822 13.4115 4.73331 12.9712C4.48442 12.5311 4.48713 12.1027 4.74143 11.686L5.88872 9.71496L3.12768 3.29183Z" fill="#525866"/>
</svg>
