<svg width="20" height="20" viewBox="0 0 20 20" fill="none" xmlns="http://www.w3.org/2000/svg">
<path d="M9.99435 11.2917C9.21782 11.2917 8.55921 11.0197 8.01852 10.4757C7.47796 9.93179 7.20768 9.27158 7.20768 8.49505C7.20768 7.71852 7.4797 7.05991 8.02372 6.51922C8.56761 5.97866 9.22782 5.70839 10.0043 5.70839C10.7809 5.70839 11.4395 5.9804 11.9802 6.52443C12.5207 7.06832 12.791 7.72852 12.791 8.50505C12.791 9.28158 12.519 9.94019 11.975 10.4809C11.4311 11.0214 10.7709 11.2917 9.99435 11.2917ZM9.99935 10.2084C10.4695 10.2084 10.8717 10.0412 11.206 9.70672C11.5405 9.37241 11.7077 8.97019 11.7077 8.50005C11.7077 8.02991 11.5405 7.62769 11.206 7.29339C10.8717 6.95894 10.4695 6.79172 9.99935 6.79172C9.52921 6.79172 9.12699 6.95894 8.79268 7.29339C8.45824 7.62769 8.29102 8.02991 8.29102 8.50005C8.29102 8.97019 8.45824 9.37241 8.79268 9.70672C9.12699 10.0412 9.52921 10.2084 9.99935 10.2084ZM4.05227 14.1026C3.8499 13.9816 3.69331 13.8196 3.58247 13.6167C3.4715 13.4138 3.41602 13.1949 3.41602 12.9601V7.06089C3.41602 6.82602 3.4715 6.60714 3.58247 6.40422C3.69331 6.2013 3.8499 6.03936 4.05227 5.91839L9.29581 2.67005C9.49984 2.53325 9.73435 2.46484 9.99935 2.46484C10.2643 2.46484 10.4989 2.53325 10.7029 2.67005L15.9464 5.91839C16.1488 6.03936 16.3054 6.2013 16.4162 6.40422C16.5272 6.60714 16.5827 6.82602 16.5827 7.06089V12.9601C16.5827 13.1949 16.5272 13.4138 16.4162 13.6167C16.3054 13.8196 16.1488 13.9816 15.9464 14.1026L10.7029 17.3301C10.4989 17.4669 10.2643 17.5353 9.99935 17.5353C9.73435 17.5353 9.49984 17.4669 9.29581 17.3301L4.05227 14.1026ZM9.99935 13.7917C9.42879 13.7917 8.87747 13.8532 8.34539 13.9761C7.81345 14.0989 7.29796 14.2847 6.79893 14.5336L9.8631 16.4198C9.90588 16.4466 9.95129 16.4601 9.99935 16.4601C10.0474 16.4601 10.0928 16.4466 10.1356 16.4198L13.1998 14.5336C12.7007 14.2847 12.1853 14.0989 11.6533 13.9761C11.1212 13.8532 10.5699 13.7917 9.99935 13.7917ZM5.7206 13.8573C6.37435 13.4921 7.06109 13.2092 7.78081 13.0088C8.50053 12.8085 9.23879 12.7084 9.9956 12.7084C10.7524 12.7084 11.4919 12.8085 12.2141 13.0088C12.9364 13.2092 13.6243 13.4921 14.2781 13.8573L15.3791 13.1763C15.4219 13.1496 15.4526 13.1176 15.4712 13.0803C15.49 13.0428 15.4993 13.0027 15.4993 12.9601V7.06505C15.4993 7.02227 15.49 6.9822 15.4712 6.94484C15.4526 6.90748 15.4219 6.8754 15.3791 6.84859L10.1356 3.60109C10.0928 3.57429 10.0474 3.56089 9.99935 3.56089C9.95129 3.56089 9.90588 3.57429 9.8631 3.60109L4.61956 6.84859C4.57678 6.8754 4.54609 6.90748 4.52747 6.94484C4.50872 6.9822 4.49935 7.02227 4.49935 7.06505V12.9601C4.49935 13.0027 4.50872 13.0428 4.52747 13.0803C4.54609 13.1176 4.57678 13.1496 4.61956 13.1763L5.7206 13.8573Z" fill="#525866"/>
</svg>
