<svg width="20" height="20" viewBox="0 0 20 20" fill="none" xmlns="http://www.w3.org/2000/svg">
<mask id="path-1-inside-1_4220_2057" fill="white">
<path d="M12.5002 18.9584H7.50016C3.82516 18.9584 2.7085 17.8417 2.7085 14.1667V5.83342C2.7085 2.15841 3.82516 1.04175 7.50016 1.04175H12.5002C16.1752 1.04175 17.2918 2.15841 17.2918 5.83342V14.1667C17.2918 17.8417 16.1752 18.9584 12.5002 18.9584ZM7.50016 2.29175C4.51683 2.29175 3.9585 2.85841 3.9585 5.83342V14.1667C3.9585 17.1417 4.51683 17.7084 7.50016 17.7084H12.5002C15.4835 17.7084 16.0418 17.1417 16.0418 14.1667V5.83342C16.0418 2.85841 15.4835 2.29175 12.5002 2.29175H7.50016Z"/>
</mask>
<path d="M12.5002 18.9584H7.50016C3.82516 18.9584 2.7085 17.8417 2.7085 14.1667V5.83342C2.7085 2.15841 3.82516 1.04175 7.50016 1.04175H12.5002C16.1752 1.04175 17.2918 2.15841 17.2918 5.83342V14.1667C17.2918 17.8417 16.1752 18.9584 12.5002 18.9584ZM7.50016 2.29175C4.51683 2.29175 3.9585 2.85841 3.9585 5.83342V14.1667C3.9585 17.1417 4.51683 17.7084 7.50016 17.7084H12.5002C15.4835 17.7084 16.0418 17.1417 16.0418 14.1667V5.83342C16.0418 2.85841 15.4835 2.29175 12.5002 2.29175H7.50016Z" fill="#292D32"/>
<path d="M12.5002 18.9584V17.4584H7.50016V18.9584V20.4584H12.5002V18.9584ZM7.50016 18.9584V17.4584C5.71432 17.4584 5.06912 17.1623 4.78686 16.88C4.5046 16.5978 4.2085 15.9526 4.2085 14.1667H2.7085H1.2085C1.2085 16.0559 1.47072 17.8065 2.66554 19.0014C3.86037 20.1962 5.61101 20.4584 7.50016 20.4584V18.9584ZM2.7085 14.1667H4.2085V5.83342H2.7085H1.2085V14.1667H2.7085ZM2.7085 5.83342H4.2085C4.2085 4.04757 4.5046 3.40238 4.78686 3.12012C5.06912 2.83786 5.71432 2.54175 7.50016 2.54175V1.04175V-0.458252C5.61101 -0.458252 3.86037 -0.196027 2.66554 0.998796C1.47072 2.19362 1.2085 3.94426 1.2085 5.83342H2.7085ZM7.50016 1.04175V2.54175H12.5002V1.04175V-0.458252H7.50016V1.04175ZM12.5002 1.04175V2.54175C14.286 2.54175 14.9312 2.83786 15.2135 3.12012C15.4957 3.40238 15.7918 4.04757 15.7918 5.83342H17.2918H18.7918C18.7918 3.94426 18.5296 2.19362 17.3348 0.998796C16.14 -0.196027 14.3893 -0.458252 12.5002 -0.458252V1.04175ZM17.2918 5.83342H15.7918V14.1667H17.2918H18.7918V5.83342H17.2918ZM17.2918 14.1667H15.7918C15.7918 15.9526 15.4957 16.5978 15.2135 16.88C14.9312 17.1623 14.286 17.4584 12.5002 17.4584V18.9584V20.4584C14.3893 20.4584 16.14 20.1962 17.3348 19.0014C18.5296 17.8065 18.7918 16.0559 18.7918 14.1667H17.2918ZM7.50016 2.29175V0.791748C6.72786 0.791748 6.00718 0.826381 5.37837 0.959117C4.73285 1.09538 4.07863 1.35651 3.54884 1.88737C3.01921 2.41808 2.75959 3.07244 2.62434 3.71683C2.49257 4.34465 2.4585 5.0638 2.4585 5.83342H3.9585H5.4585C5.4585 5.11553 5.49422 4.64822 5.56036 4.33307C5.62303 4.03449 5.68945 3.98937 5.67232 4.00654C5.65503 4.02386 5.69977 3.95738 5.998 3.89443C6.31294 3.82795 6.7808 3.79175 7.50016 3.79175V2.29175ZM3.9585 5.83342H2.4585V14.1667H3.9585H5.4585V5.83342H3.9585ZM3.9585 14.1667H2.4585C2.4585 14.9364 2.49257 15.6555 2.62434 16.2833C2.75959 16.9277 3.01921 17.5821 3.54884 18.1128C4.07863 18.6437 4.73285 18.9048 5.37837 19.041C6.00718 19.1738 6.72786 19.2084 7.50016 19.2084V17.7084V16.2084C6.7808 16.2084 6.31294 16.1722 5.998 16.1057C5.69977 16.0428 5.65503 15.9763 5.67232 15.9936C5.68945 16.0108 5.62303 15.9657 5.56036 15.6671C5.49422 15.3519 5.4585 14.8846 5.4585 14.1667H3.9585ZM7.50016 17.7084V19.2084H12.5002V17.7084V16.2084H7.50016V17.7084ZM12.5002 17.7084V19.2084C13.2725 19.2084 13.9931 19.1738 14.622 19.041C15.2675 18.9048 15.9217 18.6437 16.4515 18.1128C16.9811 17.5821 17.2407 16.9277 17.376 16.2833C17.5078 15.6555 17.5418 14.9364 17.5418 14.1667H16.0418H14.5418C14.5418 14.8846 14.5061 15.3519 14.44 15.6671C14.3773 15.9657 14.3109 16.0108 14.328 15.9936C14.3453 15.9763 14.3006 16.0428 14.0023 16.1057C13.6874 16.1722 13.2195 16.2084 12.5002 16.2084V17.7084ZM16.0418 14.1667H17.5418V5.83342H16.0418H14.5418V14.1667H16.0418ZM16.0418 5.83342H17.5418C17.5418 5.0638 17.5078 4.34465 17.376 3.71683C17.2407 3.07244 16.9811 2.41808 16.4515 1.88737C15.9217 1.35651 15.2675 1.09538 14.622 0.959117C13.9931 0.826381 13.2725 0.791748 12.5002 0.791748V2.29175V3.79175C13.2195 3.79175 13.6874 3.82795 14.0023 3.89443C14.3006 3.95738 14.3453 4.02386 14.328 4.00654C14.3109 3.98937 14.3773 4.03449 14.44 4.33307C14.5061 4.64822 14.5418 5.11553 14.5418 5.83342H16.0418ZM12.5002 2.29175V0.791748H7.50016V2.29175V3.79175H12.5002V2.29175Z" fill="#242424" mask="url(#path-1-inside-1_4220_2057)"/>
<mask id="path-3-inside-2_4220_2057" fill="white">
<path d="M11.6668 5.20825H8.3335C7.99183 5.20825 7.7085 4.92492 7.7085 4.58325C7.7085 4.24159 7.99183 3.95825 8.3335 3.95825H11.6668C12.0085 3.95825 12.2918 4.24159 12.2918 4.58325C12.2918 4.92492 12.0085 5.20825 11.6668 5.20825Z"/>
</mask>
<path d="M11.6668 5.20825H8.3335C7.99183 5.20825 7.7085 4.92492 7.7085 4.58325C7.7085 4.24159 7.99183 3.95825 8.3335 3.95825H11.6668C12.0085 3.95825 12.2918 4.24159 12.2918 4.58325C12.2918 4.92492 12.0085 5.20825 11.6668 5.20825Z" fill="#292D32"/>
<path d="M11.6668 5.20825V3.70825H8.3335V5.20825V6.70825H11.6668V5.20825ZM8.3335 5.20825V3.70825C8.82026 3.70825 9.2085 4.09649 9.2085 4.58325H7.7085H6.2085C6.2085 5.75335 7.1634 6.70825 8.3335 6.70825V5.20825ZM7.7085 4.58325H9.2085C9.2085 5.07001 8.82026 5.45825 8.3335 5.45825V3.95825V2.45825C7.1634 2.45825 6.2085 3.41316 6.2085 4.58325H7.7085ZM8.3335 3.95825V5.45825H11.6668V3.95825V2.45825H8.3335V3.95825ZM11.6668 3.95825V5.45825C11.1801 5.45825 10.7918 5.07001 10.7918 4.58325H12.2918H13.7918C13.7918 3.41316 12.8369 2.45825 11.6668 2.45825V3.95825ZM12.2918 4.58325H10.7918C10.7918 4.09649 11.1801 3.70825 11.6668 3.70825V5.20825V6.70825C12.8369 6.70825 13.7918 5.75335 13.7918 4.58325H12.2918Z" fill="#242424" mask="url(#path-3-inside-2_4220_2057)"/>
<mask id="path-5-inside-3_4220_2057" fill="white">
<path d="M10.0002 16.5499C8.94183 16.5499 8.0835 15.6916 8.0835 14.6332C8.0835 13.5749 8.94183 12.7166 10.0002 12.7166C11.0585 12.7166 11.9168 13.5749 11.9168 14.6332C11.9168 15.6916 11.0585 16.5499 10.0002 16.5499ZM10.0002 13.9582C9.6335 13.9582 9.3335 14.2582 9.3335 14.6249C9.3335 14.9916 9.6335 15.2916 10.0002 15.2916C10.3668 15.2916 10.6668 14.9916 10.6668 14.6249C10.6668 14.2582 10.3668 13.9582 10.0002 13.9582Z"/>
</mask>
<path d="M10.0002 16.5499C8.94183 16.5499 8.0835 15.6916 8.0835 14.6332C8.0835 13.5749 8.94183 12.7166 10.0002 12.7166C11.0585 12.7166 11.9168 13.5749 11.9168 14.6332C11.9168 15.6916 11.0585 16.5499 10.0002 16.5499ZM10.0002 13.9582C9.6335 13.9582 9.3335 14.2582 9.3335 14.6249C9.3335 14.9916 9.6335 15.2916 10.0002 15.2916C10.3668 15.2916 10.6668 14.9916 10.6668 14.6249C10.6668 14.2582 10.3668 13.9582 10.0002 13.9582Z" fill="#292D32"/>
<path d="M10.0002 16.5499V15.0499C9.77026 15.0499 9.5835 14.8631 9.5835 14.6332H8.0835H6.5835C6.5835 16.52 8.1134 18.0499 10.0002 18.0499V16.5499ZM8.0835 14.6332H9.5835C9.5835 14.4033 9.77026 14.2166 10.0002 14.2166V12.7166V11.2166C8.1134 11.2166 6.5835 12.7465 6.5835 14.6332H8.0835ZM10.0002 12.7166V14.2166C10.2301 14.2166 10.4168 14.4033 10.4168 14.6332H11.9168H13.4168C13.4168 12.7465 11.8869 11.2166 10.0002 11.2166V12.7166ZM11.9168 14.6332H10.4168C10.4168 14.8631 10.2301 15.0499 10.0002 15.0499V16.5499V18.0499C11.8869 18.0499 13.4168 16.52 13.4168 14.6332H11.9168ZM10.0002 13.9582V12.4582C8.80507 12.4582 7.8335 13.4298 7.8335 14.6249H9.3335H10.8335C10.8335 15.0866 10.4619 15.4582 10.0002 15.4582V13.9582ZM9.3335 14.6249H7.8335C7.8335 15.82 8.80507 16.7916 10.0002 16.7916V15.2916V13.7916C10.4619 13.7916 10.8335 14.1631 10.8335 14.6249H9.3335ZM10.0002 15.2916V16.7916C11.1953 16.7916 12.1668 15.82 12.1668 14.6249H10.6668H9.16683C9.16683 14.1631 9.5384 13.7916 10.0002 13.7916V15.2916ZM10.6668 14.6249H12.1668C12.1668 13.4298 11.1953 12.4582 10.0002 12.4582V13.9582V15.4582C9.5384 15.4582 9.16683 15.0866 9.16683 14.6249H10.6668Z" fill="#242424" mask="url(#path-5-inside-3_4220_2057)"/>
</svg>
