<svg width="20" height="20" viewBox="0 0 20 20" fill="none" xmlns="http://www.w3.org/2000/svg">
<path d="M4.75581 16.5832C4.38734 16.5832 4.07192 16.452 3.80956 16.1896C3.5472 15.9273 3.41602 15.6119 3.41602 15.2434V4.7563C3.41602 4.38782 3.5472 4.07241 3.80956 3.81005C4.07192 3.54768 4.38734 3.4165 4.75581 3.4165H8.52664C8.50956 3.02331 8.64206 2.67505 8.92414 2.37171C9.20609 2.06824 9.56581 1.9165 10.0033 1.9165C10.4408 1.9165 10.8006 2.06824 11.0827 2.37171C11.3648 2.67505 11.4946 3.02331 11.4721 3.4165H15.2429C15.6114 3.4165 15.9268 3.54768 16.1891 3.81005C16.4515 4.07241 16.5827 4.38782 16.5827 4.7563V15.2434C16.5827 15.6119 16.4515 15.9273 16.1891 16.1896C15.9268 16.452 15.6114 16.5832 15.2429 16.5832H4.75581ZM4.75581 15.4998H15.2429C15.3071 15.4998 15.3658 15.4731 15.4191 15.4196C15.4726 15.3663 15.4993 15.3075 15.4993 15.2434V4.7563C15.4993 4.69213 15.4726 4.63338 15.4191 4.58005C15.3658 4.52657 15.3071 4.49984 15.2429 4.49984H4.75581C4.69164 4.49984 4.63289 4.52657 4.57956 4.58005C4.52609 4.63338 4.49935 4.69213 4.49935 4.7563V15.2434C4.49935 15.3075 4.52609 15.3663 4.57956 15.4196C4.63289 15.4731 4.69164 15.4998 4.75581 15.4998ZM6.74935 13.6953H11.2493C11.4028 13.6953 11.5314 13.6438 11.6352 13.5409C11.7391 13.4378 11.791 13.3101 11.791 13.1578C11.791 13.0055 11.7391 12.8765 11.6352 12.7707C11.5314 12.665 11.4028 12.6121 11.2493 12.6121H6.74935C6.59588 12.6121 6.46727 12.6636 6.36352 12.7665C6.25963 12.8696 6.20768 12.9973 6.20768 13.1496C6.20768 13.3019 6.25963 13.4309 6.36352 13.5367C6.46727 13.6424 6.59588 13.6953 6.74935 13.6953ZM6.74935 10.5415H13.2493C13.4028 10.5415 13.5314 10.49 13.6352 10.3869C13.7391 10.2839 13.791 10.1562 13.791 10.004C13.791 9.85164 13.7391 9.72262 13.6352 9.61692C13.5314 9.51109 13.4028 9.45817 13.2493 9.45817H6.74935C6.59588 9.45817 6.46727 9.5097 6.36352 9.61275C6.25963 9.71581 6.20768 9.84345 6.20768 9.99567C6.20768 10.148 6.25963 10.2771 6.36352 10.3828C6.46727 10.4886 6.59588 10.5415 6.74935 10.5415ZM6.74935 7.38755H13.2493C13.4028 7.38755 13.5314 7.33609 13.6352 7.23317C13.7391 7.13012 13.791 7.00241 13.791 6.85005C13.791 6.69782 13.7391 6.5688 13.6352 6.46296C13.5314 6.35727 13.4028 6.30442 13.2493 6.30442H6.74935C6.59588 6.30442 6.46727 6.35588 6.36352 6.4588C6.25963 6.56185 6.20768 6.68956 6.20768 6.84192C6.20768 6.99414 6.25963 7.12317 6.36352 7.229C6.46727 7.3347 6.59588 7.38755 6.74935 7.38755ZM9.99935 4.08005C10.1438 4.08005 10.2632 4.03282 10.3577 3.93838C10.4521 3.84393 10.4993 3.72449 10.4993 3.58005C10.4993 3.4356 10.4521 3.31616 10.3577 3.22171C10.2632 3.12727 10.1438 3.08005 9.99935 3.08005C9.8549 3.08005 9.73546 3.12727 9.64102 3.22171C9.54657 3.31616 9.49935 3.4356 9.49935 3.58005C9.49935 3.72449 9.54657 3.84393 9.64102 3.93838C9.73546 4.03282 9.8549 4.08005 9.99935 4.08005Z" fill="#525866"/>
</svg>
