<svg width="20" height="21" viewBox="0 0 20 21" fill="none" xmlns="http://www.w3.org/2000/svg">
<path d="M8.01594 13.1796C6.71746 13.1796 5.61281 12.7242 4.70198 11.8135C3.79128 10.9027 3.33594 9.79823 3.33594 8.50018C3.33594 7.20212 3.79128 6.09768 4.70198 5.18684C5.61281 4.27615 6.71726 3.8208 8.01531 3.8208C9.31337 3.8208 10.4178 4.27615 11.3286 5.18684C12.2393 6.09768 12.6947 7.20233 12.6947 8.5008C12.6947 9.04566 12.6052 9.56663 12.4264 10.0637C12.2473 10.5609 12.005 11.0098 11.6995 11.4104L16.2861 15.9971C16.4016 16.1123 16.4606 16.2365 16.4632 16.3696C16.4659 16.5026 16.4068 16.6295 16.2861 16.7502C16.1655 16.8709 16.0364 16.9312 15.8991 16.9312C15.7618 16.9312 15.6329 16.8709 15.5122 16.7502L10.9255 12.1843C10.5089 12.5006 10.052 12.7455 9.5549 12.9191C9.05781 13.0927 8.54483 13.1796 8.01594 13.1796ZM8.01531 12.0964C9.01962 12.0964 9.87004 11.7481 10.5666 11.0514C11.2632 10.3549 11.6116 9.50448 11.6116 8.50018C11.6116 7.49587 11.2632 6.64545 10.5666 5.94893C9.87004 5.25226 9.01962 4.90393 8.01531 4.90393C7.01101 4.90393 6.16059 5.25226 5.46406 5.94893C4.7674 6.64545 4.41906 7.49587 4.41906 8.50018C4.41906 9.50448 4.7674 10.3549 5.46406 11.0514C6.16059 11.7481 7.01101 12.0964 8.01531 12.0964Z" fill="#525866"/>
</svg>
