<svg width="18" height="18" viewBox="0 0 18 18" fill="none" xmlns="http://www.w3.org/2000/svg">
<path d="M8.99902 2C9.27691 2 9.65301 2.20911 9.99121 2.87695V2.87793L11.2812 5.46582H11.2822C11.3403 5.58198 11.4164 5.69037 11.5039 5.78809L4.67383 12.6172L4.79102 12.1123L4.79199 12.1094C4.85623 11.8231 4.82514 11.5126 4.74902 11.2461C4.67298 10.9799 4.53483 10.6989 4.32715 10.4912L2.50488 8.66895C2.06133 8.22535 1.94071 7.84701 1.97461 7.57812L1.99902 7.46973C2.09131 7.19919 2.40246 6.91133 3.10449 6.79199L5.44336 6.40332L5.44922 6.40234C5.7136 6.35531 5.97138 6.22423 6.17871 6.07227C6.38573 5.92048 6.58962 5.71313 6.71387 5.4707L6.7168 5.46582L8.00684 2.87793L8.00586 2.87695C8.34411 2.2088 8.72108 2.00001 8.99902 2Z" fill="#FFC207" stroke="#FFC207"/>
<path d="M14.126 6.66455L14.1289 6.66553L14.8867 6.79346V6.79248C15.5906 6.91217 15.9009 7.20098 15.9922 7.47217C16.0762 7.7428 15.9917 8.16294 15.4863 8.66846L15.4854 8.66943L13.6699 10.4917C13.4615 10.7004 13.3213 10.9788 13.2441 11.2476C13.1677 11.5138 13.1385 11.8233 13.207 12.1108V12.1118L13.7246 14.3696V14.3706C13.9301 15.2563 13.7449 15.6795 13.5371 15.8315C13.446 15.8971 13.3267 15.9399 13.1543 15.9399C12.8911 15.9399 12.5294 15.8396 12.0811 15.5747H12.082L9.88477 14.27L9.88281 14.269L9.78027 14.2144C9.535 14.0967 9.25638 14.0484 9 14.0483C8.70707 14.0483 8.38434 14.1117 8.11621 14.269L8.11426 14.27L5.91699 15.5747C5.22672 15.9784 4.78904 15.9889 4.55469 15.8853L4.4668 15.8354C4.44855 15.822 4.43183 15.8064 4.41504 15.7905L13.2607 6.9458C13.4934 6.7132 13.818 6.61084 14.126 6.66455Z" fill="#FFC207" stroke="#FFC207"/>
</svg>
