<svg width="20" height="20" viewBox="0 0 20 20" fill="none" xmlns="http://www.w3.org/2000/svg">
<mask id="path-1-inside-1_4220_4665" fill="white">
<path d="M10.7332 17.3834H5.67484C2.7165 17.3834 1.6665 15.3084 1.6665 13.375V6.62503C1.6665 3.7417 2.7915 2.6167 5.67484 2.6167H10.7332C13.6165 2.6167 14.7415 3.7417 14.7415 6.62503V13.375C14.7415 16.2584 13.6165 17.3834 10.7332 17.3834ZM5.67484 3.88337C3.49984 3.88337 2.93317 4.45003 2.93317 6.62503V13.375C2.93317 14.4 3.2915 16.1167 5.67484 16.1167H10.7332C12.9082 16.1167 13.4748 15.55 13.4748 13.375V6.62503C13.4748 4.45003 12.9082 3.88337 10.7332 3.88337H5.67484Z"/>
</mask>
<path d="M10.7332 17.3834H5.67484C2.7165 17.3834 1.6665 15.3084 1.6665 13.375V6.62503C1.6665 3.7417 2.7915 2.6167 5.67484 2.6167H10.7332C13.6165 2.6167 14.7415 3.7417 14.7415 6.62503V13.375C14.7415 16.2584 13.6165 17.3834 10.7332 17.3834ZM5.67484 3.88337C3.49984 3.88337 2.93317 4.45003 2.93317 6.62503V13.375C2.93317 14.4 3.2915 16.1167 5.67484 16.1167H10.7332C12.9082 16.1167 13.4748 15.55 13.4748 13.375V6.62503C13.4748 4.45003 12.9082 3.88337 10.7332 3.88337H5.67484Z" fill="#292D32"/>
<path d="M14.7415 13.375H13.2415H14.7415ZM10.7332 17.3834V15.8834H5.67484V17.3834V18.8834H10.7332V17.3834ZM5.67484 17.3834V15.8834C4.58075 15.8834 4.02534 15.5188 3.71466 15.1452C3.365 14.7247 3.1665 14.0955 3.1665 13.375H1.6665H0.166504C0.166504 14.5878 0.493005 15.9629 1.40793 17.0632C2.36184 18.2104 3.81059 18.8834 5.67484 18.8834V17.3834ZM1.6665 13.375H3.1665V6.62503H1.6665H0.166504V13.375H1.6665ZM1.6665 6.62503H3.1665C3.1665 5.32226 3.43116 4.81919 3.65008 4.60028C3.869 4.38136 4.37207 4.1167 5.67484 4.1167V2.6167V1.1167C4.09427 1.1167 2.59318 1.41454 1.52876 2.47896C0.464344 3.54337 0.166504 5.04447 0.166504 6.62503H1.6665ZM5.67484 2.6167V4.1167H10.7332V2.6167V1.1167H5.67484V2.6167ZM10.7332 2.6167V4.1167C12.0359 4.1167 12.539 4.38136 12.7579 4.60028C12.9768 4.81919 13.2415 5.32226 13.2415 6.62503H14.7415H16.2415C16.2415 5.04447 15.9437 3.54337 14.8792 2.47896C13.8148 1.41454 12.3137 1.1167 10.7332 1.1167V2.6167ZM14.7415 6.62503H13.2415V13.375H14.7415H16.2415V6.62503H14.7415ZM14.7415 13.375H13.2415C13.2415 14.6778 12.9768 15.1809 12.7579 15.3998C12.539 15.6187 12.0359 15.8834 10.7332 15.8834V17.3834V18.8834C12.3137 18.8834 13.8148 18.5855 14.8792 17.5211C15.9437 16.4567 16.2415 14.9556 16.2415 13.375H14.7415ZM5.67484 3.88337V2.38337C4.58532 2.38337 3.31424 2.49139 2.42772 3.37791C1.5412 4.26444 1.43317 5.53552 1.43317 6.62503H2.93317H4.43317C4.43317 6.12998 4.46719 5.82319 4.51339 5.63279C4.55553 5.45913 4.58926 5.45902 4.54904 5.49923C4.50882 5.53945 4.50894 5.50573 4.68259 5.46359C4.87299 5.41739 5.17978 5.38337 5.67484 5.38337V3.88337ZM2.93317 6.62503H1.43317V13.375H2.93317H4.43317V6.62503H2.93317ZM2.93317 13.375H1.43317C1.43317 14.0161 1.53691 15.0636 2.17871 15.9866C2.88919 17.0084 4.0717 17.6167 5.67484 17.6167V16.1167V14.6167C5.25903 14.6167 5.01944 14.5422 4.88994 14.4801C4.7677 14.4214 4.69575 14.3515 4.6418 14.2739C4.50859 14.0823 4.43317 13.7589 4.43317 13.375H2.93317ZM5.67484 16.1167V17.6167H10.7332V16.1167V14.6167H5.67484V16.1167ZM10.7332 16.1167V17.6167C11.8227 17.6167 13.0938 17.5087 13.9803 16.6222C14.8668 15.7356 14.9748 14.4645 14.9748 13.375H13.4748H11.9748C11.9748 13.8701 11.9408 14.1769 11.8946 14.3673C11.8525 14.5409 11.8188 14.541 11.859 14.5008C11.8992 14.4606 11.8991 14.4943 11.7254 14.5365C11.535 14.5827 11.2282 14.6167 10.7332 14.6167V16.1167ZM13.4748 13.375H14.9748V6.62503H13.4748H11.9748V13.375H13.4748ZM13.4748 6.62503H14.9748C14.9748 5.53552 14.8668 4.26444 13.9803 3.37791C13.0938 2.49139 11.8227 2.38337 10.7332 2.38337V3.88337V5.38337C11.2282 5.38337 11.535 5.41739 11.7254 5.46359C11.8991 5.50573 11.8992 5.53945 11.859 5.49923C11.8188 5.45902 11.8525 5.45913 11.8946 5.63279C11.9408 5.82319 11.9748 6.12998 11.9748 6.62503H13.4748ZM10.7332 3.88337V2.38337H5.67484V3.88337V5.38337H10.7332V3.88337Z" fill="#242424" mask="url(#path-1-inside-1_4220_4665)"/>
<mask id="path-3-inside-2_4220_4665" fill="white">
<path d="M17.3167 15.0916C16.9584 15.0916 16.5001 14.9749 15.9751 14.6082L13.7501 13.0499C13.5834 12.9332 13.4834 12.7416 13.4834 12.5332V7.46658C13.4834 7.25825 13.5834 7.06658 13.7501 6.94991L15.9751 5.39158C16.9667 4.69991 17.6917 4.89991 18.0334 5.07491C18.3751 5.25825 18.9584 5.73325 18.9584 6.94158V13.0499C18.9584 14.2582 18.3751 14.7416 18.0334 14.9166C17.8751 15.0082 17.6251 15.0916 17.3167 15.0916ZM14.7417 12.1999L16.7001 13.5666C17.0751 13.8249 17.3417 13.8499 17.4501 13.7916C17.5667 13.7332 17.6917 13.4999 17.6917 13.0499V6.94991C17.6917 6.49158 17.5584 6.26658 17.4501 6.20825C17.3417 6.14991 17.0751 6.17491 16.7001 6.43325L14.7417 7.79991V12.1999Z"/>
</mask>
<path d="M17.3167 15.0916C16.9584 15.0916 16.5001 14.9749 15.9751 14.6082L13.7501 13.0499C13.5834 12.9332 13.4834 12.7416 13.4834 12.5332V7.46658C13.4834 7.25825 13.5834 7.06658 13.7501 6.94991L15.9751 5.39158C16.9667 4.69991 17.6917 4.89991 18.0334 5.07491C18.3751 5.25825 18.9584 5.73325 18.9584 6.94158V13.0499C18.9584 14.2582 18.3751 14.7416 18.0334 14.9166C17.8751 15.0082 17.6251 15.0916 17.3167 15.0916ZM14.7417 12.1999L16.7001 13.5666C17.0751 13.8249 17.3417 13.8499 17.4501 13.7916C17.5667 13.7332 17.6917 13.4999 17.6917 13.0499V6.94991C17.6917 6.49158 17.5584 6.26658 17.4501 6.20825C17.3417 6.14991 17.0751 6.17491 16.7001 6.43325L14.7417 7.79991V12.1999Z" fill="#292D32"/>
<path d="M15.9751 14.6082L15.1146 15.8369L15.1162 15.838L15.9751 14.6082ZM13.7501 13.0499L14.6106 11.8213L14.6103 11.8211L13.7501 13.0499ZM13.7501 6.94991L14.6103 8.17876L14.6106 8.17855L13.7501 6.94991ZM15.9751 5.39158L15.117 4.16128L15.1146 4.16295L15.9751 5.39158ZM18.0334 5.07491L18.7426 3.75317L18.73 3.74639L18.7172 3.73985L18.0334 5.07491ZM18.0334 14.9166L17.3496 13.5815L17.3152 13.5991L17.2818 13.6184L18.0334 14.9166ZM14.7417 12.1999H13.2417V12.9823L13.8833 13.43L14.7417 12.1999ZM16.7001 13.5666L15.8416 14.7967L15.8491 14.8018L16.7001 13.5666ZM17.4501 13.7916L16.7792 12.4499L16.7589 12.4601L16.7389 12.4709L17.4501 13.7916ZM16.7001 6.43325L15.8491 5.19796L15.8416 5.20317L16.7001 6.43325ZM14.7417 7.79991L13.8833 6.56984L13.2417 7.01757V7.79991H14.7417ZM17.3167 15.0916V13.5916C17.3001 13.5916 17.1369 13.5901 16.8339 13.3785L15.9751 14.6082L15.1162 15.838C15.8632 16.3597 16.6167 16.5916 17.3167 16.5916V15.0916ZM15.9751 14.6082L16.8356 13.3796L14.6106 11.8213L13.7501 13.0499L12.8896 14.2785L15.1146 15.8369L15.9751 14.6082ZM13.7501 13.0499L14.6103 11.8211C14.849 11.9882 14.9834 12.2575 14.9834 12.5332H13.4834H11.9834C11.9834 13.2257 12.3178 13.8783 12.8899 14.2788L13.7501 13.0499ZM13.4834 12.5332H14.9834V7.46658H13.4834H11.9834V12.5332H13.4834ZM13.4834 7.46658H14.9834C14.9834 7.74236 14.849 8.01168 14.6103 8.17876L13.7501 6.94991L12.8899 5.72107C12.3178 6.12148 11.9834 6.77413 11.9834 7.46658H13.4834ZM13.7501 6.94991L14.6106 8.17855L16.8356 6.62021L15.9751 5.39158L15.1146 4.16295L12.8896 5.72128L13.7501 6.94991ZM15.9751 5.39158L16.8332 6.62188C17.1242 6.41889 17.2819 6.40814 17.3108 6.40693C17.3471 6.40541 17.3573 6.41391 17.3496 6.40998L18.0334 5.07491L18.7172 3.73985C18.3679 3.56092 17.8447 3.38192 17.1852 3.40956C16.5182 3.43752 15.8176 3.67261 15.117 4.16128L15.9751 5.39158ZM18.0334 5.07491L17.3242 6.39665C17.3298 6.39965 17.3444 6.40724 17.363 6.43614C17.3773 6.45835 17.4584 6.58987 17.4584 6.94158H18.9584H20.4584C20.4584 6.08496 20.2478 5.37481 19.8851 4.8116C19.5266 4.25509 19.0787 3.93351 18.7426 3.75317L18.0334 5.07491ZM18.9584 6.94158H17.4584V13.0499H18.9584H20.4584V6.94158H18.9584ZM18.9584 13.0499H17.4584C17.4584 13.4024 17.3769 13.5368 17.3617 13.5605C17.3419 13.5914 17.3308 13.5911 17.3496 13.5815L18.0334 14.9166L18.7172 16.2516C19.0777 16.067 19.5291 15.7376 19.8864 15.181C20.2482 14.6172 20.4584 13.9058 20.4584 13.0499H18.9584ZM18.0334 14.9166L17.2818 13.6184C17.3043 13.6054 17.3204 13.5982 17.3292 13.5946C17.3384 13.5909 17.3433 13.5895 17.344 13.5893C17.3454 13.589 17.3359 13.5916 17.3167 13.5916V15.0916V16.5916C17.8864 16.5916 18.396 16.4399 18.785 16.2147L18.0334 14.9166ZM14.7417 12.1999L13.8833 13.43L15.8416 14.7967L16.7001 13.5666L17.5585 12.3365L15.6002 10.9698L14.7417 12.1999ZM16.7001 13.5666L15.8491 14.8018C16.1478 15.0076 16.4734 15.17 16.8169 15.2544C17.104 15.325 17.6345 15.3959 18.1612 15.1123L17.4501 13.7916L16.7389 12.4709C16.9669 12.3481 17.1693 12.3229 17.2806 12.3185C17.4009 12.3138 17.488 12.3301 17.5332 12.3412C17.6226 12.3632 17.6273 12.3839 17.551 12.3313L16.7001 13.5666ZM17.4501 13.7916L18.1209 15.1332C18.6627 14.8623 18.9108 14.3825 19.0186 14.0956C19.1439 13.7626 19.1917 13.4037 19.1917 13.0499H17.6917H16.1917C16.1917 13.1461 16.1771 13.1289 16.2106 13.0396C16.2279 12.9938 16.2656 12.9086 16.3416 12.8083C16.4143 12.7124 16.5524 12.5634 16.7792 12.4499L17.4501 13.7916ZM17.6917 13.0499H19.1917V6.94991H17.6917H16.1917V13.0499H17.6917ZM17.6917 6.94991H19.1917C19.1917 6.58332 19.1394 6.22023 19.01 5.88658C18.8959 5.59242 18.6534 5.15254 18.1612 4.88754L17.4501 6.20825L16.7389 7.52895C16.533 7.41807 16.407 7.28092 16.3397 7.19245C16.2684 7.09869 16.2312 7.01841 16.2131 6.97158C16.1774 6.8796 16.1917 6.85818 16.1917 6.94991H17.6917ZM17.4501 6.20825L18.1612 4.88754C17.6345 4.60393 17.104 4.6748 16.8169 4.74539C16.4734 4.82986 16.1478 4.99222 15.8491 5.19799L16.7001 6.43325L17.551 7.66851C17.6273 7.61594 17.6226 7.63663 17.5332 7.6586C17.488 7.66972 17.4009 7.68605 17.2806 7.68129C17.1693 7.67689 16.9669 7.6517 16.7389 7.52895L17.4501 6.20825ZM16.7001 6.43325L15.8416 5.20317L13.8833 6.56984L14.7417 7.79991L15.6002 9.02999L17.5585 7.66332L16.7001 6.43325ZM14.7417 7.79991H13.2417V12.1999H14.7417H16.2417V7.79991H14.7417Z" fill="#242424" mask="url(#path-3-inside-2_4220_4665)"/>
<mask id="path-5-inside-3_4220_4665" fill="white">
<path d="M9.5835 9.79175C8.55016 9.79175 7.7085 8.95008 7.7085 7.91675C7.7085 6.88341 8.55016 6.04175 9.5835 6.04175C10.6168 6.04175 11.4585 6.88341 11.4585 7.91675C11.4585 8.95008 10.6168 9.79175 9.5835 9.79175ZM9.5835 7.29175C9.24183 7.29175 8.9585 7.57508 8.9585 7.91675C8.9585 8.25841 9.24183 8.54175 9.5835 8.54175C9.92516 8.54175 10.2085 8.25841 10.2085 7.91675C10.2085 7.57508 9.92516 7.29175 9.5835 7.29175Z"/>
</mask>
<path d="M9.5835 9.79175C8.55016 9.79175 7.7085 8.95008 7.7085 7.91675C7.7085 6.88341 8.55016 6.04175 9.5835 6.04175C10.6168 6.04175 11.4585 6.88341 11.4585 7.91675C11.4585 8.95008 10.6168 9.79175 9.5835 9.79175ZM9.5835 7.29175C9.24183 7.29175 8.9585 7.57508 8.9585 7.91675C8.9585 8.25841 9.24183 8.54175 9.5835 8.54175C9.92516 8.54175 10.2085 8.25841 10.2085 7.91675C10.2085 7.57508 9.92516 7.29175 9.5835 7.29175Z" fill="#292D32"/>
<path d="M9.5835 9.79175V8.29175C9.37859 8.29175 9.2085 8.12165 9.2085 7.91675H7.7085H6.2085C6.2085 9.77851 7.72174 11.2917 9.5835 11.2917V9.79175ZM7.7085 7.91675H9.2085C9.2085 7.71184 9.37859 7.54175 9.5835 7.54175V6.04175V4.54175C7.72174 4.54175 6.2085 6.05499 6.2085 7.91675H7.7085ZM9.5835 6.04175V7.54175C9.7884 7.54175 9.9585 7.71184 9.9585 7.91675H11.4585H12.9585C12.9585 6.05499 11.4453 4.54175 9.5835 4.54175V6.04175ZM11.4585 7.91675H9.9585C9.9585 8.12165 9.7884 8.29175 9.5835 8.29175V9.79175V11.2917C11.4453 11.2917 12.9585 9.77851 12.9585 7.91675H11.4585ZM9.5835 7.29175V5.79175C8.4134 5.79175 7.4585 6.74665 7.4585 7.91675H8.9585H10.4585C10.4585 8.40351 10.0703 8.79175 9.5835 8.79175V7.29175ZM8.9585 7.91675H7.4585C7.4585 9.08684 8.4134 10.0417 9.5835 10.0417V8.54175V7.04175C10.0703 7.04175 10.4585 7.42999 10.4585 7.91675H8.9585ZM9.5835 8.54175V10.0417C10.7536 10.0417 11.7085 9.08684 11.7085 7.91675H10.2085H8.7085C8.7085 7.42999 9.09674 7.04175 9.5835 7.04175V8.54175ZM10.2085 7.91675H11.7085C11.7085 6.74665 10.7536 5.79175 9.5835 5.79175V7.29175V8.79175C9.09674 8.79175 8.7085 8.40351 8.7085 7.91675H10.2085Z" fill="#242424" mask="url(#path-5-inside-3_4220_4665)"/>
</svg>
