<?xml version="1.0" encoding="UTF-8"?>
<svg width="24px" height="24px" viewBox="0 0 24 24" version="1.1" xmlns="http://www.w3.org/2000/svg">
    <path d="M17.5752,12.5977 C17.5439,9.5352 20.0439,8.0627 20.1502,7.9927 C18.7877,5.9427 16.6252,5.6427 15.8752,5.6152 C14.0377,5.4402 12.2627,6.7402 11.3252,6.7402 C10.3752,6.7402 8.9127,5.6402 7.3627,5.6677 C5.3502,5.6952 3.4877,6.8427 2.4877,8.6402 C0.4252,12.2902 1.9377,17.7027 3.9127,20.6527 C4.8877,22.0902 6.0377,23.7027 7.5877,23.6527 C9.0877,23.5977 9.6627,22.7152 11.4752,22.7152 C13.2627,22.7152 13.8002,23.6527 15.3752,23.6252 C16.9877,23.5977 18.0002,22.1527 18.9377,20.7027 C20.0627,19.0402 20.5127,17.4027 20.5377,17.3152 C20.4877,17.2977 17.6127,16.2027 17.5752,12.5977 M14.8252,3.7777 C15.6252,2.7902 16.1627,1.4402 16.0127,0.0527 C14.8502,0.1027 13.4502,0.8402 12.6127,1.8027 C11.8752,2.6527 11.2252,4.0402 11.4002,5.3902 C12.7002,5.4902 13.9877,4.7652 14.8252,3.7777" fill="#000000"/>
</svg> 