<svg width="424" height="424" viewBox="0 0 424 424" fill="none" xmlns="http://www.w3.org/2000/svg">
<path fill-rule="evenodd" clip-rule="evenodd" d="M228.943 367.949C305.035 367.949 315.822 334.097 327.36 327.876C338.898 321.655 331.724 309.171 339.291 299.755C351.378 284.715 358.704 292.466 362.704 272.954C366.704 253.443 359.432 247.923 359.432 230.503C359.432 195.601 376.151 179.08 354.8 160.819C333.449 142.558 297.795 144.713 262.531 144.713C197.079 144.713 157.868 54.9878 70.5711 81.9062C40.4866 91.1829 43.8116 103.825 50.422 148.501C53.2926 167.901 31.6187 192.567 35.3792 214.614C42.2473 254.88 60.3864 249.418 94.6108 276.604C100.352 281.165 108.727 281.118 114.986 285.796C125.48 293.638 126.155 305.832 145.773 314.057C177.408 327.32 174.724 367.949 228.943 367.949Z" fill="#64FCD9"/>
<ellipse cx="83.4755" cy="264.011" rx="19.2382" ry="18.0907" fill="white"/>
<path fill-rule="evenodd" clip-rule="evenodd" d="M75.9308 199.51C72.6512 191.319 75.516 186.412 77.3523 180.006C78.8862 174.654 90.8817 165.962 96.4023 175.025C98.0265 177.692 97.375 180.212 100.925 182.556C109.518 188.229 104.83 176.459 105.149 173.484C105.305 172.033 104.079 168.686 104.536 167.285C105.015 165.816 107.568 163.728 107.568 160.681C107.568 157.635 102.374 156.462 100.925 155.713C88.0419 149.062 79.8488 137.952 83.9318 132.314C89.6204 124.458 111.915 136.818 118.614 137.952C118.7 137.967 119.897 131.721 120.874 130.291C122.829 127.43 124.99 124.653 127.567 122.336C128.722 121.299 130.287 120.658 131.825 120.451C136.429 119.83 141.139 119.32 145.75 119.883C147.38 120.082 157.084 108.851 160.867 105.228C189.897 77.4337 248.091 111.304 216.37 157.329C210.54 165.788 203.085 168.479 202.122 171.468C199.983 178.109 213.447 177.236 219.15 177.945C228.893 179.157 233.695 184.162 227.647 192.741C223.879 198.085 201.775 197.812 192.092 193.948C188.498 192.513 184.057 186.242 180.66 191.386C178.32 194.931 169.195 202.452 159.407 206.706C154.988 208.626 149.956 207.469 146.186 209.184C140.879 211.597 125.212 221.732 118.614 221.729C111.968 221.727 103.369 213.73 102.374 213.205C100.858 212.406 89.1276 210.114 83.3327 201.172C81.5803 198.467 77.1313 202.508 75.9308 199.51Z" fill="white"/>
<ellipse cx="188.761" cy="152.028" rx="2.03793" ry="2.00879" fill="#FFB61D"/>
<circle cx="173.84" cy="147.835" r="1.97867" fill="#FFB61D"/>
<circle cx="318" cy="146.139" r="26.8533" fill="white"/>
<ellipse cx="234.034" cy="298.479" rx="78.0301" ry="66.6928" fill="white"/>
<path fill-rule="evenodd" clip-rule="evenodd" d="M167.882 334.844L168.758 335.478C166.782 337.252 163.808 335.047 162.141 332.98C159.46 329.656 156.74 326.123 155.924 321.932C155.46 319.547 155.645 317.089 155.833 314.667L156.589 304.899C156.924 300.571 157.26 296.234 158.01 291.958C160.038 280.385 165.142 269.365 172.659 260.334L172.734 260.244C174.061 258.65 175.511 256.909 175.485 254.842C175.431 250.47 177.949 246.384 181.255 243.522C184.561 240.659 188.61 238.822 192.596 237.024C194.402 236.21 196.76 235.48 198.16 236.882C201.038 239.766 205.843 237.929 209.645 236.464C214.313 234.666 219.3 233.697 224.302 233.616C224.448 233.614 224.595 233.612 224.742 233.61L224.742 233.61C227.745 233.567 231.126 233.519 232.958 231.192C234.125 229.71 236.356 229.796 238.228 230.02L251.106 231.56C252.09 231.678 253.269 231.947 253.58 232.888C254.412 235.412 257.346 236.442 259.89 237.209C268.935 239.936 277.776 243.639 285.455 249.142C293.134 254.645 299.625 262.048 303.068 270.845C297.469 263.192 291.725 255.394 283.954 249.959C281.73 248.404 279.365 247.061 276.964 245.796C271.298 242.809 265.401 240.234 259.275 238.364C230.835 229.683 197.937 237.734 176.72 258.567C173.644 261.588 170.759 264.915 169.015 268.857L171.319 269.572C167.667 271.205 164.953 274.782 164.366 278.74C165.836 276.222 167.931 274.073 170.411 272.538C169.701 274.909 167.855 276.814 166.046 278.681C163.74 281.061 161.494 283.379 161.732 286.524C162.827 283.651 165.585 281.482 168.635 281.095C163.797 285.823 158.605 291.371 158.759 298.133C160.524 294.228 163.521 290.891 167.214 288.717L161.897 295.862C159.886 298.564 157.769 301.652 158.228 304.989C159.978 301.849 162.479 299.132 165.463 297.13C164.026 300.397 161.974 303.394 159.447 305.915C161.85 305.625 164.164 304.63 166.027 303.084C165.246 304.175 164.542 305.405 164.516 306.746C164.49 308.087 165.358 309.526 166.686 309.719C167.088 308.821 168.348 308.441 169.179 308.969C166.66 311.42 166.634 315.961 169.125 318.44C169.346 317.275 170.329 316.293 171.495 316.073C169.637 319.321 169.303 323.4 170.607 326.908C171.002 324.92 172.105 323.081 173.672 321.797C172.768 326.511 170.771 331.011 167.882 334.844ZM166.782 333.343C168.355 333.327 169.333 331.567 169.497 330.003C169.694 328.131 169.229 326.26 168.767 324.436L166.031 313.614C165.516 313.777 165.456 314.338 165.394 314.924C165.34 315.425 165.285 315.945 164.942 316.254C164.25 315.393 164.171 314.089 164.755 313.151C165.345 312.203 164.959 310.877 164.123 310.138C163.286 309.4 162.122 309.149 161.007 309.113C160.404 309.093 159.763 309.139 159.27 309.486C158.777 309.833 158.518 310.571 158.868 311.062C159.911 312.523 160.695 314.168 161.174 315.898C161.21 316.027 161.245 316.158 161.28 316.289C161.518 317.187 161.763 318.111 162.42 318.751C162.928 319.246 163.057 320.001 163.16 320.703L163.996 326.39C164.148 327.425 164.301 328.48 164.126 329.512C163.952 330.543 163.395 331.566 162.459 332.034L165.447 333.051C165.88 333.198 166.324 333.347 166.782 333.343ZM199.348 240.137C198.759 240.262 198.265 239.744 197.844 239.303L197.795 239.252C197.363 238.801 196.621 238.407 196.165 238.835C190.863 243.824 184.829 248.033 178.316 251.287C177.134 251.878 176.975 253.47 176.974 254.792C176.974 255.233 177.397 255.852 177.672 255.507C179.015 253.825 180.761 252.519 182.487 251.232C187.344 247.611 192.258 243.956 197.826 241.569C198.501 241.28 199.292 240.87 199.348 240.137ZM252.644 234.527C252.343 233.822 251.489 233.567 250.735 233.425C248.683 233.038 246.594 232.863 244.507 232.688C241.641 232.448 238.778 232.208 236.02 231.421C235.137 231.169 234.381 232.064 233.896 232.845C235.35 232.694 236.813 232.631 238.274 232.658C240.817 232.705 243.347 233.022 245.87 233.338C247.153 233.499 248.445 233.661 249.674 234.059C249.818 234.106 249.962 234.155 250.107 234.205C250.947 234.493 251.815 234.791 252.644 234.527ZM225.495 245.366C226.076 245.499 226.63 245.933 226.717 246.523C226.803 247.111 226.402 247.685 225.888 247.984C225.374 248.284 224.767 248.368 224.177 248.446L222.403 248.681C222.225 248.704 222.041 248.73 221.887 248.821C221.441 249.085 221.472 249.801 221.837 250.169C222.201 250.538 222.761 250.629 223.279 250.628C225.693 250.624 227.978 248.887 228.716 246.588C228.891 246.042 228.984 245.435 228.767 244.904C228.657 244.635 228.473 244.402 228.269 244.195C227.319 243.232 225.905 242.808 224.556 242.904C223.208 242.999 221.925 243.573 220.828 244.363C220.302 244.741 219.801 245.184 219.502 245.759C219.203 246.334 219.139 247.064 219.474 247.619C219.601 247.831 219.798 248.018 220.042 248.058C220.286 248.098 220.567 247.94 220.598 247.695C220.682 247.013 221.179 246.437 221.772 246.091C222.365 245.744 223.049 245.592 223.723 245.457C224.307 245.34 224.914 245.233 225.495 245.366ZM177.92 279.087C178.583 275.164 181.753 271.974 185.447 270.496C187.483 269.681 189.813 269.324 191.86 270.109C192.365 270.303 192.855 270.57 193.219 270.97C193.561 271.346 193.776 271.821 193.938 272.303C194.979 275.388 193.923 278.956 191.688 281.324C189.453 283.692 186.2 284.934 182.952 285.167C181.912 285.241 180.794 285.199 179.935 284.608C179.076 284.017 178.649 282.703 179.311 281.897C179.624 281.912 179.792 282.191 179.965 282.476C180.05 282.618 180.137 282.761 180.242 282.875C180.603 283.263 181.2 283.291 181.729 283.269C184.032 283.172 186.369 282.601 188.244 281.26C190.118 279.919 191.465 277.728 191.425 275.423C191.413 274.681 191.251 273.921 190.83 273.309C190.14 272.305 188.834 271.851 187.618 271.932C186.402 272.012 185.261 272.551 184.226 273.194C182.863 274.04 181.603 275.103 180.749 276.461C179.895 277.818 179.477 279.496 179.838 281.059C179.519 281.635 178.57 281.52 178.178 280.991C177.786 280.462 177.81 279.737 177.92 279.087ZM199.127 311.425C197.443 312.509 196.046 314.205 195.786 316.192C195.576 317.799 196.114 319.4 196.645 320.931C197.059 322.126 197.488 323.347 198.277 324.336C199.702 326.121 202.062 326.86 204.317 327.223C204.932 327.322 205.864 327.045 205.645 326.462C203.263 326.418 200.921 325.315 199.371 323.506C197.821 321.697 197.089 319.213 197.41 316.853C197.478 316.357 197.591 315.862 197.8 315.407C198.222 314.485 199.008 313.776 199.86 313.226C201.692 312.042 203.924 311.487 206.098 311.674C208.194 311.855 210.288 312.774 211.567 314.444C212.847 316.114 213.152 318.578 212.023 320.353C211.839 320.642 211.705 321.152 212.042 321.213C213.86 320.233 214.869 318.074 214.767 316.011C214.665 313.949 213.576 312.019 212.08 310.596C211.252 309.809 210.272 309.144 209.162 308.877C207.698 308.524 206.167 308.888 204.71 309.271C202.773 309.78 200.812 310.341 199.127 311.425ZM281.869 313.986C275.777 311.712 269.157 310.864 262.688 311.53C259.975 311.809 257.254 312.363 254.816 313.583C250.215 315.886 246.925 320.626 246.377 325.742C245.83 330.858 248.043 336.187 252.052 339.411C253.573 340.634 255.299 341.549 257.027 342.466L257.027 342.466L257.028 342.466L257.028 342.466L257.028 342.466L257.028 342.466L257.028 342.466L257.028 342.467L257.028 342.467L257.029 342.467L257.029 342.467L257.029 342.467L257.029 342.467L257.029 342.467L257.029 342.467L257.03 342.467L257.03 342.467L257.03 342.467C258.209 343.093 259.389 343.719 260.505 344.443C260.824 344.748 260.106 345.053 259.686 344.917C255.779 343.656 251.984 341.737 249.197 338.722C245.806 335.054 244.152 329.845 244.806 324.893C245.46 319.941 248.41 315.34 252.636 312.678C255.98 310.572 259.977 309.685 263.926 309.543C267.874 309.4 271.811 309.964 275.716 310.569C278.154 310.947 281.014 311.672 281.869 313.986ZM217.766 321.62C217.489 320.986 216.377 320.821 216.174 321.482C214.881 325.687 210.777 328.867 206.382 329.069C205.389 329.114 204.395 329.022 203.405 328.926C201.273 328.72 199.074 328.476 197.207 327.427C194.523 325.917 192.907 322.818 192.888 319.738C192.869 316.658 194.33 313.665 196.548 311.528C196.241 310.666 194.919 311.083 194.262 311.721C190.624 315.257 190 321.36 192.553 325.745C195.105 330.129 200.455 332.587 205.498 332.029C210.54 331.472 215.093 328.096 217.438 323.596C217.757 322.983 218.042 322.254 217.766 321.62ZM186.187 342.916C185.366 346.066 185.288 349.408 185.961 352.593C186.263 354.021 186.296 354.809 186.302 354.956C186.303 354.973 186.303 354.981 186.304 354.981C186.304 354.981 186.305 354.973 186.305 354.956C186.312 354.808 186.348 354.018 186.657 352.587C187.346 349.396 187.182 346.025 186.187 342.916ZM190.551 344.821C189.384 347.267 189.529 350.294 190.924 352.618C191.237 353.14 191.475 353.565 191.65 353.878L191.65 353.878C191.886 354.299 192.009 354.519 192.052 354.504C192.099 354.488 192.049 354.193 191.945 353.575C191.904 353.328 191.854 353.028 191.798 352.674L190.551 344.821ZM193.837 347.945C193.342 349.507 193.706 351.313 194.769 352.56C195.853 353.834 196.207 354.243 195.877 352.602C195.54 350.928 194.839 349.328 193.837 347.945ZM288.93 330.179C287.44 336.161 282.681 340.694 278.066 344.781C278.277 345.235 278.959 345.072 279.395 344.826C284.07 342.196 287.852 337.908 289.578 332.829C291.303 327.751 290.874 321.916 288.15 317.295C287.922 316.907 287.63 316.494 287.189 316.408C286.747 316.321 286.238 316.834 286.497 317.202C289.116 320.91 290.028 325.774 288.93 330.179ZM221.727 276.17C221.716 275.224 221.729 274.2 222.301 273.446C223.087 272.407 224.58 272.298 225.883 272.28C226.464 272.272 227.053 272.264 227.619 272.399C228.823 272.685 229.783 273.574 230.638 274.47C230.827 274.668 231.029 274.912 230.982 275.183C230.924 275.518 230.504 275.672 230.171 275.603C229.949 275.558 229.75 275.448 229.551 275.337L229.551 275.337C229.451 275.282 229.35 275.226 229.247 275.178C228.049 274.629 226.641 275.231 225.565 275.993C225.396 276.112 225.213 276.266 225.209 276.473C225.205 276.681 225.383 276.842 225.551 276.965C227.005 278.03 228.867 278.523 230.657 278.318C231.086 278.269 231.588 278.112 231.7 277.695C231.743 277.533 231.726 277.341 231.71 277.156C231.683 276.847 231.657 276.556 231.917 276.449C232.052 276.393 232.206 276.433 232.347 276.474C233.316 276.756 234.449 277.209 234.637 278.201C234.691 278.487 234.652 278.786 234.561 279.063C234.294 279.873 233.55 280.507 232.707 280.641C232.333 280.7 231.951 280.668 231.573 280.635C230.587 280.551 229.6 280.466 228.623 280.308C226.828 280.019 225.073 279.485 223.422 278.724C222.849 278.46 222.254 278.135 221.964 277.575C221.743 277.149 221.733 276.65 221.727 276.17ZM258.586 252.836C258.009 251.277 256.616 250.047 254.997 249.668C254.496 249.551 253.931 249.522 253.506 249.812C253.081 250.102 252.935 250.81 253.34 251.127C253.733 251.434 253.496 252.158 253.016 252.294C252.536 252.431 252.02 252.106 251.781 251.668C251.541 251.231 251.515 250.711 251.513 250.212C251.509 249.547 251.57 248.804 252.061 248.355C252.249 248.184 252.482 248.074 252.714 247.971C253.672 247.542 254.731 247.179 255.755 247.409C256.73 247.628 257.508 248.349 258.188 249.081C258.746 249.682 259.273 250.311 259.768 250.965C260.204 251.541 260.623 252.155 260.787 252.859C260.95 253.563 260.809 254.379 260.265 254.855C259.733 255.321 258.915 255.36 258.269 255.073C257.698 254.819 257.211 254.259 257.254 253.636C257.296 253.013 258.062 252.496 258.586 252.836ZM263.733 296.666C265.164 296.625 266.497 295.523 266.806 294.126C266.994 293.276 266.762 292.265 266.022 291.808C265.481 291.474 264.8 291.498 264.166 291.539C263.287 291.595 262.376 291.672 261.612 292.111C260.849 292.55 260.281 293.458 260.52 294.306C260.909 295.683 262.303 296.707 263.733 296.666ZM263.917 294.602C263.641 294.676 263.246 294.605 263.221 294.319C263.211 294.201 263.275 294.089 263.348 293.995C263.754 293.468 264.529 293.264 265.142 293.521C264.929 294.043 264.462 294.455 263.917 294.602ZM264.656 273.432C264.423 272.894 264.875 272.268 265.423 272.062C265.862 271.897 266.339 271.914 266.813 271.931C266.931 271.935 267.048 271.939 267.165 271.941C267.751 271.948 268.399 271.85 268.779 271.404C268.913 271.247 269.004 271.016 268.902 270.836C268.795 270.649 268.543 270.616 268.327 270.605C266.833 270.527 265.07 270.573 264.209 271.796C264.024 272.059 263.571 271.97 263.398 271.699C263.224 271.428 263.264 271.073 263.363 270.767C263.715 269.671 264.728 268.874 265.834 268.554C266.94 268.235 268.127 268.336 269.25 268.59C269.629 268.675 270.021 268.788 270.298 269.061C270.517 269.277 270.64 269.573 270.72 269.87C271.102 271.292 270.538 272.92 269.357 273.8C268.177 274.68 266.455 274.756 265.202 273.983C264.978 273.845 264.761 273.673 264.656 273.432ZM259.536 298.555C260.23 299.386 261.052 300.142 262.048 300.565C264.062 301.42 266.637 300.63 267.825 298.792C268.258 298.123 268.451 297.102 267.812 296.628C266.787 298.781 263.814 299.733 261.729 298.574C261.33 298.352 260.967 298.068 260.637 297.752C259.137 296.316 258.355 293.972 259.235 292.092C259.522 291.479 259.962 290.949 260.444 290.474C261.494 289.437 262.997 288.588 264.399 289.049C264.422 289.057 264.444 289.065 264.467 289.073C264.502 289.085 264.537 289.098 264.572 289.111L264.573 289.111L264.573 289.111C264.769 289.184 264.967 289.256 265.173 289.244C265.441 289.229 265.72 288.989 265.651 288.73C265.631 288.653 265.583 288.587 265.534 288.525C264.668 287.421 262.967 287.08 261.742 287.764C260.283 288.579 258.802 289.538 258.026 291.018C256.764 293.426 257.794 296.467 259.536 298.555ZM282.763 261.412C282.699 261.504 282.715 261.632 282.73 261.754C282.748 261.9 282.765 262.037 282.646 262.096C282.21 262.312 281.687 262.289 281.222 262.147C279.952 261.757 279.1 260.591 278.382 259.474C277.962 258.82 277.543 258.127 277.475 257.353C277.407 256.579 277.803 255.707 278.549 255.488C279.38 255.244 280.195 255.862 280.842 256.438C281.572 257.088 282.317 257.758 282.769 258.624C283.221 259.491 283.321 260.61 282.763 261.412ZM280.001 258.513C280.18 258.687 280.278 258.921 280.376 259.155C280.473 259.385 280.57 259.616 280.744 259.789C280.965 260.01 281.3 260.108 281.604 260.043C281.034 259.159 280.372 258.334 279.633 257.585C279.436 257.644 279.419 257.937 279.538 258.105C279.61 258.208 279.711 258.283 279.812 258.358C279.878 258.407 279.943 258.456 280.001 258.513ZM171.282 338.357C171.211 339.516 171.3 340.86 172.228 341.559C172.538 341.386 172.517 340.944 172.478 340.592C172.238 338.424 172.911 336.335 173.588 334.231C174.072 332.726 174.559 331.213 174.716 329.66C174.761 329.209 174.641 328.592 174.188 328.575C173.849 328.562 173.63 328.92 173.493 329.23C172.225 332.11 171.473 335.216 171.282 338.357ZM261.321 296.529C262.368 296.992 263.529 297.464 264.625 297.132C265.061 296.999 265.449 296.747 265.831 296.499C265.829 297.139 265.278 297.677 264.664 297.86C264.051 298.043 263.39 297.945 262.764 297.81C262.069 297.659 261.219 297.233 261.321 296.529ZM178.478 349.99C178.745 349.514 178.791 348.95 178.83 348.405L179.146 344.069C179.301 341.941 179.457 339.805 179.318 337.676C179.3 337.407 179.273 337.124 179.116 336.906C178.96 336.687 178.628 336.57 178.414 336.733C178.256 336.852 178.216 337.068 178.189 337.264C177.846 339.726 177.662 342.211 177.64 344.696C177.624 346.499 177.707 348.361 178.478 349.99ZM173.739 346.263C173.461 346.498 172.998 346.292 172.845 345.962C172.692 345.632 172.754 345.247 172.82 344.889C173.506 341.147 174.284 337.422 175.154 333.718C175.176 333.625 175.199 333.529 175.259 333.455C175.488 333.172 175.951 333.457 176.113 333.783C176.512 334.582 176.321 335.535 176.122 336.405L173.978 345.754C173.935 345.94 173.885 346.14 173.739 346.263ZM181.162 346.43C181.043 347.833 181.253 349.242 181.463 350.635C181.538 351.131 181.895 351.79 182.343 351.564L183.216 342.225C183.252 341.845 183.276 341.424 183.04 341.124C182.805 340.824 182.208 340.836 182.133 341.21L181.489 344.412C181.355 345.081 181.22 345.751 181.162 346.43ZM271.342 317.808C268.856 316.528 265.83 316.023 263.247 317.096C261.318 317.897 255.866 321.356 255.14 325.791C254.655 328.76 254.66 331.793 255.699 334.659L255.866 335.109C256.175 335.92 257.161 336.853 257.712 336.182C256.103 333.273 255.802 329.67 256.907 326.534C258.012 323.398 260.504 320.78 263.581 319.521C264.229 319.256 264.905 319.048 265.602 318.982C267.011 318.849 268.416 319.305 269.676 319.95C272.387 321.339 275.746 323.65 277.036 326.409C278.28 329.069 279.196 332.242 278.071 334.954C276.945 337.667 269.549 339.629 269.549 339.629L270.367 341.123C270.367 341.123 274.507 340.306 277.036 338.464C287.651 330.733 273.72 319.032 271.342 317.808Z" fill="#00160A"/>
<path fill-rule="evenodd" clip-rule="evenodd" d="M83.698 279.635C79.9439 280.037 75.9676 279.169 73.0364 276.789C70.9604 275.103 69.5017 272.759 68.4781 270.288C67.3669 267.606 66.7279 264.729 66.5995 261.829C66.5511 260.737 66.5771 259.625 66.898 258.58C67.4261 256.86 68.6979 255.48 69.9962 254.235C72.7583 251.586 76.0048 249.169 79.791 248.612C82.371 248.233 84.9955 248.75 87.5209 249.4C89.5044 249.91 91.4853 250.512 93.2694 251.518C97.2116 253.741 99.9434 257.98 100.339 262.488C100.734 266.997 100.248 269.984 94.1635 275.585C91.002 277.649 87.4522 279.232 83.698 279.635ZM90.3184 265.483C89.7095 265.674 89.1026 266.014 88.4741 265.904C87.1899 265.678 86.9601 263.916 87.2452 262.643C88.0615 259.001 90.6003 255.785 93.9532 254.144C93.1942 252.768 91.1779 252.667 89.7519 253.328C88.3259 253.99 87.2111 255.182 85.832 255.937C85.1457 256.313 84.3324 256.579 83.5858 256.345C82.3573 255.96 81.8884 254.351 82.2906 253.128C82.6927 251.905 83.6965 250.993 84.6603 250.139C81.1679 250.262 77.7121 251.31 74.7401 253.148C72.4135 254.587 70.2066 256.947 70.5153 259.665C72.439 258.117 74.6976 256.987 77.0901 256.375C77.5976 256.245 78.2345 256.18 78.5521 256.597C78.7926 256.912 78.7236 257.366 78.5694 257.732C77.8047 259.545 75.5557 260.154 74.1608 261.543C73.9777 261.725 73.802 261.935 73.7577 262.19C73.6708 262.689 74.1463 263.144 74.646 263.228C75.1456 263.311 75.6471 263.129 76.121 262.95C77.1053 262.579 78.0895 262.208 79.0738 261.836C79.7863 261.567 80.6322 261.311 81.2658 261.733C81.9213 262.17 81.9831 263.164 81.6126 263.859C81.2421 264.555 80.5621 265.021 79.9077 265.46C78.3303 266.517 76.7529 267.574 75.1755 268.631C73.8549 269.516 72.3753 270.71 72.5008 272.295C72.619 273.786 74.2602 274.8 75.7536 274.704C77.2471 274.609 78.5613 273.695 79.6636 272.683C80.7658 271.671 81.7607 270.515 83.0407 269.74C83.8759 269.234 85.0677 268.953 85.7462 269.655C86.2704 270.198 86.2199 271.07 86.0231 271.798C85.4561 273.898 83.923 275.715 81.9492 276.627C83.5551 276.998 85.2298 277.068 86.861 276.832C87.7913 276.698 88.7544 276.44 89.4272 275.784C90.0999 275.127 90.3604 273.972 89.7768 273.235C88.9064 272.136 88.941 270.528 89.4971 269.241C90.0533 267.954 91.0466 266.914 92.0197 265.905C91.7412 265.331 90.9273 265.292 90.3184 265.483ZM97.7532 267.978C98.6278 265.956 98.6596 263.67 98.4382 261.479C98.1932 259.055 97.3483 256.284 95.0653 255.435C91.7197 256.824 89.1378 259.922 88.375 263.463C88.3109 263.76 88.2607 264.08 88.3778 264.361C88.4948 264.642 88.8427 264.847 89.1123 264.706C90.0373 264.221 91.1749 263.946 92.1152 264.4C93.0556 264.855 93.5135 266.272 92.7521 266.987C91.9108 267.776 91.0468 268.597 90.5929 269.658C90.139 270.719 90.2045 272.092 91.059 272.867C91.7011 273.45 91.7027 274.594 91.0623 275.178C92.8832 274.646 94.1808 273.081 95.3616 271.596C96.2643 270.461 97.1774 269.309 97.7532 267.978ZM76.7905 257.524C74.8962 258.31 73.0575 259.229 71.2927 260.274C70.873 260.522 70.4488 260.785 70.1419 261.164C69.7275 261.676 69.57 262.344 69.442 262.989C69.0283 265.076 68.815 267.323 69.6914 269.262C69.9711 269.881 70.3535 270.447 70.7339 271.009C70.8462 271.175 70.9737 271.353 71.1662 271.409C71.3587 271.464 71.6129 271.309 71.5677 271.114C71.4283 270.512 71.8841 269.946 72.3339 269.523C74.9681 267.043 78.5169 265.62 80.8858 262.886C80.5264 262.46 79.8448 262.66 79.3324 262.879C78.112 263.4 76.8537 263.832 75.5707 264.17C74.9089 264.345 74.1712 264.487 73.5672 264.165C72.6832 263.694 72.5393 262.404 73.0062 261.518C73.4732 260.632 74.3609 260.059 75.217 259.539C76.0731 259.019 76.9712 258.476 77.4849 257.616C77.3914 257.371 77.0325 257.424 76.7905 257.524ZM83.2733 274.135C84.1104 273.462 85.0149 272.669 85.1062 271.599C85.1539 271.039 84.7951 270.355 84.2361 270.408C84.0643 270.425 83.9074 270.51 83.7593 270.598C81.325 272.053 79.7229 274.896 76.9769 275.603C77.7529 275.95 78.562 276.224 79.3896 276.418C79.6361 276.476 79.8927 276.527 80.1406 276.476C80.4291 276.416 80.6705 276.226 80.9001 276.041C81.6911 275.406 82.4822 274.77 83.2733 274.135ZM85.5371 250.887C84.9954 251.486 84.4538 252.086 83.9121 252.685C83.483 253.159 83.0227 253.785 83.2615 254.379C83.4375 254.816 83.9571 255.037 84.427 255.001C84.8969 254.964 85.3249 254.724 85.719 254.465C87.1233 253.544 88.3877 252.289 90.0264 251.921C88.8902 251.507 87.7539 251.092 86.6176 250.678C86.381 250.592 86.1172 250.506 85.8844 250.602C85.7447 250.66 85.6385 250.775 85.5371 250.887Z" fill="#00160A"/>
<path fill-rule="evenodd" clip-rule="evenodd" d="M106.682 179.322C106.541 182.161 104.35 185.236 101.528 184.9C100.254 183.426 99.2566 181.598 98.2712 179.79C96.3787 176.319 94.5292 172.927 90.8445 172.283C87.2253 171.651 83.8549 174.312 81.6009 177.214C78.3364 181.416 76.2268 186.506 75.5618 191.785C75.1708 194.889 76.4436 199.193 79.5532 198.852C83.1051 198.461 85.6311 201.255 88.2003 204.097C90.5782 206.727 92.993 209.398 96.2925 209.623C100.221 209.892 103.43 212.245 106.679 214.628C108.848 216.219 111.035 217.823 113.466 218.827C118.039 220.717 123.312 220.351 127.98 218.711C132.647 217.07 136.801 214.244 140.733 211.24L140.939 211.083C143.085 209.441 145.332 207.723 148.001 207.362C161.647 205.513 174.339 197.509 181.887 185.992C192.59 194.547 207.553 197.471 220.689 193.574C222.917 192.913 225.16 192.026 226.813 190.391C228.466 188.756 229.403 186.218 228.591 184.04C227.702 181.658 225.047 180.382 222.523 180.075C221.14 179.907 219.746 179.957 218.351 180.007H218.351C217.2 180.048 216.049 180.089 214.904 180.008C207.965 179.517 202.187 174.732 196.934 170.173C204.546 167.838 210.718 161.973 214.793 155.133C218.868 148.293 221.052 140.501 222.712 132.713C223.585 128.615 224.233 123.999 221.892 120.524C220.844 118.969 219.308 117.831 217.777 116.698C216.052 115.422 214.335 114.151 213.33 112.294C211.397 108.722 207.628 106.603 204.054 104.673C194.7 99.6231 183.956 94.4254 173.875 97.7981C169.948 99.1119 166.556 101.629 163.248 104.121C157.756 108.258 151.873 113.111 150.827 119.908C141.841 115.887 130.215 119.098 124.566 127.16C123.273 129.005 122.281 131.038 121.29 133.07C120.124 135.462 118.959 137.85 117.306 139.924C110.671 136.901 103.91 134.153 97.0473 131.689C94.0046 130.597 90.3698 129.632 87.7476 131.523C85.645 133.039 85.0001 136.014 85.6172 138.532C86.2344 141.049 87.882 143.184 89.6489 145.08C93.4821 149.195 98.0865 152.589 103.151 155.032C103.315 155.111 103.479 155.189 103.644 155.268C105.23 156.024 106.861 156.8 107.917 158.187C109.082 159.718 109.155 162.28 107.52 163.296C105.106 164.796 104.662 168.163 105.156 170.963C105.325 171.919 105.574 172.866 105.822 173.813C106.299 175.635 106.776 177.453 106.682 179.322ZM172.226 194.291C166.142 200.678 157.582 204.415 148.829 205.507C140.076 206.6 131.138 205.18 122.777 202.37C125.026 202.368 126.653 199.424 125.456 197.519C120.848 202.891 113.823 205.407 107.128 207.704C101.08 209.78 93.8517 208.272 89.4093 203.674C84.9669 199.075 83.7647 191.529 86.8888 185.95C88.2468 183.525 90.55 181.414 93.3191 181.176C96.0882 180.938 99.07 183.234 98.8131 186.002C97.2722 185.734 95.6506 187.043 95.5872 188.606C101.548 187.963 107.153 184.548 110.455 179.543C111.595 177.816 112.461 175.935 113.328 174.052L113.328 174.052L113.328 174.052L113.328 174.052L113.328 174.052C113.91 172.788 114.493 171.523 115.158 170.303C116.816 167.267 119.196 164.373 122.493 163.33C125.14 162.493 128.001 162.958 130.737 163.429L142.89 165.525C143.8 164.739 142.327 163.481 141.151 163.235C137.352 162.442 133.501 161.953 129.649 161.463L129.649 161.463C126.077 161.01 122.506 160.556 118.975 159.86C111.638 158.412 104.264 155.764 98.923 150.529C102.546 148.445 105.302 144.904 106.433 140.88C106.661 140.066 106.116 138.729 105.455 139.256C104.7 141.868 103.882 144.592 101.989 146.545C100.097 148.497 96.7761 149.355 94.6345 147.68C91.8544 145.505 88.9314 143.133 87.8319 139.78C86.7325 136.426 88.4717 131.921 91.9772 131.51C93.5506 131.326 95.0887 131.976 96.5397 132.612L111.178 139.029C115.535 140.938 119.956 142.867 124.662 143.56C127.967 144.047 131.327 143.91 134.664 143.772L144.125 143.382C144.512 143.366 144.908 143.348 145.265 143.196C146.215 142.791 146.537 141.63 146.747 140.618C149.286 128.367 152.697 115.439 161.925 106.991C166.054 103.211 171.197 100.549 176.668 99.3619C182.061 98.1915 188.011 98.5356 192.654 101.518C184.865 102.091 177.303 105.376 171.567 110.676C169.157 108.103 164.672 110.206 162.75 113.161C159.77 117.741 159.825 124.104 162.882 128.633C165.455 132.445 166.409 136.994 167.366 141.553L167.366 141.553L167.366 141.554L167.366 141.554L167.366 141.554C168.245 145.744 169.126 149.943 171.267 153.587C174.654 159.353 180.962 163.054 187.55 164.201C194.138 165.349 200.968 164.15 207.229 161.802C200.222 168.792 189.027 171.21 179.759 167.735C179.083 167.482 178.411 167.199 177.738 166.915C175.609 166.019 173.472 165.119 171.188 165.146C172.526 166.563 174.235 167.626 176.098 168.201C173.95 171.808 171.697 175.352 169.343 178.827C169.042 179.271 168.698 179.745 168.183 179.895C167.609 180.063 167.009 179.777 166.485 179.487C162.156 177.095 158.276 173.893 155.105 170.097L148.761 177.814C152.016 181.793 155.823 185.322 160.037 188.267C154.428 195.197 145.929 199.71 137.047 200.477C146.241 200.946 155.549 196.633 161.137 189.316C164.674 191.302 168.39 192.969 172.226 194.291ZM201.303 126.434C203.334 124.219 204.087 121.054 203.914 118.053C203.74 115.052 202.731 112.166 201.613 109.376C204.524 109.031 207.48 110.129 209.799 111.922C212.117 113.715 213.858 116.154 215.286 118.713C217.018 121.815 218.345 125.17 218.921 128.675C220.277 136.929 217.382 145.345 213.26 152.624C212.46 154.037 211.598 155.441 210.43 156.569C209.254 157.706 207.806 158.522 206.323 159.211C200.203 162.055 193.163 162.876 186.552 161.516C190.772 158.003 193.752 153.162 195.65 148.01C197.548 142.857 198.417 137.381 198.917 131.913L198.92 131.882V131.882C199.046 130.503 199.178 129.054 199.964 127.916C200.225 127.539 200.547 127.212 200.869 126.885L200.869 126.885L200.869 126.885C201.015 126.736 201.162 126.587 201.303 126.434ZM193.666 149.209C191.845 153.468 189.024 157.379 185.2 159.993C184.752 160.299 184.271 160.594 183.732 160.657C183.257 160.713 182.78 160.582 182.324 160.438C179.072 159.411 176 157.592 173.914 154.895C173.157 153.916 172.539 152.837 171.988 151.729C167.973 143.662 167.58 133.874 170.934 125.51C171.095 125.111 171.324 124.662 171.746 124.579C172.292 124.47 172.711 125.029 173.018 125.493C175.524 129.291 180.21 131.213 184.755 131.412C189.3 131.611 193.772 130.32 198.082 128.863C197.296 130.784 197.096 132.876 196.898 134.949L196.898 134.949L196.898 134.95L196.898 134.95C196.873 135.211 196.848 135.471 196.822 135.731C196.36 140.34 195.487 144.95 193.666 149.209ZM192.741 109.64C195.067 109.111 197.78 108.966 199.558 110.557C200.132 111.07 200.558 111.73 200.909 112.415C203.11 116.717 202.248 122.382 198.867 125.834C194.958 129.825 188.772 130.483 183.206 130.009C181.209 129.839 179.155 129.532 177.45 128.478C175.244 127.115 173.937 124.712 172.729 122.417C178.092 116.424 184.899 111.423 192.741 109.64ZM211.552 181.984C210.822 183.826 210.085 185.694 209.846 187.661C209.607 189.629 209.918 191.74 211.115 193.32C201.186 193.869 191.096 190.807 183.147 184.833C185.71 181.205 187.735 177.198 189.133 172.981C189.686 171.316 191.794 170.621 193.506 171.007C195.082 171.362 196.405 172.373 197.696 173.359C197.807 173.444 197.918 173.529 198.029 173.613C202.255 176.822 206.912 179.409 211.552 181.984ZM142.171 207.145C140.605 208.908 138.734 210.371 136.822 211.752C132.832 214.633 128.481 217.251 123.631 218.088C116.523 219.315 108.844 216.25 104.535 210.465L120.038 204.682C120.409 204.544 120.794 204.403 121.189 204.426C121.413 204.438 121.628 204.502 121.843 204.566L121.843 204.567C121.987 204.609 122.13 204.652 122.277 204.68C122.774 204.774 123.276 204.691 123.781 204.608C124.094 204.557 124.409 204.505 124.724 204.495C125.884 204.46 126.951 204.991 128.006 205.515C128.274 205.649 128.541 205.782 128.809 205.905C132.92 207.795 137.659 207.489 142.171 207.145ZM119.787 140.815C119.678 140.571 119.793 140.29 119.908 140.048C123.083 133.399 127.283 127.24 132.314 121.857C135.853 126.771 138.208 132.531 139.126 138.516C139.309 139.712 139.111 141.367 137.91 141.517C132.153 142.234 126.295 142.137 120.565 141.228C120.262 141.18 119.912 141.095 119.787 140.815ZM141.47 140.405C140.285 133.888 137.824 127.606 134.268 122.017C137.278 120.433 140.836 120.407 144.238 120.418C146.386 120.424 148.731 120.5 150.369 121.891L146.122 134.422C145.401 136.549 144.671 138.736 144.762 140.98L142.077 141.023C141.982 141.025 141.883 141.026 141.795 140.989C141.58 140.899 141.512 140.634 141.47 140.405ZM176.012 172.473C176.725 171.26 177.404 169.964 177.476 168.559C180.688 170.003 184.225 170.719 187.746 170.637C188.298 170.624 188.279 171.476 188.052 171.98C187.367 173.506 186.68 175.034 185.887 176.506C185.073 178.018 184.148 179.467 183.225 180.914L181.011 184.384C180.708 184.858 180.396 185.344 179.945 185.683C178.737 186.591 177.013 186.154 175.634 185.535C173.347 184.507 171.242 183.076 169.445 181.327C171.94 178.621 174.146 175.647 176.012 172.473ZM92.955 175.471C94.0191 176.544 94.7146 177.919 95.3927 179.269L92.2001 179.725C91.1364 179.876 90.0457 180.037 89.1055 180.557C88.1908 181.063 87.4853 181.874 86.8645 182.715C84.2681 186.233 82.829 190.59 82.8199 194.963C82.8166 196.542 80.9502 197.668 79.4226 197.268C77.8951 196.868 76.8574 195.35 76.5933 193.793C76.3292 192.236 76.7011 190.644 77.1675 189.136C78.8088 183.826 81.7448 178.812 86.0887 175.346C86.9187 174.684 87.8357 174.064 88.8842 173.896C90.3764 173.658 91.8908 174.398 92.955 175.471ZM227.02 184.358C227.389 184.833 227.663 185.41 227.646 186.011C227.625 186.788 227.132 187.469 226.602 188.037C223.52 191.34 218.784 192.464 214.298 192.994C214.002 193.029 213.692 193.061 213.415 192.952C213.187 192.863 213.004 192.687 212.842 192.505C211.759 191.287 211.331 189.586 211.418 187.96C211.506 186.333 212.068 184.767 212.766 183.296C212.913 182.986 213.084 182.661 213.384 182.494C213.624 182.362 213.909 182.351 214.183 182.344L219.612 182.202C220.949 182.167 222.3 182.133 223.608 182.409C224.917 182.684 226.198 183.303 227.02 184.358ZM166.514 133.06C164.301 128.962 162.646 124.562 161.608 120.022L162.502 117.635C163.608 115.494 165.002 113.503 166.634 111.731C167.299 111.009 168.451 110.929 169.369 111.277C170.286 111.625 171.025 112.316 171.737 112.991L174.942 116.028C175.037 116.118 175.137 116.216 175.169 116.343C175.229 116.583 175.03 116.802 174.851 116.973C173.35 118.4 172.017 120.009 170.947 121.782C169.331 124.463 168.344 127.468 167.37 130.443L166.514 133.06ZM174.706 110.039C181.232 106.544 188.37 103.255 195.732 104.041C199.58 104.453 203.262 105.984 206.467 108.153C197.284 105.792 187.048 107.969 179.62 113.863C178.472 114.774 176.75 115.764 175.728 114.713C175.465 114.444 175.294 114.066 175.127 113.698C174.859 113.108 174.602 112.544 174.002 112.488C173.43 112.436 173.175 111.659 173.418 111.138C173.661 110.617 174.199 110.311 174.706 110.039ZM156.777 173.971C158.065 175.208 159.484 176.301 160.899 177.391L166.617 181.795C164.856 183.346 163.133 184.941 161.451 186.577C157.445 184.203 153.869 181.105 150.949 177.479C152.547 175.813 154.082 174.087 155.548 172.303C155.779 172.961 156.275 173.488 156.777 173.971ZM120.014 162.059C117.004 164.411 113.891 166.887 112.235 170.33C111.912 171.003 111.644 171.711 111.377 172.418C110.81 173.92 110.245 175.418 109.145 176.561C108.657 176.418 108.465 175.844 108.347 175.349L107.201 170.584C107.046 169.941 106.891 169.281 106.979 168.625C107.066 167.973 107.388 167.379 107.704 166.801L111.065 160.659C111.14 160.522 111.218 160.381 111.338 160.281C111.635 160.034 112.075 160.113 112.45 160.205L120.014 162.059ZM168.923 183.161C170.976 185.272 173.528 186.894 176.31 187.859C176.83 187.369 177.836 187.639 178.041 188.323C177.084 189.566 176.033 190.736 174.9 191.82C174.394 192.304 173.583 192.202 172.901 192.046C169.566 191.28 166.354 189.983 163.423 188.218C163.227 188.1 163.007 187.933 163.026 187.704C163.039 187.551 163.16 187.432 163.273 187.328L167.388 183.538C167.82 183.14 168.514 182.74 168.923 183.161ZM221.462 130.217C221.423 130.682 221.358 131.2 220.995 131.492C220.992 127.844 220.087 124.2 218.384 120.974C218.075 120.389 217.74 119.817 217.367 119.271C217.32 119.2 217.271 119.13 217.222 119.059C216.846 118.517 216.461 117.961 216.37 117.314L220.78 121.92C221.185 122.344 221.602 122.786 221.794 123.34C221.979 123.875 221.935 124.458 221.889 125.022L221.462 130.217ZM216.395 124.363L215.397 123.105C214.298 121.72 212.95 120.208 211.183 120.206C210.157 120.205 209.213 120.73 208.323 121.24L206.941 122.033C206.563 122.25 206.175 122.475 205.909 122.82C205.141 123.813 205.701 125.265 206.427 126.289C206.929 126.998 207.531 127.679 208.33 128.02C209.364 128.462 210.553 128.266 211.636 127.968C213.12 127.558 214.553 126.968 215.895 126.214C216.324 125.973 216.798 125.62 216.776 125.128C216.764 124.838 216.575 124.59 216.395 124.363ZM207.672 125.335C207.5 125.061 207.322 124.769 207.319 124.446C207.314 123.814 207.944 123.39 208.499 123.088L210.469 122.013C210.768 121.85 211.078 121.684 211.416 121.661C211.755 121.638 212.132 121.801 212.246 122.121C212.582 123.065 213.41 123.818 214.381 124.063C214.696 124.142 214.797 124.577 214.648 124.866C214.499 125.154 214.195 125.322 213.905 125.466C212.866 125.982 211.78 126.402 210.665 126.72C210.218 126.848 209.745 126.96 209.292 126.852C208.553 126.676 208.076 125.979 207.672 125.335ZM193.651 135.065C191.697 135.292 191.325 138.817 192.233 140.696C192.419 141.083 192.712 141.481 193.138 141.535C193.866 141.628 194.268 140.729 194.43 140.013L194.433 139.996C194.646 139.052 195.594 134.838 193.651 135.065ZM183.571 139.688C183.961 138.776 184.092 137.754 183.942 136.774C183.873 136.318 183.736 135.855 183.431 135.509C183.127 135.163 182.624 134.962 182.19 135.118C181.798 135.259 181.551 135.643 181.365 136.017C180.709 137.335 180.448 138.847 180.623 140.309C180.704 140.989 181.561 141.361 182.212 141.146C182.862 140.931 183.301 140.317 183.571 139.688ZM189.333 137.601C189.636 137.35 190.019 137.806 190.142 138.181C190.547 139.411 190.882 140.664 191.145 141.932C191.311 142.734 191.449 143.566 191.272 144.365C191.022 145.492 190.165 146.408 189.172 146.995C188.178 147.582 187.047 147.886 185.932 148.183C185.638 148.262 185.268 148.318 185.077 148.08C184.916 147.878 184.996 147.561 185.179 147.379C185.36 147.2 185.611 147.118 185.852 147.038L185.867 147.034C187.605 146.463 189.462 145.432 189.867 143.648C190.089 142.667 189.819 141.681 189.547 140.692C189.299 139.79 189.051 138.885 189.173 137.977C189.191 137.839 189.225 137.69 189.333 137.601ZM177.194 133.588C176.736 132.954 177.103 131.991 177.767 131.577C178.431 131.164 179.269 131.169 180.045 131.269C180.971 131.389 181.882 131.624 182.749 131.969C182.934 132.042 183.133 132.135 183.214 132.317C183.365 132.652 182.975 133.02 182.607 133.02C182.311 133.019 182.042 132.877 181.777 132.736C181.713 132.702 181.648 132.668 181.584 132.636C180.136 131.917 178.215 132.334 177.194 133.588ZM193.89 133.37C194.578 133.255 195.308 133.414 195.886 133.804C196.128 133.968 196.474 133.693 196.476 133.402C196.477 133.11 196.26 132.865 196.03 132.684C195.537 132.296 194.922 132.063 194.295 132.028C193.89 132.005 193.442 132.083 193.181 132.394C192.92 132.704 192.999 133.287 193.39 133.395C193.529 133.434 193.676 133.408 193.819 133.382C193.843 133.378 193.866 133.374 193.89 133.37ZM185.346 151.255C185.54 151.146 185.796 151.337 185.824 151.558C185.853 151.778 185.727 151.989 185.583 152.159C184.862 153.011 183.618 153.273 182.52 153.073C181.421 152.874 180.436 152.283 179.51 151.66C179.074 151.367 178.645 151.065 178.223 150.753C177.785 150.429 177.319 150.034 177.266 149.492C177.214 148.95 177.908 148.405 178.304 148.778C179.278 149.695 180.273 150.627 181.485 151.194C182.696 151.761 184.181 151.913 185.346 151.255ZM164.495 155.598C160.438 146.779 158.745 136.885 159.64 127.219C159.655 127.054 159.676 126.877 159.785 126.752C159.939 126.576 160.255 126.583 160.4 126.767C160.348 132.084 160.299 137.433 161.167 142.68C162.035 147.926 163.878 153.116 167.243 157.233C167.344 157.356 167.446 157.479 167.548 157.601C168.127 158.296 168.711 158.996 169.039 159.833C166.851 159.791 165.409 157.587 164.495 155.598ZM168.474 115.775C168.399 115.693 168.312 115.622 168.21 115.578C167.918 115.452 167.575 115.581 167.319 115.771C166.297 116.527 166.293 118.294 167.311 119.055C167.808 118.632 168.317 118.192 168.608 117.609C168.899 117.025 168.917 116.254 168.474 115.775ZM177.28 125.088C178.38 125.981 179.634 126.685 180.971 127.158C185.282 128.687 190.127 127.727 194.288 125.826C194.924 125.535 195.735 125.688 196.221 126.191C193.549 128.094 190.277 129.141 186.996 129.14C186.273 129.14 185.55 129.09 184.829 129.027C183.355 128.899 181.869 128.71 180.482 128.193C179.095 127.677 177.8 126.803 177.014 125.548L177.28 125.088ZM224.231 183.197C224.188 183.344 224.306 183.484 224.415 183.592L226.053 185.218C226.231 184.75 226.031 184.206 225.688 183.842C225.344 183.478 224.88 183.257 224.427 183.043C224.338 183.047 224.256 183.112 224.231 183.197Z" fill="#00160A"/>
<path fill-rule="evenodd" clip-rule="evenodd" d="M331.821 119.959C333.828 120.654 335.719 118.845 337.448 117.611C340.124 115.703 343.615 114.982 346.829 115.673C347.362 115.788 347.92 115.96 348.271 116.377C348.592 116.758 348.683 117.279 348.735 117.774C349.051 120.81 348.292 123.946 346.623 126.501C345.811 127.744 344.794 128.851 344.068 130.146C343.341 131.441 342.927 133.023 343.444 134.415C346.52 142.688 345.24 152.447 340.134 159.647C335.028 166.848 326.243 171.285 317.417 171.12C312.904 171.035 308.482 169.831 304.23 168.316C302.374 167.655 300.335 166.93 298.493 167.628C295.132 168.901 291.594 169.706 288.013 170.01C287.124 170.085 286.196 170.124 285.376 169.773C284.149 169.248 283.408 167.917 283.267 166.59C283.126 165.262 283.493 163.933 283.956 162.681C285.355 158.905 289.696 153.006 292.324 151.647C292.111 147.061 292.135 142.421 293.126 137.939C294.118 133.456 296.141 129.107 299.46 125.935C300.831 124.625 302.4 123.535 304.043 122.589C312.355 117.803 322.759 116.818 331.821 119.959ZM319.164 119.587C312.808 119.735 306.621 122.288 301.652 126.255C300.194 127.42 298.822 128.713 297.728 130.225C296.864 131.417 296.182 132.732 295.612 134.088C292.227 142.137 293 151.808 297.619 159.217C297.72 159.379 297.835 159.55 298.015 159.613C298.237 159.69 298.475 159.577 298.683 159.467C313.19 151.736 326.103 141.028 336.386 128.203C336.631 127.897 336.889 127.543 336.836 127.155C336.796 126.864 336.588 126.627 336.386 126.415C331.998 121.814 325.519 119.438 319.164 119.587ZM328.049 167.635C334.94 164.4 340.174 158.008 342.412 150.732C342.919 149.084 343.283 147.381 343.319 145.658C343.349 144.209 343.146 142.766 342.945 141.33C342.652 139.249 342.36 137.168 342.068 135.087C341.99 134.535 341.458 133.807 341.07 134.207C330.289 145.302 318.516 155.433 305.938 164.441C305.52 164.74 305.059 165.111 305.036 165.625C305.01 166.221 305.578 166.652 306.094 166.95C312.689 170.753 321.159 170.87 328.049 167.635ZM285.546 166.788C286.048 167.592 287.134 167.757 288.081 167.783C293.05 167.92 297.966 166.464 302.412 164.241C306.858 162.017 310.882 159.042 314.792 155.973C320.007 151.88 325.067 147.59 329.998 143.158C336.105 137.669 342.105 131.847 346.115 124.682C346.89 123.296 347.606 121.776 347.485 120.192C347.364 118.609 346.1 117.01 344.513 117.072C341.146 117.203 337.834 118.498 335.27 120.686C334.761 121.121 335.121 122.048 335.748 122.283C336.376 122.519 337.075 122.285 337.689 122.014C338.302 121.743 338.94 121.427 339.607 121.501C340.624 121.614 341.347 122.656 341.408 123.678C341.468 124.7 341.016 125.683 340.484 126.557C339.498 128.176 338.211 129.587 336.91 130.965C325.347 143.215 312.008 153.787 297.441 162.246C296.129 163.008 294.802 163.755 293.39 164.31C292.649 164.601 291.8 164.835 291.077 164.502C289.892 163.956 289.797 162.292 290.153 161.037C290.687 159.152 291.84 157.448 293.392 156.252C293.098 155.424 292.804 154.596 292.51 153.768C288.68 156.215 285.992 160.376 285.337 164.874C285.242 165.523 285.199 166.231 285.546 166.788ZM296.437 161.106C296.465 161.02 296.415 160.931 296.367 160.855C295.872 160.069 295.377 159.283 294.883 158.497C294.659 158.141 294.226 157.738 293.89 157.991C292.68 158.902 291.815 160.259 291.498 161.739C291.435 162.032 291.399 162.358 291.558 162.611C291.854 163.081 292.561 162.976 293.085 162.789C294.2 162.389 295.275 161.875 296.286 161.258C296.349 161.219 296.415 161.175 296.437 161.106ZM339.483 123.68C339.433 123.476 339.19 123.388 338.98 123.378C338.342 123.351 337.676 123.875 337.716 124.512C337.757 125.148 338.703 125.549 339.099 125.049C339.218 124.898 339.269 124.705 339.316 124.518C339.364 124.333 339.411 124.148 339.458 123.963C339.481 123.871 339.505 123.773 339.483 123.68Z" fill="#00160A"/>
</svg>
