<svg version="1.1" id="Layer_1" xmlns="http://www.w3.org/2000/svg" xmlns:xlink="http://www.w3.org/1999/xlink" x="0px" y="0px"
	 width="100%" viewBox="0 0 1600 417" enable-background="new 0 0 1600 417" xml:space="preserve">
<path fill="#FEFEFE" opacity="1.000000" stroke="none" 
	d="
M1138.000000,418.000000 
	C1053.645264,418.000000 969.290466,418.000000 884.639343,417.606354 
	C889.629822,416.628174 894.995972,416.439392 900.191101,415.397736 
	C949.938965,405.422638 983.404968,364.748993 983.546021,313.822968 
	C983.709900,254.679581 983.597595,195.535446 983.586792,136.391632 
	C983.586548,134.993286 983.367554,133.594971 983.224609,131.885925 
	C966.149780,137.129684 949.581665,142.217850 932.874695,147.348648 
	C932.874695,173.127518 932.874695,198.353638 932.874695,224.106415 
	C931.420593,223.307816 930.450073,222.741760 929.451233,222.231125 
	C901.207703,207.791199 871.903137,206.081635 842.358276,216.807861 
	C799.062256,232.526474 773.071777,276.218018 776.434875,322.507751 
	C779.856079,369.596832 816.669250,408.209198 859.664490,415.571808 
	C864.117676,416.334351 868.555237,417.188385 873.000000,418.000000 
	C807.645203,418.000000 742.290466,418.000000 676.639893,417.616394 
	C683.571411,416.125732 690.894531,415.441681 698.008240,413.832336 
	C719.441589,408.983368 736.927368,398.616089 746.718872,377.836731 
	C753.183350,364.117950 755.213745,349.608704 755.192261,334.626251 
	C755.135254,294.794678 755.176453,254.962967 755.164795,215.131317 
	C755.164368,213.708221 755.018127,212.285172 754.918579,210.475708 
	C752.893616,211.025284 751.299866,211.415131 749.731873,211.890121 
	C736.369324,215.937836 723.054382,220.152237 709.625061,223.963913 
	C705.784973,225.053848 704.465881,226.563629 704.498291,230.743179 
	C704.725830,260.073517 704.666199,289.406586 704.582825,318.738464 
	C704.563110,325.689697 704.628967,332.707062 703.745789,339.577087 
	C701.445068,357.473297 688.600037,368.780853 668.876770,369.687256 
	C637.878052,371.111908 622.102539,357.536285 622.565613,327.048370 
	C623.005920,298.056274 622.672607,269.052246 622.644897,240.053482 
	C622.640442,235.406967 624.165649,229.453583 621.886536,226.471039 
	C619.465393,223.302628 613.401489,222.808304 608.850220,221.398407 
	C596.818176,217.671127 584.743958,214.080200 572.444153,210.361725 
	C572.267761,211.505615 572.088013,212.126602 572.088318,212.747543 
	C572.107727,256.245453 571.100586,299.776672 572.491943,343.231079 
	C573.680176,380.340210 591.324402,406.229706 631.310730,414.267548 
	C637.218506,415.455078 643.104126,416.753113 649.000000,418.000000 
	C585.311890,418.000000 521.623779,418.000000 457.638916,417.606079 
	C462.626648,416.624939 467.963654,416.333008 473.187622,415.404999 
	C526.278198,405.973694 571.545654,351.338654 552.297791,283.434357 
	C538.343262,234.204346 491.286194,205.074295 437.735352,211.163742 
	C390.399536,216.546432 352.213165,257.794647 349.293610,306.696869 
	C346.092224,360.319885 380.463684,405.216034 432.669189,415.573730 
	C437.098877,416.452576 441.555756,417.194458 446.000000,418.000000 
	C407.645233,418.000000 369.290466,418.000000 330.472046,417.731262 
	C329.993164,417.283936 329.977905,417.105408 330.019836,416.465912 
	C330.076996,321.438202 330.076996,226.871399 330.076996,131.797943 
	C314.643982,136.544220 299.807739,141.330017 284.817993,145.573425 
	C280.623138,146.760956 279.597717,148.557999 279.603577,152.695343 
	C279.726318,239.149231 279.694489,325.603333 279.708374,412.057404 
	C279.708649,413.710449 279.893677,415.363464 279.981873,417.262451 
	C279.971222,417.508423 280.000000,418.000000 280.000000,418.000000 
	C236.645233,418.000000 193.290466,418.000000 149.653793,417.611511 
	C197.883759,414.794067 235.883667,394.042450 262.798737,352.732758 
	C246.808304,343.461304 231.464966,334.565033 216.103012,325.657959 
	C200.037506,351.613983 176.426025,363.291748 147.034241,364.197174 
	C122.086525,364.965729 99.463005,358.484406 81.366875,340.465942 
	C56.807236,316.011688 51.488487,285.694092 57.725521,253.173401 
	C65.787651,211.136444 97.673599,185.362259 141.271957,184.418106 
	C172.790573,183.735535 198.453094,195.037201 215.496933,222.729706 
	C215.629059,222.944397 216.078766,222.963669 216.571350,223.144287 
	C231.709549,214.382523 246.952560,205.560120 262.170654,196.752121 
	C257.588867,186.595993 244.650146,171.394012 231.982986,161.636627 
	C197.638794,135.181610 158.817230,127.421440 116.516396,134.071564 
	C59.580540,143.022461 11.991960,191.177505 3.907172,248.173264 
	C2.969076,254.786575 1.970524,261.391296 1.000000,268.000000 
	C1.000000,179.023163 1.000000,90.046310 1.000000,1.000000 
	C470.021454,1.000000 939.042908,1.000000 1408.416626,1.355582 
	C1349.129517,21.564995 1289.490112,41.418827 1228.735962,61.643780 
	C1230.926025,62.506851 1231.943481,62.961998 1232.995239,63.314610 
	C1291.308594,82.865234 1349.615723,102.434425 1407.977417,121.839577 
	C1410.068481,122.534828 1412.863037,122.088043 1415.057373,121.356575 
	C1468.829834,103.431786 1522.564819,85.394684 1576.309448,67.386055 
	C1578.293213,66.721344 1580.305054,66.140663 1582.556885,65.442322 
	C1582.556885,90.909767 1582.556885,115.686874 1582.556885,140.653702 
	C1580.843506,140.890305 1579.273560,141.107086 1577.523560,141.348755 
	C1577.662598,143.041885 1577.784180,144.520782 1577.782959,146.397446 
	C1576.975830,150.614944 1575.780884,154.424103 1575.701416,158.256363 
	C1575.447388,170.519180 1575.559204,182.790833 1575.624023,195.058563 
	C1575.666992,203.184723 1579.925171,208.326981 1586.850830,208.872543 
	C1593.745361,209.415680 1598.643677,205.057053 1600.382812,197.026886 
	C1600.588989,197.038910 1601.000000,197.000000 1601.000000,197.000000 
	C1601.000000,270.587708 1601.000000,344.175446 1601.000000,418.000000 
	C1539.312134,418.000000 1477.623901,418.000000 1415.672241,417.632904 
	C1423.478638,416.175781 1431.727905,415.812500 1439.587280,413.870605 
	C1474.687622,405.197968 1500.438843,385.640686 1510.393921,349.493347 
	C1512.964111,340.160522 1513.845825,330.108093 1513.896851,320.377808 
	C1514.206665,261.221924 1514.052246,202.063599 1514.052856,142.906097 
	C1514.052856,141.290192 1514.052856,139.674286 1514.052856,137.902954 
	C1512.891357,137.992096 1512.202515,137.924149 1511.590576,138.109497 
	C1495.352417,143.027359 1479.147827,148.058426 1462.869019,152.837021 
	C1459.635864,153.786133 1459.972290,155.872604 1459.973022,158.202820 
	C1459.980347,185.198639 1459.970581,212.194443 1459.966309,239.190262 
	C1459.962158,265.686157 1460.096924,292.182983 1459.915649,318.677643 
	C1459.743652,343.810333 1446.985596,359.149017 1422.383667,363.182037 
	C1414.748047,364.433807 1406.749146,364.327179 1398.988525,363.793884 
	C1377.699707,362.330933 1363.506958,350.303986 1359.397095,330.540497 
	C1358.355713,325.532593 1358.065186,320.292358 1358.055786,315.157745 
	C1357.960693,262.999298 1357.949097,210.840530 1358.088135,158.682312 
	C1358.098511,154.802795 1356.900024,153.222198 1353.226074,152.162201 
	C1338.207520,147.829208 1323.287842,143.153473 1308.321899,138.636490 
	C1307.147583,138.282043 1305.897583,138.178421 1304.497559,137.924667 
	C1304.385742,139.262558 1304.257202,140.082413 1304.257202,140.902267 
	C1304.258301,201.726059 1304.142944,262.550262 1304.351929,323.373383 
	C1304.420898,343.467377 1309.170532,362.399933 1321.810059,378.581207 
	C1339.396484,401.095306 1363.068970,412.580933 1391.016602,416.121674 
	C1394.697998,416.588043 1398.339844,417.366241 1402.000000,418.000000 
	C1318.645264,418.000000 1235.290405,418.000000 1151.680542,417.638916 
	C1163.219971,415.339630 1175.393188,414.664337 1186.747803,411.259308 
	C1263.588257,388.216217 1310.925293,305.024841 1276.892212,219.676743 
	C1256.856445,169.431198 1217.458252,140.038864 1163.091187,132.986679 
	C1133.692627,129.173264 1105.226196,133.320435 1078.796021,147.430954 
	C1024.553467,176.389954 996.870361,230.248947 1003.738342,292.859283 
	C1010.839905,357.599609 1062.966187,409.542908 1127.490479,416.238861 
	C1131.016602,416.604736 1134.497803,417.403015 1138.000000,418.000000 
M1447.451172,137.886276 
	C1469.620728,130.435303 1491.790283,122.984337 1513.804688,115.585541 
	C1513.804688,109.235619 1513.804688,103.323502 1513.804688,97.118561 
	C1511.917114,97.703339 1510.332764,98.160431 1508.770264,98.683258 
	C1477.718750,109.073517 1446.696411,119.553345 1415.577515,129.737976 
	C1412.540894,130.731827 1408.636353,130.774826 1405.602661,129.800949 
	C1385.190918,123.248482 1364.909058,116.292503 1344.578613,109.486320 
	C1331.379761,105.067650 1318.170044,100.681213 1304.260742,96.045563 
	C1304.260742,101.330734 1304.454712,105.941620 1304.190796,110.526138 
	C1304.022217,113.454628 1305.218750,114.472023 1307.842773,115.356346 
	C1341.064575,126.552658 1374.230591,137.915039 1407.456299,149.099899 
	C1409.311523,149.724411 1411.726074,149.677017 1413.605103,149.078354 
	C1424.675171,145.551376 1435.663818,141.768005 1447.451172,137.886276 
z"/>
<path fill="#04BBBA" opacity="1.000000" stroke="none" 
	d="
M1138.463135,418.000000 
	C1134.497803,417.403015 1131.016602,416.604736 1127.490479,416.238861 
	C1062.966187,409.542908 1010.839905,357.599609 1003.738342,292.859283 
	C996.870361,230.248947 1024.553467,176.389954 1078.796021,147.430954 
	C1105.226196,133.320435 1133.692627,129.173264 1163.091187,132.986679 
	C1217.458252,140.038864 1256.856445,169.431198 1276.892212,219.676743 
	C1310.925293,305.024841 1263.588257,388.216217 1186.747803,411.259308 
	C1175.393188,414.664337 1163.219971,415.339630 1151.212646,417.638916 
	C1146.975464,418.000000 1142.950928,418.000000 1138.463135,418.000000 
M1061.502197,242.082428 
	C1056.414062,257.021027 1055.132812,272.400818 1057.148193,287.934753 
	C1066.187744,357.610046 1141.658569,382.496521 1192.472412,351.261597 
	C1234.576660,325.380524 1241.017822,277.169006 1227.644775,240.989456 
	C1214.938721,206.614578 1188.805786,188.180054 1152.158447,184.591110 
	C1112.741943,180.730957 1075.238159,204.117462 1061.502197,242.082428 
z"/>
<path fill="#04BBBA" opacity="1.000000" stroke="none" 
	d="
M1402.463135,418.000000 
	C1398.339844,417.366241 1394.697998,416.588043 1391.016602,416.121674 
	C1363.068970,412.580933 1339.396484,401.095306 1321.810059,378.581207 
	C1309.170532,362.399933 1304.420898,343.467377 1304.351929,323.373383 
	C1304.142944,262.550262 1304.258301,201.726059 1304.257202,140.902267 
	C1304.257202,140.082413 1304.385742,139.262558 1304.497559,137.924667 
	C1305.897583,138.178421 1307.147583,138.282043 1308.321899,138.636490 
	C1323.287842,143.153473 1338.207520,147.829208 1353.226074,152.162201 
	C1356.900024,153.222198 1358.098511,154.802795 1358.088135,158.682312 
	C1357.949097,210.840530 1357.960693,262.999298 1358.055786,315.157745 
	C1358.065186,320.292358 1358.355713,325.532593 1359.397095,330.540497 
	C1363.506958,350.303986 1377.699707,362.330933 1398.988525,363.793884 
	C1406.749146,364.327179 1414.748047,364.433807 1422.383667,363.182037 
	C1446.985596,359.149017 1459.743652,343.810333 1459.915649,318.677643 
	C1460.096924,292.182983 1459.962158,265.686157 1459.966309,239.190262 
	C1459.970581,212.194443 1459.980347,185.198639 1459.973022,158.202820 
	C1459.972290,155.872604 1459.635864,153.786133 1462.869019,152.837021 
	C1479.147827,148.058426 1495.352417,143.027359 1511.590576,138.109497 
	C1512.202515,137.924149 1512.891357,137.992096 1514.052856,137.902954 
	C1514.052856,139.674286 1514.052856,141.290192 1514.052856,142.906097 
	C1514.052246,202.063599 1514.206665,261.221924 1513.896851,320.377808 
	C1513.845825,330.108093 1512.964111,340.160522 1510.393921,349.493347 
	C1500.438843,385.640686 1474.687622,405.197968 1439.587280,413.870605 
	C1431.727905,415.812500 1423.478638,416.175781 1415.204346,417.632904 
	C1410.975464,418.000000 1406.950928,418.000000 1402.463135,418.000000 
z"/>
<path fill="#020202" opacity="1.000000" stroke="none" 
	d="
M1.000000,268.463196 
	C1.970524,261.391296 2.969076,254.786575 3.907172,248.173264 
	C11.991960,191.177505 59.580540,143.022461 116.516396,134.071564 
	C158.817230,127.421440 197.638794,135.181610 231.982986,161.636627 
	C244.650146,171.394012 257.588867,186.595993 262.170654,196.752121 
	C246.952560,205.560120 231.709549,214.382523 216.571350,223.144287 
	C216.078766,222.963669 215.629059,222.944397 215.496933,222.729706 
	C198.453094,195.037201 172.790573,183.735535 141.271957,184.418106 
	C97.673599,185.362259 65.787651,211.136444 57.725521,253.173401 
	C51.488487,285.694092 56.807236,316.011688 81.366875,340.465942 
	C99.463005,358.484406 122.086525,364.965729 147.034241,364.197174 
	C176.426025,363.291748 200.037506,351.613983 216.103012,325.657959 
	C231.464966,334.565033 246.808304,343.461304 262.798737,352.732758 
	C235.883667,394.042450 197.883759,414.794067 149.185944,417.611511 
	C145.307098,418.000000 141.614182,418.000000 137.286087,417.611694 
	C130.213364,416.500885 123.745224,415.982697 117.343079,415.023926 
	C60.160076,406.460144 12.104302,358.016022 3.919852,300.795990 
	C2.975420,294.193207 1.974650,287.598480 1.000000,281.000000 
	C1.000000,276.975464 1.000000,272.950897 1.000000,268.463196 
z"/>
<path fill="#020202" opacity="1.000000" stroke="none" 
	d="
M873.458069,418.000000 
	C868.555237,417.188385 864.117676,416.334351 859.664490,415.571808 
	C816.669250,408.209198 779.856079,369.596832 776.434875,322.507751 
	C773.071777,276.218018 799.062256,232.526474 842.358276,216.807861 
	C871.903137,206.081635 901.207703,207.791199 929.451233,222.231125 
	C930.450073,222.741760 931.420593,223.307816 932.874695,224.106415 
	C932.874695,198.353638 932.874695,173.127518 932.874695,147.348648 
	C949.581665,142.217850 966.149780,137.129684 983.224609,131.885925 
	C983.367554,133.594971 983.586548,134.993286 983.586792,136.391632 
	C983.597595,195.535446 983.709900,254.679581 983.546021,313.822968 
	C983.404968,364.748993 949.938965,405.422638 900.191101,415.397736 
	C894.995972,416.439392 889.629822,416.628174 884.171509,417.606354 
	C880.638733,418.000000 877.277405,418.000000 873.458069,418.000000 
M898.242493,364.929504 
	C918.333984,357.020691 930.151245,342.422852 932.549500,320.949554 
	C934.922302,299.703705 928.656677,281.410858 910.507324,269.032043 
	C892.790405,256.948120 873.476929,256.227783 854.487549,265.700531 
	C829.914490,277.958649 819.802002,309.806335 831.126526,336.605835 
	C841.741821,361.726593 870.086914,373.907684 898.242493,364.929504 
z"/>
<path fill="#020202" opacity="1.000000" stroke="none" 
	d="
M446.458069,418.000000 
	C441.555756,417.194458 437.098877,416.452576 432.669189,415.573730 
	C380.463684,405.216034 346.092224,360.319885 349.293610,306.696869 
	C352.213165,257.794647 390.399536,216.546432 437.735352,211.163742 
	C491.286194,205.074295 538.343262,234.204346 552.297791,283.434357 
	C571.545654,351.338654 526.278198,405.973694 473.187622,415.404999 
	C467.963654,416.333008 462.626648,416.624939 457.171082,417.606079 
	C453.638702,418.000000 450.277435,418.000000 446.458069,418.000000 
M495.557068,347.015167 
	C509.249969,327.512512 509.670013,300.433990 496.567017,281.904846 
	C483.296783,263.139221 459.880096,255.289474 436.706696,261.838470 
	C405.884674,270.549042 390.422882,307.640717 404.892151,338.322784 
	C422.106201,374.825287 472.574554,377.426086 495.557068,347.015167 
z"/>
<path fill="#020202" opacity="1.000000" stroke="none" 
	d="
M1577.905518,145.999695 
	C1577.784180,144.520782 1577.662598,143.041885 1577.523560,141.348755 
	C1579.273560,141.107086 1580.843506,140.890305 1582.556885,140.653702 
	C1582.556885,115.686874 1582.556885,90.909767 1582.556885,65.442322 
	C1580.305054,66.140663 1578.293213,66.721344 1576.309448,67.386055 
	C1522.564819,85.394684 1468.829834,103.431786 1415.057373,121.356575 
	C1412.863037,122.088043 1410.068481,122.534828 1407.977417,121.839577 
	C1349.615723,102.434425 1291.308594,82.865234 1232.995239,63.314610 
	C1231.943481,62.961998 1230.926025,62.506851 1228.735962,61.643780 
	C1289.490112,41.418827 1349.129517,21.564995 1408.884521,1.355582 
	C1409.750000,1.000000 1410.500000,1.000000 1411.807861,1.318281 
	C1470.997437,21.139618 1529.615479,40.683266 1588.290894,60.053688 
	C1592.165527,61.332817 1593.151733,63.141052 1593.117554,67.065971 
	C1592.911743,90.709312 1593.011841,114.355339 1593.030884,138.000458 
	C1593.031616,138.949509 1593.246704,139.898376 1593.355469,140.794022 
	C1595.048950,140.974014 1596.485840,141.126770 1597.861694,141.273010 
	C1597.861694,143.374115 1597.861694,145.186844 1597.402466,146.999756 
	C1590.597290,146.666534 1584.251465,146.333130 1577.905518,145.999695 
z"/>
<path fill="#020202" opacity="1.000000" stroke="none" 
	d="
M649.444153,418.000000 
	C643.104126,416.753113 637.218506,415.455078 631.310730,414.267548 
	C591.324402,406.229706 573.680176,380.340210 572.491943,343.231079 
	C571.100586,299.776672 572.107727,256.245453 572.088318,212.747543 
	C572.088013,212.126602 572.267761,211.505615 572.444153,210.361725 
	C584.743958,214.080200 596.818176,217.671127 608.850220,221.398407 
	C613.401489,222.808304 619.465393,223.302628 621.886536,226.471039 
	C624.165649,229.453583 622.640442,235.406967 622.644897,240.053482 
	C622.672607,269.052246 623.005920,298.056274 622.565613,327.048370 
	C622.102539,357.536285 637.878052,371.111908 668.876770,369.687256 
	C688.600037,368.780853 701.445068,357.473297 703.745789,339.577087 
	C704.628967,332.707062 704.563110,325.689697 704.582825,318.738464 
	C704.666199,289.406586 704.725830,260.073517 704.498291,230.743179 
	C704.465881,226.563629 705.784973,225.053848 709.625061,223.963913 
	C723.054382,220.152237 736.369324,215.937836 749.731873,211.890121 
	C751.299866,211.415131 752.893616,211.025284 754.918579,210.475708 
	C755.018127,212.285172 755.164368,213.708221 755.164795,215.131317 
	C755.176453,254.962967 755.135254,294.794678 755.192261,334.626251 
	C755.213745,349.608704 753.183350,364.117950 746.718872,377.836731 
	C736.927368,398.616089 719.441589,408.983368 698.008240,413.832336 
	C690.894531,415.441681 683.571411,416.125732 676.171997,417.616394 
	C674.285645,418.000000 672.571289,418.000000 670.175293,417.666504 
	C665.329163,417.555359 661.164551,417.777679 657.000000,418.000000 
	C654.629456,418.000000 652.258850,418.000000 649.444153,418.000000 
z"/>
<path fill="#FDFDFD" opacity="1.000000" stroke="none" 
	d="
M1597.861694,146.999542 
	C1597.861694,145.186844 1597.861694,143.374115 1597.861694,141.273010 
	C1596.485840,141.126770 1595.048950,140.974014 1593.355469,140.794022 
	C1593.246704,139.898376 1593.031616,138.949509 1593.030884,138.000458 
	C1593.011841,114.355339 1592.911743,90.709312 1593.117554,67.065971 
	C1593.151733,63.141052 1592.165527,61.332817 1588.290894,60.053688 
	C1529.615479,40.683266 1470.997437,21.139618 1412.182861,1.318281 
	C1474.919800,1.000000 1537.839600,1.000000 1601.000000,1.000000 
	C1601.000000,52.353977 1601.000000,103.708328 1600.789551,155.517487 
	C1600.579224,155.972290 1600.157837,155.987183 1600.067139,155.626190 
	C1599.271484,152.509979 1598.566650,149.754761 1597.861694,146.999542 
z"/>
<path fill="#FDFDFD" opacity="1.000000" stroke="none" 
	d="
M1.000000,281.468658 
	C1.974650,287.598480 2.975420,294.193207 3.919852,300.795990 
	C12.104302,358.016022 60.160076,406.460144 117.343079,415.023926 
	C123.745224,415.982697 130.213364,416.500885 136.825439,417.611694 
	C91.739418,418.000000 46.478840,418.000000 1.000000,418.000000 
	C1.000000,372.645996 1.000000,327.291656 1.000000,281.468658 
z"/>
<path fill="#D2D2D2" opacity="1.000000" stroke="none" 
	d="
M280.468658,418.000000 
	C280.000000,418.000000 279.971222,417.508423 280.450928,417.253845 
	C297.274628,416.975128 313.618652,416.950989 329.962646,416.926849 
	C329.977905,417.105408 329.993164,417.283936 330.004211,417.731262 
	C313.645782,418.000000 297.291534,418.000000 280.468658,418.000000 
z"/>
<path fill="#ECECEC" opacity="1.000000" stroke="none" 
	d="
M1600.157837,155.987183 
	C1600.157837,155.987183 1600.579224,155.972290 1600.789551,155.986145 
	C1601.000000,169.354233 1601.000000,182.708450 1601.000000,196.531342 
	C1601.000000,197.000000 1600.588989,197.038910 1600.302979,196.563278 
	C1600.064087,182.720825 1600.110962,169.354004 1600.157837,155.987183 
z"/>
<path fill="#3A3A3A" opacity="1.000000" stroke="none" 
	d="
M657.463196,418.000000 
	C661.164551,417.777679 665.329163,417.555359 669.746826,417.666504 
	C665.975464,418.000000 661.950928,418.000000 657.463196,418.000000 
z"/>
<path fill="#000000" opacity="1.000000" stroke="none" 
	d="
M330.019836,416.465912 
	C313.618652,416.950989 297.274628,416.975128 280.461578,417.007904 
	C279.893677,415.363464 279.708649,413.710449 279.708374,412.057404 
	C279.694489,325.603333 279.726318,239.149231 279.603577,152.695343 
	C279.597717,148.557999 280.623138,146.760956 284.817993,145.573425 
	C299.807739,141.330017 314.643982,136.544220 330.076996,131.797943 
	C330.076996,226.871399 330.076996,321.438202 330.019836,416.465912 
z"/>
<path fill="#050505" opacity="1.000000" stroke="none" 
	d="
M1447.065430,137.978638 
	C1435.663818,141.768005 1424.675171,145.551376 1413.605103,149.078354 
	C1411.726074,149.677017 1409.311523,149.724411 1407.456299,149.099899 
	C1374.230591,137.915039 1341.064575,126.552658 1307.842773,115.356346 
	C1305.218750,114.472023 1304.022217,113.454628 1304.190796,110.526138 
	C1304.454712,105.941620 1304.260742,101.330734 1304.260742,96.045563 
	C1318.170044,100.681213 1331.379761,105.067650 1344.578613,109.486320 
	C1364.909058,116.292503 1385.190918,123.248482 1405.602661,129.800949 
	C1408.636353,130.774826 1412.540894,130.731827 1415.577515,129.737976 
	C1446.696411,119.553345 1477.718750,109.073517 1508.770264,98.683258 
	C1510.332764,98.160431 1511.917114,97.703339 1513.804688,97.118561 
	C1513.804688,103.323502 1513.804688,109.235619 1513.804688,115.585541 
	C1491.790283,122.984337 1469.620728,130.435303 1447.065430,137.978638 
z"/>
<path fill="#020202" opacity="1.000000" stroke="none" 
	d="
M1600.067139,155.626190 
	C1600.110962,169.354004 1600.064087,182.720825 1600.096924,196.551270 
	C1598.643677,205.057053 1593.745361,209.415680 1586.850830,208.872543 
	C1579.925171,208.326981 1575.666992,203.184723 1575.624023,195.058563 
	C1575.559204,182.790833 1575.447388,170.519180 1575.701416,158.256363 
	C1575.780884,154.424103 1576.975830,150.614944 1577.782837,146.397461 
	C1584.251465,146.333130 1590.597290,146.666534 1597.402466,146.999741 
	C1598.566650,149.754761 1599.271484,152.509979 1600.067139,155.626190 
z"/>
<path fill="#FEFFFF" opacity="1.000000" stroke="none" 
	d="
M1061.637817,241.712311 
	C1075.238159,204.117462 1112.741943,180.730957 1152.158447,184.591110 
	C1188.805786,188.180054 1214.938721,206.614578 1227.644775,240.989456 
	C1241.017822,277.169006 1234.576660,325.380524 1192.472412,351.261597 
	C1141.658569,382.496521 1066.187744,357.610046 1057.148193,287.934753 
	C1055.132812,272.400818 1056.414062,257.021027 1061.637817,241.712311 
z"/>
<path fill="#FEFEFE" opacity="1.000000" stroke="none" 
	d="
M897.855225,365.022491 
	C870.086914,373.907684 841.741821,361.726593 831.126526,336.605835 
	C819.802002,309.806335 829.914490,277.958649 854.487549,265.700531 
	C873.476929,256.227783 892.790405,256.948120 910.507324,269.032043 
	C928.656677,281.410858 934.922302,299.703705 932.549500,320.949554 
	C930.151245,342.422852 918.333984,357.020691 897.855225,365.022491 
z"/>
<path fill="#FDFDFD" opacity="1.000000" stroke="none" 
	d="
M495.331696,347.293335 
	C472.574554,377.426086 422.106201,374.825287 404.892151,338.322784 
	C390.422882,307.640717 405.884674,270.549042 436.706696,261.838470 
	C459.880096,255.289474 483.296783,263.139221 496.567017,281.904846 
	C509.670013,300.433990 509.249969,327.512512 495.331696,347.293335 
z"/>
</svg>