<?xml version="1.0" encoding="UTF-8"?>
<svg width="32" height="32" viewBox="0 0 24 24" fill="none" xmlns="http://www.w3.org/2000/svg">
  <path d="M23.766 12.2764C23.766 11.4607 23.6999 10.6406 23.5588 9.83807H12.24V14.4591H18.7217C18.4528 15.9494 17.5885 17.2678 16.323 18.1056V21.1039H20.19C22.4608 19.0139 23.766 15.9274 23.766 12.2764Z" fill="#4285F4"/>
  <path d="M12.24 24.0008C15.4764 24.0008 18.2058 22.9382 20.1944 21.1039L16.3274 18.1055C15.2516 18.8375 13.8626 19.252 12.24 19.252C9.07376 19.252 6.39287 17.1399 5.4352 14.3003H1.44141V17.3912C3.50483 21.4434 7.67758 24.0008 12.24 24.0008Z" fill="#34A853"/>
  <path d="M5.43523 14.3003C5.20693 13.5681 5.07764 12.7954 5.07764 12.0008C5.07764 11.2063 5.20693 10.4336 5.43523 9.70132V6.61035H1.44144C0.557865 8.23835 0 10.0716 0 12.0008C0 13.9301 0.557865 15.7633 1.44144 17.3913L5.43523 14.3003Z" fill="#FBBC05"/>
  <path d="M12.24 4.74966C14.0217 4.74966 15.6257 5.36715 16.8581 6.54066L20.2764 3.12234C18.2058 1.18807 15.4764 0 12.24 0C7.67758 0 3.50483 2.55733 1.44141 6.61032L5.43521 9.70129C6.39287 6.86173 9.07376 4.74966 12.24 4.74966Z" fill="#EA4335"/>
</svg> 