<svg width="36" height="36" viewBox="0 0 36 36" fill="none" xmlns="http://www.w3.org/2000/svg">
<g clip-path="url(#clip0_55_364)">
<path d="M12.5411 1.18403C8.94412 2.43184 5.8421 4.80024 3.69067 7.94134C1.53925 11.0824 0.4518 14.8307 0.588069 18.6355C0.724337 22.4403 2.07714 26.1011 4.44776 29.0803C6.81838 32.0594 10.0819 34.1999 13.7589 35.1872C16.7399 35.9564 19.8632 35.9901 22.8601 35.2856C25.5751 34.6758 28.0851 33.3713 30.1445 31.5C32.2879 29.4928 33.8436 26.9394 34.6445 24.1143C35.515 21.0422 35.6699 17.8113 35.0973 14.67H18.3573V21.614H28.052C27.8583 22.7216 27.4431 23.7786 26.8312 24.7219C26.2194 25.6653 25.4236 26.4754 24.4914 27.104C23.3076 27.8871 21.9731 28.414 20.5736 28.6509C19.17 28.9119 17.7303 28.9119 16.3267 28.6509C14.9041 28.3568 13.5584 27.7696 12.3751 26.9268C10.4743 25.5813 9.04704 23.6698 8.29701 21.465C7.5343 19.2189 7.5343 16.7839 8.29701 14.5378C8.8309 12.9634 9.71348 11.5299 10.8789 10.3443C12.2126 8.96269 13.901 7.97508 15.759 7.48987C17.617 7.00465 19.5728 7.04058 21.4117 7.59371C22.8482 8.03469 24.1619 8.80516 25.2479 9.84371C26.3411 8.75621 27.4323 7.6659 28.5217 6.57278C29.0842 5.98496 29.6973 5.42528 30.2514 4.8234C28.5936 3.28068 26.6477 2.08025 24.5251 1.2909C20.6599 -0.112564 16.4307 -0.150281 12.5411 1.18403Z" fill="white"/>
<path d="M12.5411 1.18405C16.4304 -0.151164 20.6596 -0.11444 24.5251 1.28811C26.648 2.08282 28.5931 3.28903 30.2486 4.83749C29.6861 5.43936 29.0926 6.00186 28.5189 6.58686C27.4276 7.67624 26.3373 8.76186 25.2479 9.84374C24.1619 8.80519 22.8482 8.03471 21.4117 7.59374C19.5734 7.03867 17.6177 7.00066 15.7592 7.48389C13.9007 7.96712 12.2112 8.95291 10.8761 10.3331C9.71065 11.5187 8.82807 12.9522 8.29418 14.5266L2.46387 10.0125C4.55077 5.87407 8.1641 2.70849 12.5411 1.18405Z" fill="#E33629"/>
<path d="M0.917101 14.4843C1.23047 12.9312 1.75074 11.4272 2.46398 10.0125L8.29429 14.5378C7.53158 16.7838 7.53158 19.2189 8.29429 21.465C6.35179 22.965 4.40835 24.4725 2.46398 25.9875C0.678463 22.4333 0.133912 18.3839 0.917101 14.4843Z" fill="#F8BD00"/>
<path d="M18.3572 14.6672H35.0972C35.6698 17.8086 35.5149 21.0394 34.6444 24.1116C33.8435 26.9367 32.2877 29.4901 30.1444 31.4972C28.2628 30.0291 26.3728 28.5722 24.4913 27.1041C25.4241 26.4749 26.2203 25.6638 26.8321 24.7195C27.444 23.7752 27.8588 22.717 28.0519 21.6085H18.3572C18.3544 19.2966 18.3572 16.9819 18.3572 14.6672Z" fill="#587DBD"/>
<path d="M2.46094 25.9875C4.40531 24.4875 6.34875 22.98 8.29125 21.465C9.04277 23.6705 10.4721 25.5822 12.375 26.9268C13.5619 27.7657 14.9106 28.3481 16.335 28.6368C17.7386 28.8978 19.1783 28.8978 20.5819 28.6368C21.9814 28.3999 23.3159 27.873 24.4997 27.09C26.3813 28.5581 28.2712 30.015 30.1528 31.4831C28.0938 33.3554 25.5837 34.6609 22.8684 35.2715C19.8715 35.9761 16.7482 35.9423 13.7672 35.1731C11.4095 34.5436 9.20721 33.4338 7.29844 31.9134C5.27811 30.3094 3.628 28.288 2.46094 25.9875Z" fill="#319F43"/>
</g>
<defs>
<clipPath id="clip0_55_364">
<rect width="36" height="36" fill="white"/>
</clipPath>
</defs>
</svg>
