<svg width="40" height="40" viewBox="0 0 40 40" fill="none" xmlns="http://www.w3.org/2000/svg">
<g clip-path="url(#clip0_223_507)">
<path d="M25 10V12.5H33.2324L22.5 23.2324L17.1337 17.8663C17.0177 17.7501 16.88 17.658 16.7283 17.5952C16.5767 17.5323 16.4141 17.5 16.25 17.5C16.0859 17.5 15.9233 17.5323 15.7717 17.5952C15.62 17.658 15.4823 17.7501 15.3663 17.8663L2.5 30.7324L4.26762 32.5L16.25 20.5176L21.6162 25.8838C21.7323 25.9999 21.87 26.092 22.0217 26.1548C22.1733 26.2177 22.3359 26.25 22.5 26.25C22.6641 26.25 22.8267 26.2177 22.9783 26.1548C23.13 26.092 23.2677 25.9999 23.3838 25.8838L35 14.2676V22.5H37.5V10H25Z" fill="#01B7BA"/>
</g>
<defs>
<clipPath id="clip0_223_507">
<rect width="40" height="40" fill="white"/>
</clipPath>
</defs>
</svg>
