<svg width="577" height="577" viewBox="0 0 577 577" fill="none" xmlns="http://www.w3.org/2000/svg">
<path fill-rule="evenodd" clip-rule="evenodd" d="M288.706 108.195C424.56 131.017 519.3 208.557 519.3 332.36C519.3 480.752 401.603 326.569 320.446 413.086C239.289 499.602 66.3823 502.055 58.1113 332.36C50.3686 173.505 152.851 85.3737 288.706 108.195Z" fill="#64FCD9"/>
<path fill-rule="evenodd" clip-rule="evenodd" d="M219.261 348.088L255.199 301.601L256.024 302.254C261.331 306.427 265.54 309.177 268.65 310.504L269.571 310.894C284.512 317.179 294.786 319.314 293.136 320.79L291.091 322.627C277.885 334.549 259.803 351.885 236.845 374.635C233.701 378.022 229.465 380.196 224.888 380.776L220.154 381.342C173.683 386.843 143.87 387.317 132.945 384.898C130.663 384.393 123.641 385.712 118.338 391.038C110.385 399.027 99.0115 418.271 97.1015 418.271C94.3248 418.271 96.9413 405.525 104.951 380.032L105.798 377.07C109.529 364.133 112.214 356.483 113.851 354.122C115.61 351.586 121.55 356.063 131.673 367.555L131.399 369.048C132.712 367.524 134.27 365.903 136.071 364.184L140.853 363.611C157.75 361.56 170.593 359.684 179.383 357.983L180.308 357.802C189.832 355.915 202.816 352.677 219.261 348.088Z" fill="white"/>
<path fill-rule="evenodd" clip-rule="evenodd" d="M443.051 299.927L456.412 309.996C458.977 311.926 460.857 314.632 461.774 317.709L464.305 326.187C465.496 328.751 464.455 331.798 461.943 333.095L457.224 336.597C454.189 338.163 450.489 336.466 449.691 333.142L447.036 323.694C447.036 323.694 435.776 320.273 434.277 306.872L443.051 299.927Z" fill="white"/>
<path fill-rule="evenodd" clip-rule="evenodd" d="M378.646 134.551C387.777 134.922 392.365 147.435 395.35 153.62C396.367 155.727 389.216 217.997 386.878 233.931C382.717 262.308 370.14 271.306 362.244 273.238C362.244 273.238 362.718 305.5 359.411 313.53C352.088 331.31 259.396 319.376 250.337 289.659C244.144 269.344 267.158 266.976 275.795 254.728C291.625 232.28 292.446 211.388 309.498 196.442C315.961 189.36 323.463 182.252 329.934 173.704L332.567 170.24C349.025 148.677 361.559 134.371 377.789 134.529L378.646 134.551Z" fill="white"/>
<path fill-rule="evenodd" clip-rule="evenodd" d="M332.866 188.526C331.354 189.255 329.142 189.482 328.353 188C325.877 183.35 318.302 182.71 315.083 186.88C318.173 185.818 321.773 184.804 324.536 186.549C325.305 187.034 325.969 187.715 326.627 188.389C327.722 189.51 328.798 190.612 330.305 190.76C331.426 190.87 332.494 190.398 333.556 189.929C334.696 189.425 335.83 188.923 337.018 189.147C338.337 189.395 339.262 190.444 340.187 191.494C341.11 192.541 342.032 193.587 343.347 193.841C344.422 194.049 345.502 193.663 346.573 193.281C347.77 192.853 348.955 192.43 350.106 192.845C351.481 193.341 352.109 194.758 352.738 196.176C353.364 197.587 353.99 198.999 355.352 199.507C356.159 199.807 357.03 199.698 357.891 199.531L358.744 199.356C360.756 198.956 362.928 198.92 364.768 199.826C366.348 200.603 367.594 202.214 367.696 203.933C367.737 203.562 367.773 203.191 367.805 202.822L368.124 200.729C366.299 198.589 363.433 197.377 360.625 197.563C360.144 197.595 359.663 197.666 359.182 197.736C358.257 197.871 357.334 198.006 356.416 197.866C355.021 197.654 353.604 196.467 353.84 195.077L353.861 194.927C354.117 192.598 350.996 191.263 348.598 191.459C348.089 191.501 347.567 191.569 347.042 191.637C345.042 191.896 342.997 192.162 341.427 191.013C340.82 190.568 340.352 189.947 339.887 189.331C339.238 188.469 338.597 187.619 337.6 187.284C336.498 186.914 335.377 187.302 334.291 187.818L333.93 187.994L332.866 188.526ZM315.475 204.719C316.515 206.116 318.658 205.333 320.312 204.729L320.398 204.698C324.833 203.08 330.177 204.342 333.419 207.774C335.196 209.656 337.825 209.13 340.548 208.585C342.822 208.13 345.161 207.663 347.122 208.575C348.039 209.002 348.89 209.723 349.724 210.43C351.252 211.726 352.723 212.972 354.436 212.267C357.684 210.928 361.671 211.642 364.28 213.984L364.271 214.722L364.26 216.35C361.667 213.753 357.469 212.912 354.076 214.31C352.363 215.016 350.892 213.769 349.364 212.474C348.53 211.767 347.679 211.045 346.762 210.619C344.801 209.706 342.462 210.174 340.187 210.629C337.465 211.174 334.835 211.699 333.058 209.818C329.882 206.455 324.686 205.175 320.305 206.648L319.43 206.961C317.871 207.514 316.048 208.016 315.114 206.762C312.167 202.807 306.249 201.42 301.851 203.655L302.419 201.508L302.679 201.389C307.021 199.477 312.631 200.902 315.475 204.719ZM305.376 222.359C303.746 223.026 301.635 223.89 300.542 222.534C298.55 220.064 293.998 219.884 286.887 221.994C287.431 222.363 288.833 222.327 290.562 222.282C293.82 222.197 298.237 222.082 300.26 224.59C301.242 225.808 303.043 225.236 304.581 224.623L305.442 224.277C309.763 222.636 315.005 223.716 318.308 226.955C320.156 228.767 322.764 228.14 325.463 227.492C327.718 226.95 330.038 226.393 332.033 227.229C332.965 227.62 333.843 228.308 334.704 228.983C336.28 230.219 337.798 231.408 339.483 230.637L339.717 230.534C341.626 229.729 345.293 231.086 348.617 232.317C351.035 233.212 353.272 234.04 354.518 233.919C346.812 229.386 341.894 227.606 339.764 228.581L339.595 228.652C337.978 229.272 336.509 228.121 334.985 226.927C334.125 226.252 333.247 225.564 332.314 225.173C330.32 224.337 328 224.894 325.745 225.436C323.045 226.084 320.438 226.711 318.59 224.899C315.219 221.594 309.83 220.537 305.461 222.324L305.376 222.359ZM320.482 297.207C322.436 298.461 324.968 300.086 326.777 299.194C329.97 297.619 335.726 299.017 344.043 303.387L344.843 303.812C344.028 303.963 342.198 303.4 339.941 302.706C335.69 301.399 329.925 299.626 326.58 301.276C324.956 302.077 322.749 300.849 320.901 299.682L319.866 299.025C314.985 296.029 308.391 295.018 303.281 296.431C301.642 297.113 299.361 296.315 296.854 295.437C295.149 294.841 293.339 294.207 291.556 293.978C289.359 293.697 288.227 293.866 287.233 294.014C286.236 294.163 285.378 294.292 283.723 293.922C282.444 293.636 280.399 292.741 277.589 291.239C272.608 288.847 263.781 289.137 259.135 290.799L258.884 290.886C253.918 292.528 253.96 290.729 258.953 288.856L259.332 288.717L259.631 288.614C264.938 286.847 274.768 287.04 279.913 290.339L280.014 290.405C281.969 291.659 284.501 293.284 286.309 292.392L286.443 292.332C287.708 291.812 290.667 291.821 291.585 291.882L291.753 291.896C294.842 292.238 295.514 292.518 296.248 293.054L296.774 293.452L297.074 293.567C298.19 294.002 299.374 294.516 300.626 295.11C301.143 295.064 301.739 294.928 302.443 294.676L302.741 294.573C308.049 292.806 315.236 293.841 320.38 297.141L320.482 297.207L320.482 297.207ZM297.486 237.921C298.643 239.277 300.876 238.413 302.6 237.746L302.69 237.711C307.313 235.924 313.013 236.981 316.579 240.285C318.535 242.097 321.293 241.471 324.149 240.822C326.535 240.281 328.989 239.723 331.099 240.56C332.085 240.951 333.014 241.639 333.925 242.313C335.537 243.508 337.09 244.659 338.801 244.039L338.98 243.968C341.234 242.993 346.436 244.772 354.588 249.306C353.271 249.427 350.904 248.599 348.346 247.704C344.83 246.473 340.95 245.115 338.93 245.921L338.682 246.024C336.9 246.795 335.295 245.605 333.627 244.369C332.716 243.695 331.787 243.007 330.801 242.616C328.691 241.779 326.237 242.337 323.851 242.878C320.995 243.527 318.237 244.153 316.282 242.341C312.787 239.103 307.242 238.023 302.671 239.663L301.759 240.01C300.133 240.622 298.227 241.194 297.188 239.977C295.048 237.469 290.375 237.584 286.929 237.668C285.099 237.713 283.615 237.75 283.04 237.381C290.563 235.271 295.378 235.451 297.486 237.921ZM296.313 254.671C294.329 255.338 291.76 256.202 290.429 254.846C288.004 252.376 282.464 252.196 273.808 254.306C274.47 254.675 276.177 254.639 278.282 254.594C282.247 254.509 287.624 254.394 290.086 256.903C291.281 258.12 293.474 257.548 295.345 256.935L296.394 256.589C301.653 254.948 308.033 256.028 312.054 259.267C314.303 261.079 317.477 260.452 320.762 259.804C323.508 259.262 326.331 258.705 328.759 259.541C329.894 259.932 330.963 260.62 332.01 261.295C333.929 262.531 335.776 263.72 337.827 262.949L338.112 262.846C340.436 262.041 344.899 263.398 348.945 264.629C351.889 265.524 354.611 266.352 356.127 266.231C346.748 261.698 340.762 259.918 338.17 260.893L337.963 260.964C335.995 261.584 334.207 260.433 332.353 259.239C331.305 258.564 330.237 257.876 329.101 257.485C326.674 256.649 323.85 257.206 321.105 257.748C317.82 258.396 314.646 259.023 312.396 257.211C308.294 253.906 301.735 252.849 296.416 254.636L296.313 254.671ZM280.908 267.925C282.401 269.281 285.282 268.417 287.507 267.75L287.623 267.715C293.588 265.928 300.943 266.985 305.545 270.289C308.067 272.101 311.627 271.475 315.312 270.826C318.39 270.285 321.557 269.727 324.279 270.564C325.552 270.955 326.751 271.643 327.926 272.317C330.006 273.512 332.01 274.663 334.218 274.043L334.449 273.972C337.356 272.997 344.069 274.776 354.588 279.31C352.888 279.431 349.835 278.603 346.534 277.708C341.997 276.477 336.991 275.119 334.384 275.925L334.065 276.028C331.765 276.799 329.694 275.609 327.541 274.373C326.367 273.699 325.168 273.011 323.895 272.62C321.172 271.783 318.006 272.341 314.927 272.882C311.242 273.531 307.683 274.157 305.16 272.345C300.651 269.107 293.496 268.027 287.598 269.667L286.421 270.014C284.323 270.626 281.863 271.198 280.523 269.981C277.762 267.473 271.732 267.588 267.285 267.672C264.925 267.717 263.01 267.754 262.268 267.385C271.975 265.275 278.188 265.455 280.908 267.925ZM280.583 279.29C278.358 279.957 275.477 280.821 273.984 279.465C271.264 276.995 265.051 276.815 255.344 278.925C256.086 279.294 258.001 279.257 260.361 279.212C264.808 279.128 270.838 279.013 273.599 281.521C274.939 282.738 277.399 282.166 279.497 281.554L280.674 281.207C286.191 279.673 292.808 280.519 297.331 283.285C298.718 284.393 301.131 284.254 303.783 284.102H303.783H303.783C305.587 283.998 307.501 283.888 309.278 284.16C311.468 284.494 312.509 284.969 313.423 285.386C314.341 285.804 315.13 286.164 316.823 286.264C318.786 286.381 323.459 285.376 323.459 285.376C328.906 284.45 337.311 287.162 341.319 290.04L341.536 290.192C345.964 293.212 346.334 291.31 341.703 287.984L341.445 287.803C336.83 284.641 327.328 282.117 321.473 283.871L321.358 283.906C319.133 284.573 316.251 285.437 314.759 284.081C313.718 283.136 310.317 282.215 309.662 282.104C306.197 281.513 305.727 281.698 304.675 282.111C304.59 282.145 304.502 282.179 304.408 282.215L304.087 282.244C302.894 282.354 301.614 282.522 300.247 282.748C299.763 282.56 299.228 282.265 298.621 281.829L298.362 281.648C293.747 278.486 286.553 277.501 280.699 279.255L280.583 279.29Z" fill="#FFB61D"/>
<path fill-rule="evenodd" clip-rule="evenodd" d="M375.701 143.918C388.681 143.963 398.924 154.974 398.049 167.938C398.049 167.938 382.913 233.784 390.585 257.189C393.553 266.243 436.403 294.419 434.592 297.313L428.545 311.801C426.396 315.231 360.628 271.237 360.628 271.237C354.318 266.228 353.145 166.643 353.145 166.643C353.02 154.101 363.17 143.874 375.701 143.918Z" fill="white"/>
<path d="M443.827 299.927L436.098 315.843L435.944 316.268C435.301 317.917 432.842 318.926 432.527 319.007L432.48 319.007L427.916 316.306C427.393 315.867 427.107 313.402 427.659 311.111L427.789 310.629C427.789 310.629 431.408 297.918 434.405 294.708C436.153 292.836 446.248 294.708 443.827 299.927Z" fill="white"/>
<path fill-rule="evenodd" clip-rule="evenodd" d="M333.72 446.699H315.268C315.268 446.699 336.924 390.476 336.924 375.722C336.924 371.145 319.901 378.04 322.371 371.145C325.766 361.665 337.516 344.712 334.622 336.201C331.596 327.301 320.307 324.077 310.475 320.47C308.591 319.779 342.956 322.165 352.382 314.667C364.816 304.777 354.721 282.934 358.06 290.636C362.089 299.928 388.267 323.238 383.078 348.481C378.023 373.073 333.72 446.699 333.72 446.699Z" fill="white"/>
<path fill-rule="evenodd" clip-rule="evenodd" d="M327.324 457.54L325.408 456.904C325.325 456.877 325.315 456.763 325.392 456.722L327.222 455.728V453.451C327.222 453.365 327.323 453.319 327.388 453.376L328.901 454.705L331.408 453.385C331.495 453.339 331.589 453.434 331.542 453.521L330.121 456.114L332.827 458.942C332.897 459.016 332.825 459.135 332.727 459.107L328.999 458.032L327.511 460.654C327.46 460.744 327.324 460.708 327.324 460.605V459.262V457.54Z" fill="#FFB61D"/>
<path fill-rule="evenodd" clip-rule="evenodd" d="M278.159 335.975C278.951 335.133 279.744 334.29 280.546 333.457C283.725 330.157 286.916 326.869 290.256 323.575C290.356 323.489 290.457 323.404 290.557 323.319C290.634 323.254 290.711 323.189 290.787 323.125C291.674 322.378 292.52 321.665 293.136 320.79C294.539 318.796 296.344 318.693 298.411 319.284C298.553 319.324 298.694 319.369 298.835 319.414L298.835 319.414C299.012 319.47 299.188 319.526 299.366 319.574C300.273 319.816 301.187 320.04 302.101 320.264L302.101 320.264L302.102 320.264L302.102 320.264L302.103 320.264L302.104 320.264C304.115 320.757 306.126 321.249 308.068 321.938C311.266 323.071 314.402 324.383 317.537 325.694L317.542 325.696L317.548 325.699L317.553 325.701L317.559 325.703C318.347 326.033 319.135 326.363 319.924 326.689C320.971 327.123 322.003 327.593 323.034 328.064L323.035 328.064L323.035 328.064L323.036 328.064L323.036 328.064C324.029 328.517 325.021 328.969 326.027 329.389C328.013 330.218 329.155 331.802 330.313 333.409C330.701 333.947 331.09 334.487 331.514 335.003C333.444 337.351 334.135 339.869 334.158 342.675C334.188 346.381 333.097 349.856 332.002 353.343C331.821 353.921 331.639 354.499 331.463 355.079C329.778 360.611 327.583 365.855 324.047 370.459C323.454 371.232 323.105 371.845 323.775 372.687C324.432 373.511 325.129 373.609 326.121 373.136C330.644 370.977 335.423 370.92 340.273 371.565C340.306 371.569 340.338 371.573 340.369 371.576C340.385 371.577 340.401 371.579 340.417 371.58C340.43 371.581 340.443 371.582 340.456 371.584L340.497 371.587C340.86 371.615 341.005 371.627 340.747 372.292C339.597 375.254 338.578 378.268 337.574 381.284C337.1 382.709 336.655 384.145 336.211 385.582C335.433 388.098 334.654 390.614 333.715 393.069C332.398 396.512 330.972 399.913 329.545 403.314L329.545 403.315L329.544 403.315L329.544 403.316L329.544 403.317C328.625 405.506 327.707 407.696 326.818 409.897C326.557 410.541 326.279 411.185 326.001 411.83L326.001 411.831L326.001 411.832C325.103 413.912 324.2 416.005 323.854 418.177C323.527 420.235 322.907 422.192 322.288 424.146L322.288 424.147C321.79 425.719 321.293 427.291 320.948 428.911C320.199 432.44 319.037 435.893 317.869 439.316C317.139 441.452 316.187 443.54 315.077 445.503C314.847 445.91 314.365 446.163 313.876 446.419C313.436 446.649 312.99 446.883 312.715 447.235C308.908 452.119 306.732 457.681 306.594 463.891C306.566 465.184 306.797 466.479 307.028 467.777C307.186 468.661 307.344 469.547 307.42 470.434C307.495 471.305 307.567 471.603 308.559 471.602C317.066 471.587 325.574 471.583 334.081 471.578H334.113C347.611 471.57 361.108 471.563 374.606 471.517C375.654 471.514 376.972 470.954 377.693 470.202C379.603 468.209 379.396 465.634 378.693 463.235C377.594 459.487 375.532 456.465 371.425 455.503C370.602 455.311 369.766 455.176 368.93 455.042H368.93C368.187 454.922 367.443 454.802 366.708 454.642L366.332 454.559C359.042 452.966 351.752 451.372 344.478 449.71C341.825 449.104 339.15 448.328 337.428 446.007C335.84 443.866 335.443 442.783 336.815 440.458C338.464 437.665 340.066 434.842 341.594 431.981C342.67 429.967 343.713 427.936 344.757 425.904L344.758 425.902C345.734 424.001 346.71 422.101 347.712 420.214C348.811 418.149 349.934 416.097 351.058 414.045L351.063 414.036C352.225 411.913 353.387 409.791 354.522 407.653C354.78 407.166 355.039 406.678 355.299 406.191L355.301 406.187L355.303 406.183C357.119 402.77 358.936 399.354 360.571 395.855C361.706 393.425 362.704 390.932 363.703 388.438L363.703 388.438L363.703 388.438L363.703 388.438L363.703 388.437C364.202 387.192 364.701 385.946 365.217 384.708C366.638 381.298 368.077 377.894 369.522 374.495C370.375 372.489 371.238 370.488 372.13 368.5C372.641 367.362 373.177 366.233 373.712 365.104L373.713 365.104L373.713 365.103L373.713 365.103C374.825 362.759 375.937 360.416 376.827 357.99C377.938 354.966 378.703 351.806 379.464 348.661L379.529 348.393C379.589 348.145 379.649 347.896 379.709 347.648C380.935 342.612 381.493 337.522 380.254 332.39C380.1 331.756 379.856 331.143 379.611 330.531C379.52 330.303 379.43 330.076 379.344 329.847C379.155 329.346 378.988 328.832 378.821 328.317C378.441 327.145 378.061 325.972 377.424 324.962C376.169 322.97 374.803 321.048 373.437 319.125L373.437 319.124C372.532 317.85 371.627 316.576 370.754 315.282C367.57 310.561 364.418 305.819 361.33 301.036C361.161 300.775 360.984 300.516 360.807 300.256C359.931 298.975 359.043 297.675 359.068 295.979C359.147 290.661 359.221 285.344 359.296 280.027C359.323 278.105 359.35 276.183 359.377 274.261C359.377 274.252 359.377 274.244 359.377 274.235L359.377 274.203C359.376 274.171 359.375 274.139 359.378 274.107C359.48 272.733 359.856 272.514 361.138 273.12C361.568 273.323 361.986 273.56 362.382 273.823C363.372 274.482 364.359 275.145 365.346 275.809C366.762 276.761 368.178 277.713 369.604 278.65C370.842 279.463 372.079 280.277 373.317 281.091L373.362 281.121L373.408 281.151C379.907 285.425 386.405 289.698 392.929 293.934L393.331 294.195L394.135 294.718L394.156 294.731L394.176 294.745L394.177 294.745L394.177 294.745L394.178 294.745L394.178 294.746C398.312 297.433 402.449 300.122 406.696 302.621C410.101 304.625 413.563 306.53 417.026 308.435L417.03 308.437L417.031 308.438L417.032 308.438L417.033 308.439C419.119 309.586 421.205 310.734 423.278 311.903C423.967 312.292 424.908 312.854 425.053 313.491C425.836 316.935 428.19 318.946 431.072 320.477C432.953 321.476 434.976 320.838 436.196 319.103C436.934 318.053 437.774 317.491 438.988 318.523C439.535 318.988 440.162 319.373 440.792 319.723C443.107 321.011 445.109 322.607 446.321 325.047C446.523 325.453 446.707 325.878 446.891 326.303C447.365 327.395 447.84 328.492 448.618 329.288C449.698 330.393 450.083 331.707 450.468 333.018C450.599 333.467 450.731 333.915 450.89 334.354C451.276 335.42 451.554 336.523 451.832 337.628C452.033 338.425 452.234 339.223 452.476 340.007C452.941 341.515 454.458 341.934 455.585 340.86C455.878 340.582 456.047 340.174 456.216 339.767C456.292 339.586 456.367 339.404 456.453 339.235C456.52 339.103 456.582 338.969 456.644 338.835C456.673 338.774 456.701 338.713 456.73 338.652C456.769 338.704 456.807 338.756 456.845 338.809C456.931 338.927 457.016 339.045 457.113 339.153L457.162 339.209C457.316 339.382 457.473 339.559 457.657 339.694C457.845 339.833 458.036 340.002 458.228 340.172L458.228 340.172C458.706 340.595 459.189 341.022 459.647 341C460.245 340.971 461.107 340.085 461.305 339.414C461.601 338.412 461.716 337.357 461.831 336.302C461.878 335.873 461.924 335.445 461.983 335.02C462.01 334.824 462.028 334.628 462.05 334.432C462.067 334.442 462.084 334.451 462.101 334.461C462.131 334.477 462.163 334.493 462.194 334.509C462.299 334.562 462.405 334.615 462.48 334.697C463.396 335.689 464.347 335.542 464.981 334.516C465.57 333.563 466.211 332.428 466.215 331.371C466.226 328.842 466.049 326.28 465.613 323.791C465.29 321.943 464.729 320.01 463.757 318.435C463.405 317.865 463.085 317.271 462.765 316.675C461.892 315.053 461.014 313.421 459.466 312.235C458.714 311.659 458.031 310.992 457.349 310.325C456.668 309.66 455.988 308.994 455.238 308.419C454.502 307.855 453.656 307.436 452.809 307.017L452.809 307.017C452.369 306.799 451.928 306.58 451.502 306.341C449.506 305.221 447.511 304.098 445.539 302.935C445.404 302.855 445.251 302.77 445.09 302.682C444.421 302.312 443.638 301.88 443.653 301.517C443.7 300.359 443.151 299.529 442.608 298.708C442.309 298.257 442.012 297.809 441.818 297.31C440.847 294.822 438.8 294.492 436.212 295.366C435.894 295.473 435.585 295.635 435.276 295.797C434.378 296.267 433.475 296.74 432.311 295.9C431.342 295.201 430.324 294.57 429.306 293.94L429.306 293.939L429.305 293.939L429.305 293.939L429.304 293.938L429.304 293.938C428.319 293.328 427.334 292.718 426.393 292.046C424.395 290.618 422.482 289.064 420.596 287.488C419.216 286.336 417.857 285.157 416.498 283.979L416.496 283.978C415.152 282.813 413.808 281.648 412.443 280.507C410.923 279.236 409.388 277.982 407.853 276.728L407.847 276.724L407.846 276.723L407.845 276.722L407.844 276.721L407.843 276.721C405.819 275.067 403.795 273.414 401.805 271.721C401.195 271.202 400.673 270.583 400.15 269.962C399.729 269.462 399.308 268.962 398.84 268.513C398.157 267.859 397.44 267.237 396.724 266.616L396.723 266.615C395.699 265.727 394.675 264.839 393.752 263.856C391.979 261.967 390.191 259.952 389.609 257.345C388.899 254.171 388.286 250.949 388 247.715C387.714 244.473 387.692 241.205 387.67 237.943V237.943V237.943V237.942V237.942C387.667 237.449 387.664 236.956 387.659 236.463C387.649 235.227 387.713 233.992 387.777 232.756L387.777 232.754C387.828 231.783 387.878 230.811 387.892 229.84C387.911 228.553 387.897 227.265 387.883 225.977C387.858 223.648 387.832 221.319 388.001 219.004C388.271 215.301 388.735 211.577 389.539 207.958C390.478 203.73 391.639 199.552 392.799 195.374C393.097 194.3 393.396 193.226 393.69 192.151C393.944 191.223 394.255 190.31 394.565 189.398L394.565 189.397C394.945 188.282 395.324 187.167 395.6 186.027C396.196 183.563 396.695 181.075 397.194 178.587C397.359 177.765 397.524 176.943 397.692 176.122C397.851 175.348 398.026 174.576 398.202 173.803C398.638 171.884 399.074 169.963 399.252 168.02C399.419 166.203 399.383 164.369 399.348 162.533V162.532V162.531V162.529V162.528C399.325 161.368 399.303 160.207 399.331 159.05C399.389 156.712 398.646 154.586 397.9 152.449L397.9 152.448C397.848 152.302 397.797 152.155 397.746 152.008L397.683 151.827C397.145 150.283 396.639 148.834 397.419 147.071C398.831 143.877 400.579 140.984 402.984 138.437C403.657 137.724 403.913 137.872 404.42 138.382C404.761 138.726 405.086 139.104 405.411 139.482L405.411 139.483L405.412 139.483C406.139 140.329 406.866 141.176 407.785 141.647C411.02 143.306 414.371 144.806 417.809 145.977C420.837 147.009 424.094 146.97 427.23 146.314C430.89 145.548 433.412 143.209 435.323 140.029C436.379 138.272 437.161 136.511 437.09 134.453C437.071 133.919 437.015 133.383 436.958 132.847L436.958 132.847V132.846V132.846V132.846V132.845C436.866 131.984 436.775 131.125 436.844 130.277C436.934 129.168 437.321 128.005 437.875 127.038C438.12 126.61 438.55 126.297 438.984 125.98C439.293 125.754 439.605 125.527 439.855 125.255C441.315 123.669 441.926 121.758 441.055 119.74C439.772 116.765 439.119 113.689 439.287 110.49C439.346 109.375 439.526 108.266 439.707 107.156L439.707 107.156C439.898 105.985 440.088 104.815 440.135 103.639C440.329 98.7914 440.182 93.9631 438.196 89.3831C438.002 88.9362 438.223 87.89 438.573 87.6924C441.208 86.2041 443.54 84.4305 445.544 82.1099C448.008 79.2565 448.293 76.0381 447.763 72.5733C447.327 69.7277 446.058 67.2384 444.492 64.851C443.1 62.731 441.639 60.8757 438.798 60.7803C437.947 60.7517 437.859 61.1485 437.734 61.7146L437.734 61.7161C437.723 61.7646 437.712 61.8143 437.7 61.8652C437.652 62.0745 437.604 62.2849 437.557 62.4957L437.556 62.5019C437.071 64.6606 436.579 66.8545 434.661 68.269C433.731 68.9543 432.802 69.5926 431.429 69.6643C431.092 69.682 429.484 69.7198 427.214 69.7731C420.256 69.9367 407.082 70.2463 405.205 70.57C400.123 71.4465 393.84 72.5647 390.047 76.1188C385.641 80.2468 381.561 84.6425 379.383 90.4548C379.204 90.932 379.017 91.4066 378.83 91.8808C377.805 94.4785 376.784 97.066 377.175 100.011C377.285 100.839 377.321 101.676 377.357 102.514C377.391 103.33 377.426 104.146 377.53 104.954C377.675 106.083 377.992 107.211 378.383 108.285C378.561 108.775 378.739 109.265 378.916 109.755L378.93 109.794L378.946 109.837L378.946 109.838L378.946 109.839L378.947 109.839L378.947 109.84C380.194 113.28 381.442 116.722 382.841 120.1C383.259 121.111 383.382 122.156 383.506 123.212C383.615 124.146 383.726 125.087 384.043 126.02C384.566 127.563 384.266 129.388 383.965 131.211C383.836 131.994 383.707 132.777 383.644 133.537C383.577 134.332 383.389 134.472 382.682 133.877C378.954 130.738 374.337 130.688 369.895 130.779C367.79 130.822 365.652 131.74 363.613 132.616L363.61 132.617C363.356 132.727 363.102 132.835 362.851 132.942C361.784 133.393 360.802 134.04 359.817 134.689C359.193 135.1 358.567 135.512 357.918 135.875C353.664 138.256 349.745 141.114 346.324 144.56C344.018 146.883 341.839 149.332 339.659 151.781L339.659 151.781L339.659 151.782L339.658 151.782L339.658 151.782C338.73 152.825 337.802 153.867 336.865 154.9C336.809 154.961 336.77 155.037 336.731 155.113L336.73 155.114C336.72 155.134 336.71 155.153 336.7 155.173C336.682 155.206 336.664 155.238 336.643 155.268C336.052 156.129 335.474 157 334.896 157.871C333.598 159.826 332.299 161.782 330.859 163.626C327.237 168.265 323.548 172.863 319.672 177.289C316.363 181.066 312.941 184.744 309.519 188.421L309.518 188.422L309.514 188.427C308.128 189.917 306.742 191.407 305.363 192.903C304.645 193.682 303.905 194.442 303.156 195.191C302.731 195.616 302.298 196.033 301.865 196.45C301.449 196.85 301.034 197.25 300.626 197.657C300.299 197.983 299.952 198.298 299.605 198.613L299.605 198.613L299.605 198.613L299.605 198.613L299.605 198.613C298.777 199.366 297.947 200.12 297.375 201.034C296.575 202.314 295.917 203.682 295.258 205.05L295.258 205.051L295.258 205.051L295.258 205.051L295.257 205.051C294.823 205.955 294.388 206.858 293.912 207.738C293.468 208.557 292.975 209.351 292.482 210.144C291.811 211.224 291.14 212.302 290.596 213.443C289.908 214.885 289.3 216.367 288.692 217.848L288.692 217.848L288.691 217.848L288.691 217.849L288.691 217.849C288.003 219.525 287.314 221.201 286.511 222.82C283.723 228.441 280.925 234.071 277.807 239.511C277.463 240.111 277.12 240.713 276.777 241.316C273.552 246.983 270.314 252.671 265.668 257.372C265.57 257.471 265.471 257.571 265.373 257.671C264.341 258.72 263.283 259.796 262.046 260.534C260.446 261.491 258.802 262.376 257.159 263.262C254.941 264.457 252.724 265.651 250.617 267.017C247.201 269.232 244.68 272.317 243.475 276.388C242.614 279.298 242.346 282.238 243.011 285.126C243.505 287.27 244.381 289.339 245.249 291.387C245.363 291.657 245.478 291.927 245.591 292.197C246.672 294.77 248.669 296.648 250.647 298.508C250.846 298.694 251.044 298.881 251.242 299.068C251.999 299.786 251.792 300.292 251.291 300.899C250.998 301.253 250.664 301.579 250.316 301.88C249.628 302.475 248.924 303.056 248.221 303.636L248.221 303.636L248.22 303.637L248.22 303.637L248.22 303.637C246.73 304.867 245.241 306.096 243.892 307.464C241.417 309.974 239.135 312.68 236.859 315.378L236.859 315.378L236.729 315.532C235.737 316.709 234.92 318.045 234.117 319.365C233.774 319.929 233.475 320.52 233.176 321.111C232.786 321.884 232.395 322.656 231.908 323.363C229.619 326.688 227.268 329.972 224.851 333.203C224.384 333.827 223.834 334.398 223.287 334.966C222.508 335.774 221.734 336.579 221.205 337.527C220.107 339.496 218.795 340.783 216.608 341.467C215.682 341.757 214.77 342.089 213.859 342.421C211.59 343.248 209.324 344.074 206.837 344.241C204.991 344.365 203.148 344.907 201.36 345.447C199.015 346.156 198.384 348.815 200.229 350.416C201.05 351.128 202.014 351.674 202.978 352.22L202.979 352.221L202.979 352.221L202.979 352.221L202.979 352.221L202.98 352.221C203.402 352.46 203.824 352.699 204.233 352.952C204.367 353.034 204.506 353.106 204.646 353.178L204.647 353.179L204.694 353.203C204.743 353.228 204.792 353.254 204.84 353.28L204.764 353.299L204.664 353.325L204.663 353.325L204.555 353.353L204.451 353.379C204.396 353.393 204.34 353.407 204.284 353.421C203.101 353.707 201.919 353.995 200.737 354.282C197.918 354.969 195.099 355.655 192.274 356.319L191.888 356.41L191.309 356.547L191.307 356.548C188.638 357.177 185.968 357.808 183.276 358.324C181.172 358.728 179.054 359.059 176.936 359.391L176.934 359.391L176.933 359.391L176.932 359.391L176.931 359.392L176.93 359.392C175.832 359.563 174.735 359.735 173.639 359.917C172.287 360.141 170.937 360.377 169.587 360.612L169.577 360.613L169.576 360.614L169.575 360.614L169.574 360.614L169.573 360.614C166.718 361.112 163.864 361.609 160.995 362.004C159.418 362.22 157.824 362.313 156.23 362.406L156.229 362.406C155.035 362.475 153.841 362.545 152.654 362.667C150.926 362.844 149.188 362.857 147.45 362.871C144.751 362.893 142.051 362.914 139.384 363.547C138.185 363.832 136.958 363.994 135.731 364.156L135.73 364.156L135.73 364.156L135.73 364.156L135.729 364.156L135.728 364.156C134.924 364.262 134.12 364.369 133.323 364.509C131.67 364.801 130.36 364.36 129.61 363.136C126.779 358.518 122.922 355.049 117.91 352.992C115.259 351.904 112.469 351.192 109.562 351.309C109.16 351.325 108.569 351.821 108.426 352.224C107.99 353.453 107.609 354.702 107.227 355.951C106.998 356.704 106.768 357.458 106.526 358.207C106.017 359.78 105.51 361.353 105.003 362.926C103.207 368.498 101.41 374.071 99.5705 379.629C96.9364 387.586 94.2791 395.535 91.6218 403.485L91.6212 403.487L91.621 403.487C90.3494 407.291 89.0778 411.095 87.8087 414.9C87.374 416.204 88.3567 419.498 89.5757 419.817C90.1983 419.981 90.8076 420.192 91.4175 420.403L91.4177 420.403L91.4179 420.403L91.4181 420.403L91.4184 420.403C93.0647 420.974 94.715 421.546 96.6415 421.178C100.518 420.438 103.219 418.439 105.02 415C105.266 414.531 105.511 414.061 105.756 413.591C107.118 410.977 108.482 408.36 110.011 405.845C111.166 403.946 112.401 402.096 113.637 400.246C114.785 398.527 115.933 396.808 117.017 395.05C119.056 391.739 121.121 388.507 124.493 386.359L124.678 386.241C127.247 384.603 129.782 382.986 133.058 384.471C133.649 384.738 134.371 384.764 135.051 384.788L135.223 384.794C138.559 384.922 141.896 385.038 145.233 385.107C151.181 385.231 175.003 385.231 182.206 384.186C189.409 383.14 200.237 381.419 202.127 381.09C205.164 380.561 208.208 380.01 211.19 379.238C216.047 377.98 220.873 376.594 225.675 375.139C226.371 374.927 227.033 374.572 227.692 374.219C228.52 373.775 229.342 373.334 230.221 373.184C233.299 372.66 235.694 370.961 238.09 369.262L238.098 369.256C238.344 369.082 238.59 368.907 238.837 368.734C243.535 365.437 248.212 362.102 252.779 358.627C256.815 355.556 260.761 352.357 264.612 349.056C267.717 346.395 270.671 343.551 273.596 340.69C275.159 339.162 276.659 337.568 278.159 335.975ZM356.713 275.368L356.713 275.369C356.568 276.095 356.423 276.822 356.322 277.554C356.194 278.475 356.137 279.406 356.08 280.337L356.08 280.338C356.055 280.751 356.029 281.164 355.998 281.576C355.942 282.852 355.893 284.107 355.845 285.344L355.845 285.348L355.845 285.352L355.844 285.358C355.716 288.657 355.592 291.837 355.355 295.009C355.097 298.453 354.644 301.884 354.191 305.309L354.136 305.729C353.921 307.352 353.662 309.002 353.141 310.543C352.245 313.191 349.975 314.391 347.523 315.263C343.873 316.56 340.168 317.588 336.257 317.742C334.818 317.798 333.38 317.898 331.942 317.998L331.941 317.998C329.675 318.155 327.41 318.313 325.145 318.3C320.11 318.273 315.066 318.064 310.044 317.69C307.774 317.52 305.513 317.223 303.252 316.925L303.251 316.925H303.251C301.223 316.658 299.195 316.391 297.16 316.216C289.376 315.549 281.975 313.26 274.616 310.904C268.89 309.07 263.584 306.217 259.017 302.24C254.902 298.656 250.872 294.894 248.326 289.973C246.257 285.975 245.499 281.618 246.981 277.232C248.187 273.659 250.642 270.947 253.744 268.798C254.701 268.135 255.66 267.475 256.62 266.815L256.621 266.814L256.621 266.814L256.622 266.814L256.622 266.813C260.299 264.285 263.976 261.757 267.509 259.04C270.22 256.956 272.144 254.094 274.067 251.234L274.331 250.842C277.922 245.509 280.897 239.86 283.6 234.06C285.267 230.482 286.885 226.881 288.503 223.28L288.504 223.278C290.304 219.272 292.104 215.266 293.972 211.292C295.998 206.982 298.853 203.165 301.884 199.506C302.279 199.029 302.77 198.633 303.262 198.237C303.672 197.906 304.083 197.574 304.44 197.195C308.627 192.74 312.814 188.284 316.928 183.762C319.923 180.472 322.874 177.137 325.717 173.715C327.284 171.829 328.782 169.883 330.279 167.938L330.279 167.938L330.279 167.937L330.28 167.937L330.28 167.936C331.27 166.65 332.261 165.363 333.272 164.093C335.58 161.193 337.934 158.328 340.294 155.469C340.592 155.108 340.889 154.745 341.186 154.383L341.192 154.377L341.192 154.376C342.565 152.703 343.939 151.028 345.416 149.451C347.004 147.755 348.746 146.196 350.49 144.656C352.233 143.115 354.026 141.624 355.861 140.195C358.998 137.753 362.48 136.016 366.415 135.269C367.109 135.138 367.8 134.993 368.492 134.849C369.93 134.55 371.368 134.25 372.821 134.063C376.825 133.548 380.208 135.152 383.435 137.342C389.03 141.138 392.263 146.471 394.128 152.866C395.376 157.146 396.615 161.434 396.774 165.884C396.818 167.116 396.503 168.353 396.187 169.597C395.972 170.443 395.756 171.291 395.652 172.143C395.173 176.051 394.045 179.788 392.918 183.524C392.468 185.017 392.017 186.509 391.608 188.012C391.04 190.101 390.397 192.171 389.754 194.24L389.754 194.241C388.941 196.857 388.128 199.472 387.467 202.126C386.709 205.169 386.249 208.291 385.79 211.406V211.406C385.697 212.043 385.603 212.68 385.507 213.316C385.014 216.569 384.643 219.841 384.278 223.112C384.203 223.783 384.223 224.466 384.243 225.148C384.252 225.461 384.261 225.774 384.261 226.085C384.261 227.412 384.248 228.74 384.235 230.067C384.206 233.151 384.176 236.235 384.306 239.312C384.403 241.591 384.689 243.861 384.976 246.131C385.116 247.242 385.256 248.353 385.374 249.465C385.418 249.876 385.472 250.288 385.527 250.701C385.677 251.841 385.828 252.984 385.752 254.109C385.627 255.949 386.468 257.35 387.309 258.75C387.599 259.233 387.889 259.715 388.139 260.216C389.967 263.871 392.861 266.638 395.742 269.392C396.219 269.848 396.696 270.304 397.167 270.763C400.554 274.063 404.012 277.311 407.651 280.324C411.559 283.562 415.579 286.665 419.599 289.768C420.791 290.688 421.983 291.608 423.172 292.532C424.511 293.572 425.904 294.553 427.338 295.458C428.109 295.944 428.966 296.302 429.815 296.656C429.93 296.704 430.044 296.752 430.158 296.8C432.19 297.655 432.396 298.108 430.933 299.614C428.994 301.61 427.857 304.003 426.958 306.566C426.911 306.7 426.865 306.835 426.819 306.97L426.819 306.97C426.588 307.646 426.356 308.327 425.998 308.929C425.846 309.183 425.112 309.343 424.793 309.203C424.244 308.963 423.693 308.726 423.141 308.489C420.991 307.566 418.838 306.64 416.806 305.501C412.533 303.103 408.355 300.53 404.181 297.959L403.752 297.694C401.475 296.292 399.225 294.845 396.975 293.398L396.97 293.394L396.965 293.391L396.959 293.388C395.698 292.577 394.437 291.765 393.171 290.962C391.848 290.123 390.517 289.297 389.185 288.471L389.184 288.47C386.435 286.764 383.686 285.059 381.015 283.238C378.026 281.201 375.117 279.045 372.208 276.889L372.207 276.889C371.048 276.03 369.888 275.17 368.724 274.319C368.168 273.912 367.601 273.516 367.035 273.12L367.034 273.119L367.033 273.118L367.032 273.117L367.031 273.117C365.595 272.112 364.157 271.107 362.882 269.926C361.136 268.309 359.922 266.267 359.663 263.745C359.459 261.759 359.187 259.781 358.914 257.803C358.758 256.672 358.602 255.54 358.459 254.407C358.357 253.599 358.252 252.792 358.146 251.985L358.146 251.981L358.145 251.977C357.812 249.421 357.479 246.866 357.25 244.301C356.939 240.806 356.716 237.297 356.633 233.79C356.522 229.087 356.464 224.383 356.406 219.68C356.375 217.093 356.343 214.507 356.302 211.92C356.241 208.01 356.166 204.101 356.091 200.191V200.191V200.191V200.19V200.19C356.059 198.554 356.028 196.917 355.998 195.281L355.963 193.415C355.873 188.542 355.783 183.668 355.686 178.795C355.682 178.561 355.649 178.327 355.616 178.094C355.607 178.03 355.598 177.966 355.59 177.903C355.584 177.858 355.578 177.812 355.573 177.767C355.553 177.865 355.532 177.962 355.511 178.06C355.465 178.27 355.419 178.481 355.385 178.694L355.289 179.298L355.163 180.08L355.127 180.305L355.091 180.53C354.673 183.141 354.255 185.751 353.854 188.364C353.711 189.289 353.591 190.224 353.549 191.159C353.52 191.797 353.491 192.435 353.463 193.073L353.462 193.077L353.462 193.082L353.462 193.087C353.266 197.435 353.069 201.783 352.96 206.133C352.943 206.789 353.092 207.447 353.241 208.108C353.351 208.595 353.462 209.084 353.506 209.574C353.547 210.019 353.437 210.481 353.327 210.939C353.307 211.025 353.286 211.111 353.267 211.196C353.248 211.276 353.231 211.356 353.216 211.435C353.187 211.581 353.138 211.726 353.089 211.87C353.012 212.096 352.935 212.32 352.94 212.544C352.95 213.043 352.959 213.542 352.969 214.041C353.038 217.602 353.107 221.164 353.246 224.723C353.391 228.434 353.614 232.144 353.855 235.851C353.889 236.371 353.922 236.891 353.956 237.411C354.194 241.125 354.433 244.84 354.791 248.542C355.203 252.801 355.737 257.049 356.331 261.286C356.444 262.092 356.659 262.887 356.874 263.68C357.139 264.659 357.404 265.636 357.475 266.63C357.612 268.549 357.401 270.506 357.193 272.435L357.193 272.435L357.166 272.687C357.07 273.586 356.892 274.475 356.714 275.366L356.714 275.366L356.714 275.367L356.713 275.368L356.713 275.368ZM226.944 371.114C226.76 371.198 226.386 371.102 226.222 370.954C225.099 369.94 223.992 368.907 222.885 367.875C222.558 367.57 222.23 367.264 221.903 366.959L221.623 366.598C220.312 364.907 219.107 363.354 217.956 361.762C217.676 361.376 217.388 360.992 217.101 360.608L217.1 360.607C216.163 359.355 215.223 358.099 214.524 356.723C213.446 354.602 211.629 353.376 209.779 352.237C209.399 352.003 209.027 351.747 208.652 351.489C207.249 350.524 205.822 349.541 203.911 349.677C203.723 349.691 203.512 349.373 203.301 349.055C203.203 348.908 203.105 348.76 203.009 348.646C203.098 348.591 203.184 348.526 203.27 348.462C203.456 348.323 203.642 348.184 203.848 348.137C204.663 347.954 205.483 347.795 206.304 347.635C207.801 347.344 209.298 347.053 210.753 346.62C211.119 346.511 211.487 346.403 211.855 346.295C215.814 345.136 219.823 343.963 222.766 340.81C225.758 337.603 228.626 334.312 230.475 330.182C231.304 328.33 232.515 326.648 233.724 324.968L233.725 324.966L233.726 324.966C234.218 324.281 234.711 323.597 235.178 322.902C235.591 322.286 235.994 321.662 236.398 321.038L236.398 321.038C237.496 319.34 238.595 317.641 239.887 316.105C241.885 313.729 244.148 311.559 246.429 309.442C246.913 308.993 247.409 308.554 247.904 308.116C250.077 306.194 252.241 304.279 253.404 301.469C253.436 301.393 253.725 301.323 253.787 301.376C257.814 304.803 262.319 307.505 267.183 309.472C272.493 311.62 277.927 313.47 283.353 315.317L283.353 315.317L284.021 315.545C285.332 315.992 286.684 316.32 288.035 316.648C289.101 316.907 290.167 317.167 291.214 317.484C291.464 317.559 291.736 318.757 291.518 318.997C289.672 321.031 287.766 323.012 285.86 324.993L285.86 324.994C285.335 325.539 284.81 326.085 284.286 326.632C283.556 327.393 282.828 328.156 282.1 328.919C280.419 330.679 278.739 332.44 277.042 334.185C276.787 334.448 276.531 334.712 276.276 334.976L276.125 335.133L276.116 335.141C274.692 336.616 273.266 338.092 271.75 339.468C270.777 340.351 269.808 341.241 268.84 342.13L268.831 342.138L268.831 342.139C263.845 346.718 258.861 351.297 253.176 355.057C250.569 356.781 248.002 358.566 245.435 360.351L245.433 360.352C242.162 362.626 238.892 364.901 235.54 367.048C233.662 368.251 231.577 369.131 229.493 370.01L229.493 370.01L229.492 370.011C228.638 370.371 227.784 370.731 226.944 371.114ZM324.253 324.849C323.006 324.374 321.76 323.9 320.59 323.277C320.106 323.02 319.59 322.822 319.075 322.624C318.837 322.533 318.6 322.442 318.365 322.344C318.19 322.219 318.066 322.16 317.97 322.115C317.91 322.086 317.861 322.063 317.818 322.032C317.612 321.883 317.415 321.722 317.218 321.561L317.216 321.559L317.214 321.557C317.137 321.494 317.06 321.431 316.983 321.369C317.111 321.342 317.241 321.305 317.37 321.267C317.649 321.186 317.929 321.105 318.198 321.131C319.196 321.228 320.193 321.351 321.19 321.474L321.191 321.474L321.191 321.474L321.192 321.475L321.193 321.475C323.036 321.703 324.878 321.931 326.726 321.991C329.799 322.091 332.908 322.035 335.959 321.684C341.253 321.076 346.432 319.996 351.251 317.467C354.747 315.633 356.524 312.783 357.218 309.073C357.337 308.434 357.424 307.789 357.51 307.145L357.511 307.144L357.511 307.143L357.511 307.141L357.511 307.14C357.613 306.382 357.715 305.623 357.87 304.875C357.937 304.553 358.165 304.264 358.392 303.975L358.393 303.974C358.496 303.842 358.6 303.711 358.689 303.576C358.776 303.672 358.868 303.765 358.96 303.858C359.158 304.058 359.356 304.258 359.509 304.488C361.105 306.881 362.697 309.278 364.29 311.674C366.543 315.064 368.796 318.455 371.06 321.839C371.346 322.267 371.675 322.667 372.004 323.068C372.425 323.58 372.846 324.092 373.174 324.659C373.256 324.801 373.339 324.942 373.421 325.084C374.831 327.507 376.24 329.93 376.303 332.904C376.32 333.663 376.447 334.423 376.575 335.182V335.182V335.182V335.182V335.183C376.735 336.137 376.895 337.089 376.831 338.029C376.62 341.154 376.279 344.302 375.604 347.355C374.814 350.929 373.692 354.439 372.559 357.926C371.784 360.308 370.934 362.71 369.734 364.891C369.264 365.747 368.083 366.286 367.039 366.763C366.912 366.821 366.787 366.878 366.665 366.935C363.612 368.358 360.353 368.843 356.998 368.812C355.719 368.8 354.439 368.808 353.16 368.816H353.154C351.295 368.828 349.436 368.84 347.579 368.79C344.617 368.711 341.657 368.6 338.696 368.489C336.009 368.389 333.322 368.288 330.634 368.211C329.635 368.182 329.825 367.869 330.188 367.283C333.322 362.236 334.819 356.528 336.295 350.903L336.295 350.902C336.366 350.63 336.438 350.358 336.509 350.086C337.616 345.876 337.903 341.334 336.641 336.944C336.571 336.703 336.505 336.46 336.438 336.218L336.438 336.217C335.978 334.545 335.516 332.866 334.181 331.61C333.777 331.23 333.35 330.873 332.924 330.516L332.923 330.516L332.923 330.516L332.923 330.516L332.923 330.516C332.266 329.966 331.611 329.418 331.042 328.789C329.167 326.718 326.709 325.783 324.253 324.849ZM380.586 96.5784C381.179 93.163 382.355 89.9141 384.303 87.0651C385.401 85.4581 386.678 83.9731 387.954 82.4881C388.52 81.8295 389.086 81.1709 389.637 80.5017C394.609 75.2936 401.181 73.9201 405.013 73.1194C405.818 72.9513 406.501 72.8085 407.024 72.6608C408.462 72.254 415.577 71.5915 417.632 71.6009C418.491 71.6049 418.671 71.5718 418.815 71.5454C419.127 71.488 419.268 71.462 425.792 71.9135C435.323 72.5732 439.335 68.3246 439.58 65.5868C439.604 65.3135 439.903 64.9042 440.138 64.8534C440.399 64.7969 440.785 65.0173 441.028 65.2225C444.292 67.9776 449.963 80.5017 438.94 84.4774C431.044 87.3249 431.853 87.1446 431.979 87.1166C431.987 87.1148 431.992 87.1137 431.992 87.1139C431.992 87.1141 431.989 87.115 431.983 87.1169C431.977 87.119 431.966 87.1223 431.95 87.1273L431.92 87.1363C431.826 87.1651 431.624 87.227 431.222 87.3528C428.834 88.1012 426.557 89.2256 424.288 90.3457C423.748 90.6125 423.208 90.8791 422.667 91.1403C422.438 91.251 422.207 91.3611 421.975 91.4714C420.391 92.2261 418.777 92.9953 417.469 94.1009C415.721 95.5797 414.237 97.4272 412.86 99.2799C411.093 101.657 410.216 104.45 409.342 107.236L409.341 107.237L409.341 107.238L409.34 107.24L409.34 107.241C409.174 107.77 409.008 108.299 408.836 108.825C408.816 108.886 408.787 108.944 408.757 109.002C408.744 109.029 408.73 109.056 408.717 109.083C408.706 109.053 408.694 109.024 408.684 108.994L408.661 108.932C408.622 108.824 408.583 108.715 408.528 108.615C407.357 106.478 405.715 104.733 403.433 103.941C401.436 103.247 399.291 103.615 397.861 105.271C396.432 106.925 395.905 109.013 397.152 111.062C397.987 112.434 398.969 113.758 400.091 114.9C400.92 115.745 401.39 116.24 400.575 117.448C397.57 121.897 392.313 123.969 387.475 122.265C386.45 121.904 385.521 121.232 385.111 119.798C384.448 117.475 383.662 115.188 382.875 112.901L382.875 112.9L382.875 112.9L382.874 112.899C382.195 110.923 381.515 108.946 380.915 106.946C379.898 103.559 379.983 100.049 380.586 96.5784ZM409.815 118.358C410.093 116.995 410.37 115.633 410.37 114.248C410.37 108.03 415.185 99.6759 416.873 98.0175C418.752 96.1717 421.198 94.7709 423.614 93.6416C425.909 92.5688 428.317 91.7368 430.724 90.9053L430.724 90.9052L430.725 90.905C431.589 90.6064 432.453 90.3078 433.312 89.9982C434.687 89.5026 435.74 90.0411 436.178 91.3815C436.364 91.952 436.573 92.5193 436.782 93.0866L436.782 93.0869C437.267 94.4057 437.753 95.7249 437.951 97.0858C438.261 99.2113 438.132 101.424 437.996 103.586C437.785 106.95 437.465 110.311 437.082 113.66C436.771 116.379 437.505 118.828 438.63 121.232C439.375 122.824 439.111 123.393 437.472 123.975C434.643 124.98 434.643 124.98 434.643 128.205C434.643 130.669 434.349 130.82 431.949 129.74C430.644 129.152 429.407 128.589 429.05 126.959C429.049 126.956 429.049 126.954 429.048 126.951L429.046 126.946L429.045 126.943C428.682 126.109 427.037 127.068 427.227 127.957C427.69 130.119 429.442 130.848 431.206 131.581C431.32 131.629 431.434 131.676 431.548 131.724C434.893 133.131 435.343 134.15 434.259 137.65C433.127 141.304 430.578 143.28 426.865 143.889C420.3 144.965 414.37 143.302 408.865 139.759C408.507 139.529 408.155 139.289 407.802 139.049C406.959 138.474 406.115 137.899 405.205 137.465C404.344 137.055 404.629 136.811 405.017 136.481C405.049 136.453 405.082 136.425 405.116 136.396C405.178 136.341 405.276 136.315 405.369 136.289C405.478 136.26 405.582 136.232 405.618 136.163C405.824 135.766 405.998 135.353 406.173 134.94C406.237 134.789 406.3 134.637 406.366 134.487C406.21 134.549 406.044 134.6 405.879 134.651L405.878 134.651C405.519 134.761 405.16 134.871 404.899 135.096C402.886 136.832 400.898 138.598 398.958 140.415C398.156 141.166 397.382 141.948 396.607 142.729L396.606 142.73L396.605 142.731C395.944 143.398 395.282 144.066 394.603 144.715C394.47 144.842 393.914 144.773 393.776 144.609C393.247 143.98 392.736 143.335 392.224 142.69L392.222 142.688L392.222 142.688L392.222 142.688L392.222 142.687L392.222 142.687C391.477 141.748 390.732 140.809 389.933 139.918C389.446 139.376 388.859 138.926 388.27 138.475C387.95 138.23 387.63 137.985 387.325 137.725C387.087 137.521 386.713 137.198 386.749 136.993C387.354 133.603 387.118 130.247 386.398 126.915C386.132 125.687 386.799 125.577 387.637 125.439C387.7 125.428 387.764 125.418 387.829 125.407C388.456 125.298 389.084 125.191 389.712 125.085L389.714 125.085L389.714 125.085C392.375 124.634 395.039 124.184 397.653 123.535C400.528 122.822 403.486 118.858 403.241 116.038C403.11 114.539 402.587 113.009 400.98 112.092C400.001 111.533 399.177 110.574 398.506 109.635C397.797 108.643 398.322 107.277 399.415 106.707C401.334 105.708 405.232 106.607 406.163 108.512C406.968 110.159 407.453 111.989 407.889 113.785C408.252 115.283 408.518 116.805 408.784 118.327C408.902 118.999 409.02 119.672 409.146 120.343C409.164 120.439 409.189 120.534 409.215 120.628L409.228 120.676C409.235 120.704 409.243 120.732 409.25 120.761C409.271 120.715 409.297 120.669 409.322 120.624C409.376 120.526 409.43 120.428 409.446 120.325C409.548 119.667 409.682 119.013 409.815 118.358ZM215.004 374.59C213.985 374.816 212.965 375.042 211.946 375.269C211.692 375.326 211.442 375.4 211.191 375.474C211.133 375.491 211.075 375.508 211.017 375.525C210.959 375.542 210.901 375.558 210.843 375.574C208.833 376.051 206.882 376.547 204.961 377.035C202.337 377.702 199.769 378.355 197.183 378.925C193.854 379.66 190.473 380.173 187.098 380.685L187.097 380.685L187.097 380.685L187.096 380.685L187.096 380.685L186.431 380.786C185.11 380.987 183.776 381.102 182.442 381.218H182.442L182.441 381.218L182.44 381.218L182.439 381.218L182.438 381.218C181.704 381.282 180.97 381.345 180.238 381.423C179.041 381.55 177.846 381.692 176.65 381.834C174.075 382.139 171.501 382.445 168.917 382.604C167.27 382.706 165.61 382.593 163.949 382.48C163.191 382.428 162.432 382.377 161.674 382.345C161.521 382.339 161.367 382.341 161.213 382.344C161.06 382.346 160.906 382.348 160.753 382.342C158.592 382.253 156.431 382.163 154.27 382.073C151.498 381.958 148.726 381.842 145.955 381.729C145.217 381.699 144.479 381.665 143.742 381.631C141.808 381.541 139.875 381.451 137.941 381.436C134.187 381.407 130.472 381.081 126.924 379.825C126.146 379.55 125.279 378.664 125.037 377.878C123.773 373.786 125.416 369.598 130.321 368.536C131.844 368.206 133.398 368.017 134.951 367.829C136.312 367.664 137.673 367.499 139.014 367.239C143.27 366.413 147.529 365.945 151.874 365.993C153.574 366.012 155.276 365.84 156.979 365.667C157.855 365.578 158.731 365.489 159.607 365.426C161.405 365.297 182.063 361.744 186.166 360.809C188.67 360.238 191.197 359.773 193.724 359.307C198.569 358.415 203.413 357.523 208.093 355.889C209.193 355.504 209.843 355.948 210.415 356.996L210.444 357.049C211.605 359.176 212.782 361.332 214.263 363.234C215.76 365.158 217.4 366.97 219.039 368.783L219.041 368.784L219.042 368.786L219.044 368.788C219.715 369.53 220.386 370.272 221.048 371.022L221.061 371.037C221.294 371.3 221.532 371.571 221.812 371.777C222.066 371.963 222.343 372.118 222.62 372.273L222.62 372.273L222.621 372.274C222.74 372.341 222.86 372.408 222.978 372.477C222.838 372.544 222.7 372.62 222.563 372.696C222.265 372.861 221.968 373.025 221.65 373.098C219.438 373.609 217.221 374.1 215.004 374.59ZM333.559 439.417C332.101 441.787 330.597 444.133 329.007 446.416C328.174 447.613 326.907 448.292 325.431 448.497C323.806 448.599 322.314 448.681 320.869 448.457C319.572 448.256 319.105 446.717 319.637 445.067C319.868 444.347 320.103 443.628 320.338 442.909L320.339 442.908C320.989 440.918 321.639 438.927 322.228 436.919C322.415 436.28 322.606 435.642 322.797 435.003L322.799 434.997L322.799 434.997L322.799 434.997L322.799 434.996L322.799 434.996C323.593 432.342 324.389 429.683 324.926 426.976C326.077 421.175 327.891 415.54 330.324 410.248C332.948 404.539 335.329 398.787 337.264 392.826C338.788 388.13 340.33 383.441 341.921 378.768C342.559 376.892 343.29 375.047 344.021 373.203L344.151 372.876L344.342 372.393C344.429 372.172 344.769 371.9 344.986 371.905C346.153 371.932 347.32 371.978 348.487 372.024H348.487H348.488H348.488H348.489C350.298 372.096 352.107 372.167 353.916 372.167C356.841 372.168 359.773 372.07 362.689 371.84C363.469 371.779 364.231 371.501 364.994 371.223C365.362 371.089 365.73 370.955 366.101 370.846C366.285 370.791 366.476 370.758 366.667 370.726C366.755 370.711 366.843 370.696 366.931 370.679C366.912 370.757 366.895 370.836 366.877 370.916C366.841 371.086 366.804 371.257 366.747 371.42C366.378 372.472 366.029 373.529 365.679 374.586L365.679 374.586L365.679 374.586L365.679 374.587L365.679 374.587C364.602 377.843 363.525 381.097 361.902 384.177C360.892 386.095 360.132 388.142 359.371 390.191C358.876 391.524 358.38 392.859 357.815 394.159C357.068 395.878 356.198 397.544 355.328 399.209L355.328 399.21L355.327 399.21C355.01 399.818 354.692 400.426 354.381 401.037C353.72 402.332 353.038 403.617 352.355 404.903C350.925 407.599 349.495 410.295 348.26 413.078C346.115 417.911 343.444 422.44 340.773 426.969L340.772 426.971C339.621 428.922 338.471 430.873 337.362 432.848C336.124 435.054 334.884 437.263 333.559 439.417ZM123.172 383.974C119.912 384.687 118.26 387.074 116.657 389.712C113.717 394.548 110.706 399.34 107.695 404.133L107.695 404.133L107.694 404.134C106.491 406.049 105.288 407.964 104.089 409.882C102.642 412.05 101.235 413.944 99.7224 415.75C99.2406 416.325 98.5178 416.746 97.8296 417.082C97.4168 417.284 96.7723 417.354 96.395 417.162C96.1468 417.036 96.057 416.316 96.1215 415.897C97.3412 407.965 99.9189 400.417 103.108 393.117C104.493 389.947 105.451 386.662 106.409 383.379C106.939 381.562 107.468 379.746 108.07 377.95C108.799 375.775 109.489 373.587 110.178 371.4C110.831 369.327 111.485 367.254 112.171 365.192C112.797 363.314 113.502 361.463 114.207 359.612C114.43 359.027 114.653 358.441 114.874 357.855C115.381 356.506 116.556 356.047 117.832 356.82C121.088 358.791 124.041 361.066 126.27 364.28C127.258 365.707 126.667 366.435 125.681 366.919C122.358 368.549 121.411 371.413 121.304 374.768C121.296 375.049 121.28 375.334 121.265 375.62C121.205 376.73 121.144 377.86 121.457 378.861C121.746 379.786 122.429 380.6 123.099 381.399L123.099 381.399C123.286 381.622 123.471 381.843 123.647 382.065C124.449 383.079 124.383 383.709 123.172 383.974ZM341.527 451.67C341.819 451.741 342.11 451.812 342.401 451.885C343.161 452.078 343.915 452.294 344.669 452.51L344.673 452.511C344.818 452.552 344.964 452.594 345.11 452.636C345.309 452.692 345.507 452.749 345.706 452.804C352.798 454.471 359.59 456.11 366.363 457.825C368.199 458.29 370.074 458.792 371.746 459.641C372.585 460.066 373.246 460.851 373.898 461.625L373.899 461.626C374.112 461.879 374.325 462.131 374.542 462.37C374.593 462.425 374.187 463.089 373.882 463.23C373.647 463.339 373.35 463.313 373.053 463.288C372.924 463.277 372.794 463.266 372.67 463.266H313.387C310.082 463.266 309.512 462.616 310.561 459.506L310.645 459.259C311.618 456.371 312.595 453.471 314.503 450.983C315.682 449.446 316.175 449.333 317.687 450.568C320.787 453.103 324.227 452.944 327.764 451.691C328.476 451.438 329.187 451.161 329.858 450.817C331.12 450.17 331.911 449.081 332.549 447.841C333.286 446.41 333.925 446.311 334.655 447.614C336.203 450.374 338.856 451.02 341.527 451.67ZM459.029 338.622C458.718 338.427 458.407 338.232 458.338 337.972C457.969 336.601 457.676 335.21 457.383 333.819C457.279 333.327 457.176 332.835 457.069 332.344C456.76 331.373 456.526 330.463 456.3 329.581L456.3 329.58C456.175 329.094 456.053 328.617 455.921 328.143C455.859 327.919 455.684 327.727 455.509 327.535C455.469 327.492 455.429 327.448 455.391 327.404C455.352 327.359 455.314 327.314 455.279 327.267C455.176 327.374 455.043 327.483 454.91 327.593C454.622 327.83 454.334 328.067 454.354 328.273L454.369 328.428L454.369 328.428V328.429C454.534 330.12 454.701 331.837 455.164 333.46C455.747 335.503 455.512 337.392 454.729 339.27C454.653 339.454 454.435 339.579 454.216 339.704C454.115 339.761 454.014 339.819 453.927 339.883C453.902 339.801 453.875 339.72 453.849 339.639C453.824 339.561 453.799 339.483 453.774 339.405C453.743 339.307 453.714 339.208 453.687 339.11C453.555 338.621 453.434 338.129 453.313 337.636L453.312 337.635L453.312 337.635L453.312 337.634C453.056 336.594 452.8 335.555 452.442 334.553L452.297 334.145C450.441 328.935 448.573 323.69 444.43 319.766C443.022 318.431 441.267 317.332 439.482 316.567C437.818 315.854 438.361 314.564 438.669 313.834L438.67 313.832L438.677 313.814L438.683 313.8L438.684 313.798C438.697 313.766 438.71 313.735 438.722 313.706C439.506 311.794 440.419 309.936 441.333 308.077C441.919 306.886 442.504 305.695 443.056 304.489C443.349 303.848 443.678 304.036 443.957 304.195L443.997 304.218C444.01 304.225 444.023 304.232 444.035 304.239C446.42 305.533 448.798 306.839 451.145 308.2C451.529 308.423 451.918 308.642 452.306 308.861L452.307 308.861C453.762 309.681 455.222 310.504 456.491 311.553C457.919 312.735 459.206 314.228 460.152 315.823C461.648 318.344 462.893 321.028 464.066 323.721C464.451 324.605 464.557 325.623 464.662 326.621L464.662 326.625C464.674 326.74 464.686 326.854 464.699 326.968C464.71 327.073 464.722 327.177 464.734 327.281C464.899 328.666 465.01 330.063 465.023 331.456C465.026 331.763 464.849 332.072 464.672 332.382C464.646 332.428 464.619 332.474 464.594 332.519C464.575 332.553 464.556 332.587 464.538 332.621C464.519 332.656 464.501 332.691 464.484 332.726C464.471 332.753 464.458 332.779 464.446 332.806C464.297 332.738 464.123 332.682 463.949 332.626C463.572 332.506 463.194 332.385 463.068 332.136C462.361 330.737 461.75 329.289 461.138 327.841L461.138 327.841C461.013 327.543 460.887 327.246 460.761 326.949C460.671 326.738 460.607 326.509 460.544 326.282C460.439 325.899 460.334 325.521 460.106 325.236C459.848 324.913 459.455 324.698 459.063 324.482C458.891 324.388 458.719 324.294 458.559 324.191C458.586 324.468 458.413 324.645 458.232 324.832C457.981 325.089 457.715 325.362 457.938 325.936C458.832 328.233 459.619 330.603 460.12 333.012C460.376 334.244 460.288 335.554 460.202 336.85V336.851V336.851V336.851V336.852C460.18 337.185 460.158 337.517 460.142 337.846C460.13 338.094 459.918 338.331 459.707 338.568C459.61 338.678 459.513 338.787 459.435 338.897C459.315 338.802 459.173 338.712 459.03 338.622L459.029 338.622L459.029 338.622L459.029 338.622ZM440.192 305.036C439.929 305.546 439.665 306.056 439.444 306.587C439.03 307.584 438.542 308.549 438.053 309.515L438.053 309.515L438.052 309.516C437.835 309.945 437.618 310.374 437.407 310.806C436.646 312.401 435.963 313.928 435.292 315.429C434.97 316.148 434.651 316.861 434.328 317.572C433.855 318.612 433.076 318.876 432.024 318.344C430.029 317.337 428.236 316.149 427.76 313.747C427.681 313.346 427.623 312.881 427.745 312.508C427.958 311.854 428.162 311.196 428.367 310.537L428.367 310.535L428.368 310.533C428.965 308.609 429.562 306.683 430.392 304.863C431.708 301.976 433.98 299.72 436.442 297.779C437.525 296.924 438.912 297.372 440.129 298.115C441.279 298.817 441.538 299.581 441.506 301.006C441.47 302.564 440.831 303.8 440.192 305.036ZM95.769 407.087C94.8886 409.786 93.8448 412.437 92.7458 415.056C92.0129 416.802 91.5719 416.789 90.4186 415.266C91.2138 412.797 92.0897 410.389 92.9609 407.994C93.5849 406.278 94.2065 404.569 94.7945 402.849C95.7384 400.086 96.549 397.278 97.3593 394.47L97.3597 394.469L97.3598 394.468L97.36 394.468L97.3601 394.467C97.5526 393.8 97.745 393.133 97.9392 392.467C98.469 390.65 98.9837 388.828 99.4983 387.006L99.4984 387.006L99.4986 387.005L99.4992 387.003C100.202 384.515 100.905 382.027 101.646 379.551C102.363 377.158 103.168 374.792 103.972 372.427L103.972 372.426C104.116 372.005 104.259 371.584 104.402 371.163C104.53 370.783 104.659 370.403 104.787 370.023L104.787 370.022C105.554 367.751 106.321 365.48 107.18 363.244C108.113 360.815 109.17 358.432 110.252 356.065C110.366 355.815 110.678 355.656 110.991 355.497C111.135 355.423 111.28 355.35 111.405 355.267C111.443 355.384 111.5 355.506 111.556 355.628C111.678 355.892 111.8 356.155 111.74 356.367C111.336 357.795 110.885 359.209 110.434 360.623L110.434 360.624L110.433 360.626C110.263 361.158 110.094 361.69 109.927 362.222C109.291 364.247 108.659 366.272 108.027 368.297L108.027 368.299C106.62 372.806 105.214 377.313 103.772 381.809C103.001 384.211 102.198 386.602 101.396 388.993L101.395 388.994C100.536 391.552 99.6772 394.11 98.8582 396.681C98.3364 398.319 97.8663 399.973 97.3962 401.628L97.3961 401.628L97.396 401.629C96.8768 403.456 96.3577 405.283 95.769 407.087ZM355.328 468.807C354.63 468.858 353.931 468.91 353.233 468.958C340.036 469.112 326.992 469.118 313.948 469.098C313.018 469.097 312.075 468.971 311.167 468.77C310.838 468.696 310.308 468.074 310.364 467.971C310.629 467.48 311.023 467.028 311.461 466.675C311.589 466.572 311.822 466.599 312.054 466.626L312.11 466.632L312.134 466.635L312.168 466.638C312.186 466.64 312.204 466.642 312.222 466.643C312.246 466.645 312.269 466.647 312.292 466.648C312.304 466.649 312.316 466.649 312.328 466.65C312.339 466.65 312.35 466.65 312.362 466.65H373.437C373.516 466.65 373.597 466.644 373.677 466.638C373.859 466.625 374.041 466.612 374.199 466.666C374.403 466.735 374.588 466.86 374.773 466.985C374.799 467.002 374.824 467.02 374.85 467.037C374.904 467.073 374.959 467.109 375.014 467.142C374.919 467.221 374.825 467.319 374.732 467.417C374.53 467.628 374.329 467.84 374.117 467.851C371.432 467.992 368.746 468.109 366.06 468.227L366.05 468.227C364.016 468.316 361.982 468.405 359.948 468.504C358.407 468.579 356.867 468.693 355.328 468.807ZM441.243 473.707C443.698 472.741 446.16 471.773 448.624 470.78C450.76 469.481 452.881 468.205 454.991 466.935L455.001 466.929C457.297 465.547 459.58 464.173 461.855 462.787C465.042 460.846 467.234 458.11 468.329 454.516C468.932 452.538 468.114 450.646 466.142 450.227C464.9 449.963 463.542 450.057 462.262 450.204C461.909 450.245 461.555 450.283 461.2 450.322C459.321 450.526 457.425 450.732 455.644 451.278C445.813 454.295 436.271 458.096 426.826 462.148C426.686 462.208 426.545 462.269 426.403 462.33C424.748 463.045 423.007 463.797 421.278 463.885C415.826 464.163 410.361 464.203 404.898 464.244C404.257 464.248 403.615 464.253 402.973 464.258C396.521 464.309 390.068 464.29 383.615 464.247C382.71 464.241 382.289 464.392 382.467 465.373C382.509 465.604 382.5 465.844 382.491 466.084L382.491 466.087C382.488 466.165 382.485 466.244 382.484 466.322C382.483 466.36 382.483 466.398 382.484 466.436C382.484 466.464 382.485 466.491 382.486 466.518L382.488 466.557C382.488 466.57 382.489 466.583 382.49 466.596C382.499 466.716 382.634 466.925 382.718 466.928C384.026 466.977 385.336 467.021 386.646 467.023C390.457 467.03 394.268 467.029 398.08 467.028H398.124C399.539 467.027 400.954 467.027 402.369 467.027C403.78 467.027 405.19 467.027 406.601 467.028C411.745 467.029 416.89 467.031 422.034 467.011C422.649 467.008 423.303 466.875 423.87 466.639C425.495 465.962 427.112 465.268 428.729 464.575L428.733 464.573C430.896 463.645 433.059 462.717 435.239 461.831C440.627 459.639 446.034 457.489 451.463 455.4C455.197 453.962 458.952 452.535 463.064 452.626C464.389 452.655 465.126 453.666 464.774 454.989C464.075 457.61 462.375 459.519 460.148 460.871L459.509 461.259C456.016 463.382 452.508 465.514 448.833 467.282C442.955 470.112 436.964 472.726 430.923 475.195C426.461 477.019 421.954 478.235 416.865 477.9C414.048 477.715 411.223 477.638 408.396 477.56H408.395H408.395H408.395H408.394C404.278 477.447 400.157 477.334 396.049 476.888C395.025 476.777 393.975 476.959 392.919 477.141C392.206 477.264 391.49 477.388 390.778 477.422C387.188 477.594 383.593 477.688 379.999 477.738C376.312 477.789 372.623 477.797 368.938 477.721C368.401 477.71 367.862 477.577 367.326 477.446C366.716 477.295 366.108 477.146 365.506 477.176C363.48 477.277 361.457 477.437 359.433 477.596C357.334 477.762 355.235 477.928 353.133 478.028C350.699 478.144 348.255 478.105 345.814 478.065L345.251 478.056C344.908 478.051 344.566 478.046 344.224 478.041C343.784 478.036 343.343 477.971 342.902 477.906C342.359 477.826 341.817 477.746 341.28 477.778C340.486 477.825 339.694 477.935 338.903 478.045C337.988 478.172 337.073 478.299 336.155 478.328C335.107 478.362 334.057 478.274 333.006 478.187L333.005 478.187C332.408 478.137 331.81 478.087 331.213 478.059C328.446 477.932 325.678 477.812 322.91 477.692C321 477.61 319.09 477.527 317.18 477.442C315.034 477.346 312.888 477.242 310.742 477.138L310.719 477.137C306.087 476.912 301.455 476.687 296.82 476.546C292.637 476.418 288.451 476.366 284.265 476.314L284.26 476.314C281.781 476.283 279.301 476.252 276.823 476.206C275.737 476.185 274.614 476.163 273.576 475.887C267.106 474.164 260.772 472.051 254.637 469.34C247.884 466.357 241.308 463.068 235.069 459.102C233.725 458.248 233.513 457.116 233.825 455.968C234.059 455.107 234.89 453.926 235.633 453.78C237.532 453.405 239.571 453.252 241.476 453.534C242.512 453.688 243.499 454.138 244.49 454.59C245.112 454.874 245.735 455.158 246.374 455.371C248.906 456.214 251.446 457.03 253.986 457.846C256.189 458.554 258.392 459.262 260.59 459.987C262.345 460.567 264.093 461.17 265.841 461.773C268.934 462.84 272.027 463.906 275.16 464.842L275.197 464.853C279.232 466.059 283.305 467.276 287.623 467.034C290.063 466.898 292.504 466.784 294.946 466.671C296.773 466.586 298.6 466.501 300.427 466.407C300.953 466.379 301.477 466.315 302.001 466.251L302.002 466.25L302.004 466.25C302.355 466.207 302.707 466.164 303.06 466.132C303.155 466.123 303.255 466.169 303.355 466.214C303.401 466.235 303.448 466.256 303.493 466.272C303.491 466.213 303.49 466.154 303.488 466.094C303.487 466.023 303.487 465.952 303.486 465.88C303.486 465.798 303.486 465.716 303.487 465.635C303.488 465.088 303.49 464.542 303.345 464.037C303.277 463.803 302.483 463.674 302.021 463.673C298.905 463.661 295.79 463.66 292.674 463.658C289.542 463.657 286.41 463.655 283.278 463.643C282.552 463.641 281.801 463.538 281.105 463.335C279.209 462.781 277.328 462.174 275.447 461.568L275.446 461.567L275.444 461.567L275.443 461.566L275.441 461.566L274.989 461.42C271.521 460.301 268.053 459.18 264.586 458.059L264.58 458.057L264.574 458.055L264.568 458.053L264.562 458.052C258.331 456.037 252.099 454.023 245.863 452.022C242.266 450.868 238.615 449.78 234.806 450.814C231.229 451.785 229.292 454.74 230.294 458.571C230.829 460.617 232.393 461.627 233.908 462.605L234.065 462.706C242.269 468.012 251.13 472.033 260.244 475.48C267.029 478.046 273.947 480.193 281.329 480.222C281.55 480.223 281.771 480.375 281.992 480.528C282.038 480.559 282.083 480.59 282.128 480.62C282.143 480.63 282.158 480.64 282.173 480.65C282.216 480.677 282.258 480.702 282.301 480.725C282.2 480.799 282.103 480.884 282.006 480.969C281.797 481.152 281.588 481.334 281.345 481.409C275.746 483.14 272.044 489.745 273.428 495.284C275.674 504.269 282.36 506.785 289.926 504.831C299.278 502.415 301.294 490.357 295.044 484.258C294.13 483.366 292.966 482.73 291.802 482.094C291.26 481.799 290.718 481.503 290.202 481.181C290.078 481.104 289.959 481.018 289.841 480.932C289.786 480.892 289.731 480.852 289.676 480.813C289.734 480.78 289.792 480.74 289.849 480.7C289.974 480.613 290.099 480.525 290.227 480.52C290.842 480.497 291.457 480.5 292.072 480.504C292.294 480.505 292.516 480.506 292.738 480.506C293.768 480.506 294.798 480.503 295.829 480.501H295.836C298.098 480.495 300.361 480.488 302.623 480.512C305.687 480.543 308.751 480.589 311.815 480.635L311.822 480.635C317.027 480.713 322.232 480.79 327.437 480.798C348.98 480.833 370.523 480.819 392.066 480.806L393.531 480.805L401.642 480.8C401.894 480.8 402.147 480.735 402.399 480.671C402.67 480.601 402.941 480.532 403.209 480.543C403.598 480.56 403.983 480.673 404.369 480.787C404.537 480.837 404.705 480.886 404.873 480.928C404.772 481.043 404.677 481.167 404.581 481.292L404.58 481.292C404.371 481.565 404.161 481.838 403.89 482.021C403.509 482.28 403.08 482.498 402.653 482.715C401.89 483.103 401.132 483.488 400.663 484.099C397.084 488.753 395.702 493.754 399.067 499.518C400.452 501.89 402.329 503.646 404.945 504.594C407.936 505.679 411.033 505.655 414 504.885C415.879 504.397 417.985 503.467 419.192 502.058C420.677 500.325 421.565 497.961 422.298 495.735C423.791 491.201 421.348 485.158 417.122 482.944C416.567 482.654 416.075 482.222 415.604 481.8C415.439 481.652 415.326 481.445 415.213 481.238C415.161 481.145 415.11 481.052 415.054 480.964C415.162 480.917 415.269 480.857 415.376 480.798C415.615 480.666 415.854 480.535 416.093 480.534C416.389 480.534 416.685 480.601 416.981 480.667C417.257 480.73 417.533 480.792 417.81 480.8C421.071 480.897 424.208 480.69 427.34 479.343C431.923 477.372 436.569 475.545 441.241 473.708L441.243 473.707ZM404.516 485.63C409.463 482.771 413.612 483.49 417.204 487.399C420.888 491.809 418.939 500.246 412.443 501.643C409.518 502.272 406.679 502.267 404.251 500.202C402.226 498.48 400.9 496.282 400.642 493.631C400.402 491.168 401.656 487.282 404.516 485.63ZM277.067 492.526C277.072 492.247 277.077 491.967 277.077 491.688C278.242 485.983 282.299 483.262 287.229 483.975C292.22 484.698 295.833 488.889 294.7 494.707C293.961 498.5 291.875 500.66 288.258 501.7C283.177 503.16 277.414 499.304 277.085 494.339C277.045 493.737 277.056 493.132 277.067 492.527V492.526ZM426.98 102.52C427.247 102.493 428.503 102.688 430.051 102.929C432.169 103.259 434.833 103.673 436.262 103.719C437.692 103.765 436.334 105.298 436.098 105.308C432.941 105.442 426.097 103.357 426.98 102.52ZM431.591 114.61C430.254 114.103 430.894 110.007 432.219 110.007C433.529 110.007 432.897 115.104 431.591 114.61ZM412.326 490.245C413.483 492.868 413.404 493.941 412.027 495.368C411.087 496.342 409.383 496.507 408.315 495.728C407.175 494.896 406.646 492.929 407.196 491.564C408.164 489.164 410.291 488.577 412.326 490.245ZM288.49 490.447C286.694 488.784 284.905 488.877 282.707 491.031C281.907 492.884 282.299 494.847 285.266 495.37C286.864 495.652 287.81 495.18 288.693 494.223C289.611 493.228 289.349 491.242 288.49 490.447Z" fill="#00160A"/>
<path fill-rule="evenodd" clip-rule="evenodd" d="M392.725 156.377C390.054 155.593 389.42 151.541 386.725 150.842C384.059 150.149 381.499 153.306 378.841 152.585C377.033 152.095 376.189 150.099 375.188 148.517C374.214 146.977 372.163 145.587 370.699 146.581L370.578 146.67C368.547 148.271 365.5 147.259 363.454 145.675C361.407 144.091 359.673 141.956 357.216 141.141C358.506 139.868 360.74 140.792 361.989 142.105C363.238 143.419 364.254 145.149 365.989 145.675C368.647 146.48 371.641 144.011 374.15 145.202C375.71 145.943 376.345 147.772 377.279 149.224C378.213 150.677 380.245 151.894 381.571 150.788C384.79 148.105 390.542 149.806 391.782 153.808C392.142 154.969 393.731 156.672 392.725 156.377Z" fill="#E7EAEE"/>
<path fill-rule="evenodd" clip-rule="evenodd" d="M233.38 460.558C240.802 464.93 264.051 477.81 281.093 478.237L422.054 478.681C422.054 478.681 496.174 452.614 441.982 462.45C438.915 463.006 430.131 468.26 416.008 469.405C390.19 471.498 281.093 470.16 281.093 470.16C281.093 470.16 231.428 459.408 233.38 460.558Z" fill="#E7EAEE"/>
<path fill-rule="evenodd" clip-rule="evenodd" d="M112.323 373.837C112.496 373.644 112.707 373.507 112.837 373.561C114.322 374.175 115.178 373.641 115.629 372.175C115.704 371.932 116.085 371.782 116.325 371.588C116.545 371.882 116.951 372.176 116.952 372.47C116.955 373.448 117.379 373.907 118.308 374.198C118.704 374.322 118.939 374.956 119.247 375.358C118.937 375.43 118.469 375.404 118.349 375.594C118.107 375.979 117.98 376.476 117.943 376.938C117.912 377.33 118.109 377.735 118.143 378.14C118.189 378.671 118.103 379.061 117.477 378.525C116.228 377.457 115.143 377.857 114.076 378.865C113.817 379.109 113.362 379.148 112.997 379.282C113.063 378.95 113.083 378.599 113.205 378.288C113.842 376.658 113.402 375.258 112.323 373.837Z" fill="#FFB61D"/>
<circle cx="418.517" cy="124.632" r="5.38533" fill="#FFB61D"/>
<path fill-rule="evenodd" clip-rule="evenodd" d="M341.463 172.567L342.082 173.523L342.286 173.831C343.585 175.735 345.557 177.607 347.749 177.052C353.585 175.575 360.223 178.153 363.532 183.179C365.168 185.664 368.802 185.177 371.772 184.54L372.164 184.455C375.142 183.794 379.263 184.105 380.015 186.992L380.054 187.158C380.401 188.82 382.494 189.325 384.216 189.282L384.75 189.262C389.08 189.262 389.647 191.644 389.648 191.399C389.648 191.399 380.127 190.678 378.123 187.448L378.001 187.242C376.725 185.007 373.502 185.371 370.981 186.131L370.287 186.348L369.939 186.449C367.478 187.138 364.491 187.388 363.256 185.264C360.422 180.392 354.517 177.496 348.927 178.237C347.488 178.428 345.996 178.832 344.618 178.376C341.322 177.285 340.892 172.196 337.649 170.955C333.557 169.39 329.595 175.337 325.36 174.215C327.936 172.25 330.791 170.652 333.814 169.484C334.827 169.093 335.902 168.745 336.98 168.875C338.977 169.117 340.317 170.833 341.463 172.567ZM393.452 178.439C393.043 179.697 392.743 180.814 392.543 181.762C392.128 179.03 389.413 176.503 386.853 177.388L386.705 177.443C385.08 178.09 383.36 176.747 382.309 175.349L382.058 175.009L381.679 174.489C380.829 173.328 379.915 172.184 378.555 171.854C376.069 171.25 373.874 173.725 371.333 174.021C365.451 174.704 362.511 164.175 356.736 165.481C355.473 165.767 354.382 166.632 353.099 166.807C349.558 167.291 347.658 162.789 344.674 160.822C342.428 159.343 339.259 159.432 337.101 161.036C337.21 158.465 340.707 157.332 343.094 158.3C345.481 159.267 347.119 161.442 349.101 163.086C351.034 164.688 353.902 165.789 356.006 164.485L356.167 164.38C358.698 162.628 362.085 164.85 364.062 167.211L364.78 168.071C366.585 170.219 368.647 172.451 371.353 172.245C373.837 172.055 375.952 169.741 378.416 170.111C382.007 170.65 383.474 176.437 387.084 176.045C389.404 175.794 391.818 176.573 393.553 178.133L393.452 178.439ZM395.317 166.331C394.737 167.143 394.156 167.795 393.573 168.288L393.379 168.446L392.893 168.099C390.532 166.422 387.954 164.789 385.083 164.857C384.035 164.882 382.961 165.135 381.954 164.84C379.283 164.055 378.649 160.004 375.955 159.304C373.289 158.612 370.728 161.769 368.07 161.048C366.262 160.558 365.418 158.562 364.417 156.98C363.444 155.44 361.393 154.05 359.929 155.044L359.808 155.132C357.776 156.734 354.729 155.722 352.683 154.138C350.637 152.554 348.902 150.419 346.446 149.604C347.735 148.331 349.97 149.255 351.219 150.568C352.467 151.882 353.483 153.612 355.218 154.137C357.877 154.942 360.87 152.474 363.379 153.665C364.94 154.405 365.574 156.235 366.508 157.687C367.442 159.14 369.475 160.357 370.801 159.251C374.02 156.567 379.772 158.269 381.012 162.271C381.371 163.432 382.918 163.702 384.111 163.469C385.304 163.236 386.531 162.715 387.691 163.081C389.166 163.545 389.922 165.26 391.343 165.87C392.821 166.505 394.588 165.698 395.577 164.421L395.677 164.287C396.473 163.173 396.1 165.234 395.317 166.331Z" fill="#FFB61D"/>
<path fill-rule="evenodd" clip-rule="evenodd" d="M364.342 196.853L364.787 196.983C365.384 197.166 365.833 197.434 366.356 197.878L366.615 198.105L366.944 198.405C367.103 198.549 367.228 198.658 367.355 198.762C368.227 199.477 369.215 199.921 370.863 200.183C371.968 200.358 372.747 200.182 374.091 199.556L374.574 199.325C376.745 198.278 378.007 197.986 380.043 198.454C381.782 198.853 382.58 199.526 383.23 200.793L383.394 201.129C383.704 201.777 384.707 202.377 385.498 202.85C386.091 203.205 386.566 203.488 386.541 203.669C386.484 204.09 382.814 203.409 382.084 201.952L381.926 201.625C381.451 200.647 381.018 200.257 379.698 199.953C378.15 199.597 377.212 199.784 375.484 200.596L375 200.828C373.246 201.671 372.173 201.949 370.621 201.702C368.704 201.398 367.463 200.84 366.38 199.952C366.304 199.891 366.231 199.829 366.155 199.762L365.511 199.181C365.059 198.779 364.752 198.582 364.337 198.455L364.083 198.378C363.009 198.064 360.551 198.88 358.76 199.475L358.76 199.475C357.636 199.848 356.775 200.134 356.682 199.999C356.48 199.709 362.203 196.278 364.342 196.853ZM364.079 208.546L364.492 208.661C365.045 208.821 365.462 209.057 365.947 209.447L366.187 209.647L366.492 209.91C366.64 210.037 366.756 210.133 366.874 210.224C367.682 210.852 368.598 211.242 370.126 211.472C371.151 211.626 371.874 211.472 373.12 210.922L373.568 210.719C375.582 209.798 376.752 209.542 378.639 209.953C380.252 210.304 380.993 210.896 381.595 212.008L381.747 212.304C382.035 212.874 382.965 213.401 383.699 213.816C384.249 214.128 384.688 214.377 384.666 214.536C384.613 214.906 381.209 214.308 380.532 213.027L380.385 212.74C379.946 211.88 379.544 211.537 378.32 211.271C376.885 210.958 376.014 211.122 374.412 211.836L373.963 212.04C372.337 212.78 371.341 213.024 369.903 212.808C368.124 212.54 366.973 212.05 365.969 211.27C365.899 211.216 365.831 211.161 365.76 211.103L365.163 210.592C364.744 210.239 364.459 210.065 364.075 209.954L363.839 209.887C362.843 209.61 360.564 210.327 358.903 210.85C357.861 211.178 357.062 211.429 356.976 211.311C356.789 211.056 362.095 208.041 364.079 208.546ZM364.843 220.97L364.454 220.855C362.58 220.35 357.568 223.365 357.745 223.62C357.826 223.739 358.581 223.487 359.565 223.159C361.134 222.637 363.286 221.919 364.227 222.196L364.45 222.263C364.813 222.375 365.082 222.548 365.477 222.902L366.041 223.412C366.108 223.471 366.173 223.525 366.238 223.579C367.187 224.36 368.274 224.849 369.953 225.117C371.312 225.333 372.252 225.089 373.788 224.349L374.212 224.145C375.726 223.431 376.548 223.267 377.903 223.58C379.059 223.847 379.439 224.19 379.854 225.049L379.993 225.337C380.632 226.617 383.847 227.215 383.897 226.845C383.918 226.687 383.502 226.437 382.983 226.126C382.29 225.71 381.412 225.183 381.14 224.613L380.996 224.318C380.428 223.205 379.728 222.613 378.205 222.262C376.422 221.851 375.317 222.108 373.416 223.028L372.992 223.231C371.815 223.781 371.133 223.936 370.165 223.782C368.721 223.552 367.857 223.162 367.093 222.534C366.981 222.442 366.872 222.346 366.733 222.219L366.445 221.956L366.218 221.756C365.759 221.367 365.366 221.13 364.843 220.97ZM364.454 235.473L364.843 235.588C365.366 235.748 365.759 235.984 366.218 236.373L366.445 236.573L366.733 236.836C366.872 236.964 366.981 237.059 367.093 237.151C367.857 237.779 368.721 238.169 370.165 238.399C371.133 238.553 371.815 238.399 372.992 237.849L373.416 237.645C375.317 236.725 376.422 236.468 378.205 236.88C379.728 237.231 380.428 237.822 380.996 238.935L381.14 239.23C381.412 239.8 382.29 240.327 382.983 240.743C383.502 241.055 383.918 241.304 383.897 241.462C383.847 241.832 380.632 241.234 379.993 239.954L379.854 239.667C379.439 238.807 379.059 238.464 377.903 238.197C376.548 237.885 375.726 238.048 374.212 238.762L373.788 238.966C372.252 239.707 371.312 239.951 369.953 239.734C368.274 239.467 367.187 238.977 366.238 238.197C366.173 238.142 366.108 238.088 366.041 238.029L365.477 237.519C365.082 237.166 364.813 236.992 364.45 236.881L364.227 236.813C363.286 236.537 361.134 237.254 359.565 237.777C358.581 238.105 357.826 238.356 357.745 238.238C357.568 237.983 362.58 234.968 364.454 235.473ZM366.03 250.205L365.618 250.09C363.634 249.585 358.327 252.6 358.514 252.855C358.601 252.973 359.4 252.722 360.441 252.394C362.103 251.871 364.382 251.154 365.378 251.431L365.614 251.498C365.998 251.609 366.283 251.783 366.702 252.136L367.299 252.647C367.37 252.705 367.438 252.76 367.508 252.814C368.512 253.594 369.663 254.084 371.441 254.352C372.88 254.568 373.875 254.324 375.502 253.584L375.95 253.38C377.553 252.666 378.423 252.502 379.858 252.815C381.082 253.081 381.484 253.424 381.924 254.284L382.071 254.571C382.748 255.852 386.152 256.45 386.205 256.08C386.227 255.921 385.787 255.672 385.237 255.36C384.503 254.945 383.574 254.418 383.286 253.848L383.133 253.552C382.531 252.44 381.791 251.848 380.178 251.497C378.291 251.086 377.12 251.342 375.107 252.263L374.658 252.466C373.412 253.016 372.69 253.17 371.665 253.016C370.137 252.786 369.221 252.396 368.412 251.768C368.294 251.677 368.179 251.581 368.031 251.454L367.726 251.191L367.486 250.991C367.001 250.601 366.584 250.365 366.03 250.205ZM369.812 263.616L370.238 263.657C370.811 263.719 371.262 263.879 371.808 264.178L372.079 264.333L372.425 264.54C372.593 264.639 372.723 264.713 372.855 264.783C373.761 265.261 374.73 265.486 376.275 265.447C377.311 265.421 377.996 265.144 379.127 264.386L379.534 264.108C381.357 262.851 382.465 262.395 384.395 262.473C386.044 262.539 386.876 262.992 387.663 263.984L387.864 264.248C388.246 264.76 389.253 265.117 390.048 265.399C390.644 265.61 391.121 265.779 391.126 265.939C391.138 266.313 387.682 266.315 386.793 265.172L386.599 264.914C386.016 264.144 385.561 263.876 384.309 263.826C382.841 263.767 382.013 264.079 380.559 265.061L380.152 265.34C378.679 266.351 377.741 266.765 376.287 266.801C374.489 266.846 373.271 266.564 372.146 265.97L371.911 265.842L371.235 265.443C370.761 265.167 370.45 265.046 370.052 265.003L369.808 264.977C368.779 264.878 366.659 265.98 365.114 266.783C364.145 267.287 363.402 267.674 363.296 267.572C363.068 267.353 367.77 263.463 369.812 263.616ZM379.517 273.578L379.175 273.611C377.544 273.801 374.3 277.388 374.507 277.517C374.603 277.576 375.143 277.179 375.848 276.661C376.971 275.835 378.512 274.701 379.337 274.622L379.533 274.604C379.852 274.577 380.113 274.62 380.52 274.754L381.103 274.949L381.304 275.01C382.265 275.283 383.261 275.311 384.676 275.01C385.821 274.766 386.512 274.32 387.553 273.35L387.84 273.082C388.87 272.137 389.487 271.782 390.654 271.607C391.648 271.458 392.041 271.589 392.594 272.074L392.779 272.236C393.62 272.952 396.35 272.435 396.295 272.16C396.271 272.042 395.874 271.988 395.378 271.919C394.716 271.829 393.877 271.714 393.513 271.391L393.322 271.225C392.581 270.606 391.868 270.394 390.558 270.59C389.023 270.821 388.203 271.324 386.915 272.527L386.628 272.794C385.826 273.525 385.318 273.833 384.503 274.007C383.287 274.266 382.494 274.243 381.721 274.023C381.608 273.991 381.496 273.956 381.351 273.907L381.053 273.805L380.82 273.731C380.353 273.59 379.977 273.538 379.517 273.578ZM387.638 280.535L387.979 280.502C388.439 280.462 388.815 280.514 389.283 280.655L389.516 280.729L389.814 280.831C389.959 280.88 390.07 280.915 390.183 280.947C390.957 281.167 391.75 281.19 392.966 280.931C393.781 280.757 394.288 280.449 395.09 279.718L395.378 279.451C396.666 278.248 397.486 277.745 399.02 277.514C400.331 277.318 401.043 277.53 401.785 278.149L401.976 278.315C402.34 278.638 403.179 278.753 403.841 278.843C404.337 278.912 404.734 278.966 404.758 279.084C404.813 279.359 402.083 279.876 401.242 279.16L401.057 278.998C400.503 278.513 400.111 278.382 399.116 278.531C397.95 278.706 397.333 279.061 396.303 280.006L396.016 280.274C394.974 281.244 394.283 281.69 393.139 281.934C391.724 282.235 390.727 282.207 389.767 281.934L389.566 281.873L388.983 281.678C388.575 281.544 388.315 281.501 387.996 281.528L387.8 281.546C386.975 281.625 385.434 282.759 384.31 283.585C383.606 284.103 383.065 284.5 382.97 284.441C382.763 284.312 386.006 280.725 387.638 280.535ZM398.81 287.987L398.542 288.062C397.265 288.444 395.177 291.769 395.361 291.842C395.446 291.876 395.821 291.482 396.312 290.969C397.093 290.15 398.166 289.027 398.814 288.847L398.968 288.805C399.22 288.738 399.434 288.737 399.779 288.786L400.272 288.86L400.441 288.88C401.247 288.963 402.048 288.845 403.137 288.405C404.017 288.048 404.507 287.594 405.202 286.672L405.394 286.418C406.085 285.517 406.528 285.147 407.436 284.842C408.21 284.583 408.542 284.632 409.053 284.942L409.223 285.045C409.996 285.499 412.106 284.701 412.023 284.489C411.988 284.398 411.663 284.41 411.256 284.426C410.714 284.446 410.027 284.473 409.691 284.266L409.515 284.16C408.835 283.77 408.235 283.701 407.215 284.043C406.021 284.443 405.437 284.961 404.577 286.105L404.385 286.359C403.846 287.056 403.484 287.374 402.857 287.627C401.922 288.006 401.284 288.1 400.635 288.033C400.54 288.023 400.446 288.01 400.323 287.992L400.071 287.953L399.874 287.926C399.48 287.879 399.173 287.891 398.81 287.987ZM407.093 294.278L407.361 294.203C407.723 294.107 408.031 294.095 408.425 294.142L408.621 294.168L408.874 294.208C408.997 294.226 409.091 294.239 409.186 294.249C409.835 294.315 410.472 294.222 411.408 293.843C412.035 293.589 412.397 293.272 412.935 292.574L413.128 292.321C413.987 291.177 414.572 290.659 415.766 290.259C416.786 289.917 417.386 289.986 418.066 290.376L418.242 290.482C418.578 290.689 419.265 290.662 419.807 290.642C420.213 290.626 420.539 290.614 420.574 290.705C420.657 290.917 418.547 291.715 417.774 291.261L417.603 291.157C417.093 290.848 416.761 290.798 415.986 291.058C415.078 291.362 414.635 291.733 413.945 292.634L413.753 292.888C413.058 293.81 412.568 294.264 411.687 294.62C410.599 295.061 409.798 295.179 408.992 295.096L408.823 295.076L408.329 295.002C407.984 294.953 407.77 294.954 407.519 295.021L407.364 295.063C406.717 295.243 405.644 296.366 404.862 297.185C404.372 297.698 403.996 298.092 403.911 298.058C403.728 297.984 405.815 294.66 407.093 294.278ZM417.362 300.358L417.094 300.432C415.817 300.814 413.729 304.139 413.913 304.213C413.998 304.247 414.374 303.853 414.864 303.339C415.645 302.521 416.718 301.397 417.366 301.217L417.52 301.176C417.772 301.109 417.986 301.107 418.331 301.157L418.824 301.23L418.993 301.25C419.8 301.333 420.6 301.215 421.689 300.775C422.569 300.419 423.059 299.965 423.755 299.042L423.946 298.788C424.637 297.888 425.08 297.517 425.988 297.213C426.762 296.953 427.094 297.003 427.605 297.312L427.775 297.415C428.548 297.869 430.658 297.072 430.575 296.859C430.54 296.768 430.215 296.781 429.809 296.796C429.266 296.817 428.58 296.843 428.243 296.637L428.067 296.531C427.387 296.141 426.788 296.071 425.768 296.413C424.573 296.814 423.989 297.332 423.129 298.475L422.937 298.729C422.398 299.426 422.036 299.744 421.409 299.998C420.474 300.376 419.836 300.47 419.187 300.403C419.092 300.394 418.998 300.381 418.875 300.362L418.623 300.323L418.426 300.296C418.032 300.25 417.725 300.261 417.362 300.358Z" fill="#FFB61D"/>
</svg>
