<svg width="253" height="183" viewBox="0 0 253 183" fill="none" xmlns="http://www.w3.org/2000/svg">
<path fill-rule="evenodd" clip-rule="evenodd" d="M155.379 182.889C182.643 182.889 206.569 162.605 193.132 135.054C179.695 107.504 229.622 108.394 244.287 89.3527C262.173 66.1313 256.993 -32.44 142.175 27.6539C123.783 37.2802 76.5471 17.7506 60.8788 27.4409C42.4356 38.8472 16.4871 62.2037 42.4356 86.1291C55.2173 97.9143 9.39179 128.503 29.4625 155.903C49.0464 182.638 62.7744 157.152 92.5907 162.605C122.407 168.058 135.13 182.889 155.379 182.889Z" fill="#64FCD9"/>
<path d="M123.733 134.959C123.733 134.959 130.011 132.005 132.355 129.951C134.698 127.896 137.612 122.791 137.612 122.791C137.612 122.791 169.617 145.908 190.485 142.611C195.294 141.851 204.662 138.654 205.26 133.022C206.891 117.644 184.319 113.713 189.25 105.915C192.259 101.154 201.609 108.239 201.609 108.239L240.387 127.316C240.387 127.316 226.99 160.345 194.479 161.669C154.486 163.297 123.733 134.959 123.733 134.959Z" fill="white"/>
<path fill-rule="evenodd" clip-rule="evenodd" d="M92.9885 5.61007C92.6245 5.46716 90.6698 3.07342 88.1884 2.63775C87.0607 2.43978 88.0842 3.87585 86.8432 3.88877C83.147 3.92726 77.1404 3.23275 76.0277 3.88877C75.2007 4.37479 77.022 6.07268 76.0277 6.15063C66.6466 6.88606 52.335 16.2542 49.2299 20.7992C48.2417 22.2456 56.2338 19.7916 54.9604 20.5067C53.5312 21.3092 51.9462 26.5644 50.9984 30.6232C50.3423 33.4181 49.9292 37.0151 49.7834 40.9281C49.6619 44.3063 49.7105 44.8653 50.1965 46.7124C50.7554 48.7783 51.1928 49.3859 51.9462 49.0942C52.2135 48.997 52.335 48.6324 52.335 47.9519C52.335 47.4172 52.6266 45.8132 52.9911 44.3792L53.6229 41.803L53.8902 42.8724C54.2304 44.1119 56.223 47.9519 58.0212 50.7469C58.1182 50.8952 58.5355 50.7065 58.9117 49.7969C59.2546 48.968 59.1155 47.6438 59.6979 46.2246C61.0247 42.9918 63.63 38.7886 66.6466 35.4241C71.1049 30.4516 72.584 24.6969 76.7632 20.0775C84.5624 11.4567 94.3509 6.14505 92.9885 5.61007Z" fill="white"/>
<path fill-rule="evenodd" clip-rule="evenodd" d="M55.0712 21.6796C53.8201 22.6858 51.963 30.8474 51.9311 30.9838C51.275 33.7787 50.6425 43.4846 51.289 45.3222C51.9355 47.1598 53.7457 40.5357 53.7457 40.5357C53.7457 40.5357 56.4818 47.6416 58.8995 49.5899C59.0028 49.6731 56.0258 40.7984 55.0712 35.6175C53.811 28.7784 55.7832 21.107 55.0712 21.6796Z" fill="#E7EAEE"/>
<path fill-rule="evenodd" clip-rule="evenodd" d="M101.703 164.617C104.036 164.106 107.972 162.329 109.479 161.721C110.986 161.114 115.579 154.628 117.231 147.312C118.422 141.917 119.029 134.237 118.349 132.949C118.248 132.766 117.881 129.274 118.859 130.414C121.034 132.949 123.616 136.928 131.762 129.797C133.981 127.855 136.922 125.349 136.148 123.133C133.981 116.933 124.59 104.449 123.158 103.503C121.446 102.372 112.794 103.333 99.9173 99.5319C85.3144 95.2212 79.2338 82.5274 73.5193 84.1798C68.8978 85.5161 57.8253 93.7281 55.0465 98.9285C41.9275 123.479 57.8253 140.683 61.4459 145.624L64.9612 147.142L65.0827 150.277L65.2528 152.246C65.5687 156.013 65.6902 156.353 67.3912 157.617C71.6438 160.85 80.0273 163.863 87.609 164.933C91.1325 165.419 98.7871 165.249 101.703 164.617Z" fill="white"/>
<path fill-rule="evenodd" clip-rule="evenodd" d="M66.3434 149.13L66.5135 151.098C66.8294 154.865 66.9509 155.206 68.6519 156.47C71.1606 158.376 75.107 160.207 79.4783 161.608C82.5169 162.581 85.7607 163.347 88.8697 163.785C92.3933 164.271 100.048 164.101 102.964 163.469C104.405 163.157 92.5493 153.841 85.5648 156.47C80.2011 158.488 67.559 143.09 72.6991 139.067C78.4652 134.555 67.8992 116.756 67.559 112.892C67.2188 109.028 65.879 108.104 65.8399 108.24C65.8008 108.376 65.8008 108.838 65.906 109.952C66.3593 114.753 66.3434 149.13 66.3434 149.13Z" fill="#E7EAEE"/>
<path fill-rule="evenodd" clip-rule="evenodd" d="M65.0778 111.789C65.588 111.689 66.0821 112.023 66.1814 112.533C68.0154 121.957 75.773 128.336 89.6449 131.673C103.599 135.029 113.104 134.847 118.112 131.265C118.535 130.963 118.22 133.552 117.91 133.751C114.644 135.846 103.538 138.972 90.2849 136.147C73.3395 132.534 65.3831 118.283 64.3339 112.892C64.2346 112.382 64.5677 111.888 65.0778 111.789Z" fill="#FFB61D"/>
<path fill-rule="evenodd" clip-rule="evenodd" d="M58.0115 94.7861C58.4626 94.528 75.2932 113.82 98.3906 118.187C121.488 122.554 127.08 119.777 127.979 113.82C128.057 113.306 128.536 112.953 129.05 113.03C129.564 113.108 129.918 113.587 129.84 114.101C128.701 121.65 118.013 123.446 98.074 120.043C78.3851 116.682 64.8864 108.699 57.662 96.0705C57.4039 95.6193 57.5604 95.0443 58.0115 94.7861Z" fill="#FFB61D"/>
<path fill-rule="evenodd" clip-rule="evenodd" d="M154.955 93.7164C154.323 93.4976 153.643 93.0115 153.206 92.4525L152.477 91.5533L155.052 89.0014C159.013 85.1127 162.051 81.1269 164.675 76.3876C165.55 74.8078 167.761 69.5339 167.761 69.0235C167.761 68.8534 168.029 68.1729 168.345 67.468C168.831 66.4473 169.195 66.0584 170.24 65.4751C171.479 64.746 172.889 64.503 173.496 64.9161C174.663 65.6938 174.663 68.1486 173.496 72.3774C172.208 77.0195 170.483 80.3492 166.911 85.137C166.352 85.8662 165.307 87.3001 164.554 88.2966C162.537 90.97 161.225 92.2581 159.451 93.2546C157.701 94.2267 156.681 94.3483 154.955 93.7164ZM172.403 91.529L174.152 92.3067C174.515 92.4742 178.517 94.3976 183.325 96.7079C191.076 100.433 200.92 105.164 200.98 105.164C201.077 105.164 201.533 104.109 201.636 102.879C201.879 100.23 202.778 96.6328 203.823 94.1295C204.309 93.0115 204.698 91.6143 204.698 91.4927C204.698 91.4373 204.303 91.2779 203.656 91.017C202.886 90.7064 201.759 90.2519 200.518 89.6576C194.394 86.7168 182.414 80.7137 180.932 79.8144C179.474 78.9638 179.182 78.8909 179.182 79.4499C179.182 80.179 177.7 83.5573 176.558 85.3801C175.95 86.3765 174.76 88.175 173.909 89.3659L172.403 91.529ZM200.567 100.789C201.263 101.193 200.056 101.785 199.765 101.882C198.048 102.028 196.026 101.705 194.37 100.74C193.504 100.126 186.685 96.3372 182.162 93.8239C180.094 92.6749 178.506 91.7925 178.186 91.6019C177.165 90.9943 176.193 90.3381 176.023 90.1436C175.513 89.4874 175.999 89.1958 177.433 89.3173C178.295 89.3904 199.061 99.9163 200.567 100.789ZM101.786 164.417C103.661 164.007 106.57 162.778 108.423 161.996L108.425 161.995L108.43 161.994L108.436 161.991C108.884 161.802 109.269 161.639 109.562 161.521C111.069 160.913 115.662 154.428 117.314 147.112C118.505 141.717 119.112 134.037 118.432 132.749C118.022 132.003 120.459 134.505 122.274 136.369L122.277 136.372L122.28 136.376C122.828 136.938 123.318 137.442 123.656 137.779C134.251 148.303 150.022 156.761 166.4 160.722C174.565 162.715 180.373 163.42 188.173 163.42C201.271 163.42 211.599 160.844 220.979 155.181C221.423 154.913 221.839 154.667 222.235 154.432L222.24 154.429C225.51 152.493 227.457 151.34 232.789 145.338C238.769 138.606 244.088 122.978 245.862 117.583C246.64 115.152 248.535 105.486 248.535 103.073C248.535 100.217 247.539 98.8688 246.178 97.4835C243.772 95.126 240.516 94.2753 237.819 95.2961L236.555 95.7822L236.166 94.4941C235.608 92.5497 234.441 90.9943 232.643 89.8277C229.97 88.0535 229.581 87.932 227.175 87.932C225.304 87.932 224.794 88.0292 223.603 88.5882L222.218 89.2201L221.927 88.3452C221.368 86.5467 219.493 84.0395 218.038 83.3142C216.749 82.671 214.516 82.6121 212.96 82.9011C209.558 83.533 207.128 85.1127 206.131 87.3244C205.84 88.0049 205.475 88.5396 205.329 88.5396C205.208 88.5396 200.421 87.2024 194.71 84.6748C193.747 84.247 192.842 83.8459 191.992 83.4692C181.738 78.9233 179.515 77.938 179.717 76.7035C179.887 75.6585 179.838 75.0752 179.547 74.1759C179.037 72.6691 178.453 72.2559 176.801 72.2559C175.489 72.2559 175.489 72.2559 175.635 71.5997C176.412 67.8812 176.388 65.7424 175.562 64.3814C175.003 63.4822 174.347 63.1176 172.84 62.8989C171.965 62.7774 171.552 62.8503 170.58 63.385C169.924 63.7252 169.365 63.9682 169.316 63.9196C169.268 63.871 169.438 62.5343 169.705 60.9545C171.698 49.2643 170.159 39.192 165.08 28.4983C165.031 28.3962 164.975 28.2755 164.911 28.1373L164.91 28.1365C163.366 24.8212 157.158 11.4903 139.403 4.76371C138.599 4.45924 137.839 4.16484 137.108 3.8819C131.06 1.54051 127.039 -0.0160282 117.338 0.000124533C106.465 0.0182292 102.782 1.55558 95.6138 4.83662C94.6175 5.2984 93.7427 5.56574 93.6698 5.46852C93.5969 5.347 93.1352 5.05536 92.6735 4.81232C92.2118 4.56928 91.2155 3.96168 90.4865 3.4756C88.3967 2.06596 87.1087 1.48267 86.4526 1.62849C85.6993 1.82292 85.6993 2.45483 86.4526 2.74648C86.7685 2.868 87.133 3.28116 87.2788 3.69433C87.5947 4.56928 87.9592 4.66649 88.178 3.93737C88.2752 3.67003 88.421 3.4756 88.4939 3.5242C88.5215 3.53803 88.614 3.58135 88.7552 3.64744C89.1104 3.81374 89.7735 4.12423 90.4865 4.47206C91.4828 4.95814 92.5763 5.46852 92.8679 5.59004C93.4025 5.78448 93.2324 5.9303 90.9239 7.29132C81.9085 12.5896 74.5698 20.8286 70.4631 30.21C69.8313 31.6196 69.2724 32.4946 68.6891 32.9806C67.2068 34.2202 64.2908 37.7442 63.6104 39.1296C63.2459 39.883 62.4683 41.0496 61.8608 41.7301C61.2776 42.4106 60.6458 43.2855 60.4271 43.6501C60.2327 44.039 60.0383 44.3063 59.9654 44.2577C59.9168 44.1848 59.9897 42.9939 60.1598 41.6086C60.5243 38.3761 60.5243 37.5255 60.2327 37.4526C59.7953 37.3311 59.1635 39.0323 58.8961 41.1468C58.7017 42.4349 58.6531 44.3792 58.7746 46.3722L58.9205 49.5317L57.1951 46.7367C56.6009 45.8007 56.0158 44.8646 55.6007 44.2007L55.6006 44.2004L55.6002 44.1999L55.5991 44.198L55.5983 44.1968C55.3357 43.7766 55.1415 43.466 55.0567 43.3342C54.4249 42.4106 54.0604 41.0253 54.3277 40.5635C54.4735 40.2962 54.4492 40.1746 54.2062 40.1746C53.6959 40.1746 52.6996 41.803 52.0435 43.6744C51.7276 44.5494 51.4117 45.2785 51.3145 45.2785C50.95 45.2785 51.1201 36.5776 51.5089 33.7827C52.3108 28.2657 54.4249 21.4606 55.3726 21.4606C55.567 21.4606 55.7371 21.3633 55.7371 21.2175C55.7371 20.78 55.1053 20.9502 54.595 21.5092C53.4529 22.7487 51.9463 26.5644 50.9986 30.6232C50.3425 33.4181 49.9294 37.0151 49.7836 40.9281C49.6621 44.3063 49.7107 44.8653 50.1967 46.7124C50.7556 48.7782 51.193 49.3858 51.9463 49.0942C52.2136 48.997 52.3351 48.6324 52.3351 47.9519C52.3351 47.4172 52.6267 45.8132 52.9912 44.3792L53.623 41.803L53.8903 42.8724C54.2305 44.1119 56.2231 47.9519 58.0213 50.7469C59.2607 52.6426 59.285 52.7641 59.6981 55.7292C59.9168 57.4062 60.5972 61.4851 62.1767 67.7597C63.5723 73.3036 71.4178 78.8031 73.3769 80.1764L73.3769 80.1764L73.3772 80.1766C73.6352 80.3574 73.791 80.4667 73.8165 80.495C74.0595 80.7623 74.3997 80.9081 74.5941 80.8352C74.8128 80.7623 74.9343 80.8595 74.9343 81.1269C74.9343 81.3699 75.1044 81.6859 75.2988 81.8317C75.5418 82.0018 75.7119 82.658 75.7605 83.8003C75.882 86.0849 77.583 90.4596 78.8953 91.8935C79.7458 92.8171 81.5197 93.2059 83.488 92.8657C84.7759 92.6713 85.1404 92.5254 85.0189 92.2338C84.946 92.0394 85.4077 92.2824 86.0395 92.7685C93.4268 98.407 100.911 101.785 109.319 103.244C112.575 103.802 117.97 104.118 120.91 103.9C123.511 103.73 123.511 103.73 123.389 104.24C123.219 104.92 123.438 105.334 127.01 111.385C129.853 116.173 130.096 116.489 133.255 119.722C139.962 126.648 147.276 132.019 155.563 136.175C163.363 140.064 175.817 143.296 187.201 144.317C198.586 145.338 206.763 134.887 206.739 132.214C206.69 128.544 206.18 126.138 204.941 123.805C203.726 121.544 202.924 120.767 199.279 118.336C195.221 115.639 192.718 113.427 191.065 111.069C190.02 109.587 189.631 107.91 189.631 107.011C189.631 106.427 190.385 105.115 191.503 104.848C192.523 104.58 192.718 104.605 193.86 105.164C194.54 105.479 196.314 106.306 197.772 107.011C199.254 107.691 200.688 108.372 200.98 108.517C201.839 108.756 202.203 110.439 202.4 111.351C202.444 111.555 202.48 111.721 202.511 111.823C202.851 113.087 204.461 114.718 205.5 115.274C207.324 116.25 211.818 116.38 213.057 115.043C213.373 114.703 214.421 114.285 214.636 114.411C214.852 114.538 215.633 115.59 215.633 116.441C215.657 117.899 216.41 119.236 218.014 120.572C221.052 123.1 223.409 123.707 225.79 122.589C227.03 122.006 228.045 121.778 228.045 121.778C228.045 121.778 229.058 123.071 229.119 123.513C229.597 126.966 234.708 128.414 236.069 128.56C236.381 128.591 236.988 128.457 237.605 128.322C238.429 128.141 239.27 127.956 239.447 128.155C239.794 128.547 233.639 138.727 232.789 140.015C224.697 152.167 208.95 159.604 189.68 160.382C177.165 160.893 161.783 157.393 148.443 151.025C139.913 146.918 132.356 141.887 124.264 134.839C122.854 133.624 121.226 132.238 120.643 131.752C120.06 131.29 118.675 129.711 117.606 128.252C115.807 125.822 114.787 124.947 114.787 125.773C114.787 126.138 115.953 128.374 117.29 130.585C117.824 131.46 118.164 132.068 118.043 131.971C117.921 131.874 117.533 133.623 117.168 135.859C115.977 143.029 114.009 150.102 112.016 154.501C110.923 156.882 108.826 158.661 108.194 159.147C105.862 160.921 102.369 161.719 97.5335 162.205C91.4099 162.813 82.3945 161.452 75.5175 158.875C73.695 158.195 69.0051 156.226 68.6891 156.007C68.6702 155.989 68.5625 155.289 68.4122 154.313C68.3699 154.038 68.3241 153.741 68.276 153.431C67.4012 147.428 66.1862 124.315 66.1862 113.621C66.1862 109.198 66.1376 108.226 65.846 108.226C65.2385 108.226 64.9955 108.809 64.7282 110.899C64.1207 115.663 64.2422 140.526 64.8983 145.751L65.0441 146.942L64.2179 146.48C62.9543 145.751 58.1428 140.866 56.4661 138.606C55.0466 136.673 54.203 134.199 53.5718 132.347L53.5717 132.347C53.4249 131.916 53.2897 131.52 53.1613 131.171C49.6378 121.401 50.8771 110.437 55.7371 100.57C59.8682 92.1609 64.9469 87.4945 72.3828 85.2342C73.5978 84.8697 74.667 84.4808 74.7885 84.3836C75.2502 83.9461 72.2856 84.1649 70.6575 84.6752C65.36 86.3036 59.8196 90.7513 56.053 96.4384C50.7556 104.41 48.3741 116.173 50.0509 126.211C50.4397 128.593 52.0192 133.745 52.4566 134.11C52.4953 134.148 52.6952 134.568 52.9975 135.202C53.8333 136.956 55.4519 140.352 56.6119 141.887C58.0213 143.807 62.2739 147.987 64.0478 149.275L65.1656 150.077L65.3357 152.046C65.6516 155.813 65.7731 156.153 67.4741 157.417C71.7267 160.65 80.1103 163.663 87.6919 164.733C91.2155 165.219 98.8701 165.049 101.786 164.417ZM183.921 141.595C169.802 140.356 152.744 133.623 140.399 123.221C135.199 118.822 128.443 110.267 125.77 105.528C125.212 104.556 124.798 104.094 124.312 103.973C123.802 103.827 124.24 103.681 126.329 103.341C135.15 101.834 143.728 98.164 150.654 92.9386L151.674 92.1852L151.966 92.89C152.622 94.4697 155.149 96.0738 157.021 96.0738C157.774 96.0738 160.301 94.9315 161.832 93.8865L162.877 93.1816L163.727 94.0323C164.505 94.81 164.651 94.8586 166.109 94.8586C167.786 94.8586 169.802 94.1052 170.92 93.0358L171.528 92.4768L173.253 93.6191C174.177 94.2753 176.752 95.7093 178.964 96.8515C182.269 98.5528 185.768 100.521 189.097 102.563L189.631 102.903L189.121 103.584C188.587 104.313 187.591 105.698 187.591 107.813C187.591 110.194 190.067 114.474 194.807 117.413C198.532 119.722 204.941 124.263 204.698 130.901C204.668 131.703 203.774 133.696 202.584 135.495C201.806 136.637 199.643 138.338 197.675 139.335C194.321 141.012 188.416 141.984 183.921 141.595ZM54.352 32.4946C55.0081 32.6404 55.4455 32.8591 55.3483 32.9563C55.0324 33.2723 53.3557 33.1265 52.9669 32.7376C52.3594 32.1543 52.5052 31.7411 53.3557 31.571C53.7931 31.4981 54.4492 31.1335 54.8137 30.769C55.1782 30.4044 55.4941 30.2343 55.4941 30.3558C55.4941 30.6718 54.2791 31.7898 53.6716 32.0328C53.2828 32.2029 53.4043 32.2758 54.352 32.4946ZM64.0235 32.8834C64.7282 32.4946 64.5824 32.2272 63.7562 32.3487C62.93 32.4703 62.8814 32.373 63.416 31.5467C63.6347 31.2308 63.7562 30.769 63.7076 30.5259C63.6347 30.21 63.4646 30.3558 63.0758 31.1335C62.7842 31.6925 62.3711 32.1543 62.1767 32.1543C61.5692 32.1543 61.5206 32.6404 62.1038 32.8591C62.8571 33.1751 63.4403 33.1751 64.0235 32.8834ZM55.6156 19.6134C55.0324 19.7107 53.2099 20.4398 51.6061 21.2418C49.978 22.0195 48.5928 22.6758 48.4956 22.6514C46.017 22.3841 49.4677 18.2524 55.7371 14.0235C61.7393 9.96476 65.7974 7.82601 69.564 6.73233C71.9211 6.05182 74.5698 5.9546 75.3231 6.5136C75.7362 6.82955 75.5904 6.85385 73.7922 6.87816C69.9042 6.87816 65.4086 8.87108 58.0942 13.7562C54.3034 16.2838 49.9051 19.9051 49.9051 20.4884C49.9051 20.6099 50.6098 20.3669 51.4846 19.978C53.3557 19.1274 55.2754 18.6899 56.1259 18.8843C57.025 19.1274 56.8306 19.4433 55.6156 19.6134ZM65.0198 21.7036C67.304 21.2418 67.4012 21.2175 67.4012 20.9745C67.4012 20.853 66.5264 20.7314 65.4329 20.6828L63.4646 20.6099L65.2871 18.5441C66.2834 17.4018 67.4498 16.2595 67.8629 15.9922C68.7621 15.4089 68.8107 14.9957 68.0816 14.7526L67.5227 14.5825L68.1302 14.3638C68.4704 14.2423 69.1023 14.1937 69.5397 14.2666C70.1958 14.3638 70.3416 14.3152 70.2687 13.9749C70.1958 13.6347 69.9285 13.5618 68.7378 13.5861C65.2628 13.6347 63.7805 14.5582 66.5021 14.9957C67.2554 15.1172 67.8872 15.3116 67.8872 15.4332C67.8872 15.5304 67.7657 15.6276 67.6199 15.6276C67.1582 15.6276 63.2459 19.5891 62.7599 20.5613C62.0066 21.9952 62.4197 22.214 65.0198 21.7036ZM81.058 12.2736C80.3533 12.3223 80.1832 12.4438 80.2318 12.784L80.2393 12.8335C80.2666 13.0133 80.2822 13.1166 80.2419 13.148C80.1875 13.1903 80.0312 13.1016 79.6637 12.8931L79.6 12.8569C79.1383 12.6139 79.0897 12.4924 79.357 12.2979C79.5271 12.1521 79.9888 11.9334 80.3533 11.8605L81.0337 11.6903L80.5234 11.1557C80.2561 10.8397 80.1103 10.5481 80.1832 10.4508C80.3776 10.2564 82.759 10.5238 83.0992 10.7911C83.245 10.9126 83.4637 10.8883 83.6095 10.7425C83.9497 10.4022 84.4114 10.6696 84.4114 11.2043C84.4114 11.4959 84.3385 11.5202 84.1198 11.3015C83.9254 11.1071 83.7553 11.1071 83.5366 11.2772C83.3422 11.4473 83.1964 11.4473 83.0749 11.2529C83.002 11.1314 82.5403 11.0098 82.0543 11.0098C81.6059 11.0098 81.3939 11.0098 81.3507 11.0953C81.3118 11.1719 81.4087 11.3173 81.5926 11.5931C81.9802 12.1989 81.9572 12.2007 81.0662 12.273L81.058 12.2736ZM77.3643 5.80878C77.3643 5.49283 77.0727 4.93384 76.7082 4.56928L76.0278 3.88876L79.6729 4.03459C81.6898 4.1318 83.974 4.35054 84.7759 4.56928C85.5778 4.76371 86.5012 4.90953 86.8414 4.90953C87.3517 4.90953 87.2545 4.81232 86.3068 4.30193C84.6544 3.45129 82.5403 3.03812 78.4822 2.74648C73.6221 2.40622 71.1678 2.868 71.6295 4.0832C71.7024 4.32624 72.0912 4.44776 72.6744 4.44776C73.8651 4.44776 75.8091 5.15257 76.4652 5.80878C77.1699 6.5136 77.3643 6.5136 77.3643 5.80878ZM65.5058 70.1658C67.4741 72.6934 70.0743 75.5612 71.2893 76.5334C72.0183 77.1167 72.6501 77.6028 72.6987 77.6028C72.723 77.6028 72.1884 76.4848 71.508 75.1238C68.762 69.6554 67.1582 64.2113 66.4049 57.9408C66.2348 56.5555 65.9675 55.3889 65.6759 54.9029C65.0927 53.9307 65.0927 52.6669 65.7002 51.476C66.0161 50.8441 66.1862 50.042 66.1862 49.1671V47.8304L65.0198 49.0456C63.8777 50.2365 62.7842 50.7226 62.7842 49.9934C62.7842 49.4588 64.5824 46.8825 65.5301 46.0805C66.2834 45.4486 66.3806 45.2299 66.6236 43.3341C66.7937 42.1919 67.1825 40.1746 67.4984 38.8379C67.8386 37.5012 68.033 36.3589 67.9844 36.3103C67.8143 36.1402 62.1038 42.6997 61.3262 44.7924C61.1554 45.2518 60.6944 46.0562 60.3299 46.5423L59.6981 47.3536C59.6981 47.3536 59.8943 48.4897 60.1112 49.9175C60.3302 51.3601 60.433 52.3517 60.5246 53.235C60.6471 54.4165 60.7494 55.404 61.0832 57.0173C61.472 59.0102 61.8608 60.7358 61.958 60.8573C62.0309 61.0032 62.3468 62.1211 62.6627 63.3606C63.3431 66.107 64.4852 68.829 65.5058 70.1658ZM164.116 93.1573L163.606 92.647C163.606 92.647 172.076 81.8844 173.593 77.9187C174.752 74.8924 175.433 74.0342 176.353 74.0342C176.867 74.0342 177.287 74.1516 177.481 74.4433C177.822 74.9536 178.149 75.5855 177.712 77.7486C176.983 81.2484 175.865 83.5573 172.512 88.5396C171.734 89.6819 170.738 90.9457 170.3 91.3831C169.28 92.331 166.984 93.3032 165.647 93.5219C164.797 93.6434 164.554 93.5948 164.116 93.1573Z" fill="#00160A"/>
<path d="M231.404 116.933C234.427 108.695 233.969 106.939 233.445 106.768C233.445 106.768 232.29 107.424 231.78 108.809C230.832 111.41 227.588 118.215 226.373 119.43C224.94 120.864 224.94 120.864 223.482 120.864C222.024 120.864 217.819 118.668 217.246 116.503C216.33 113.04 220.274 101.007 220.371 100.327L219.715 99.8652C219.278 100.278 213.588 117.534 206.107 113.038C205.25 112.523 203.434 110.097 203.288 108.809C202.479 105.066 206.194 91.9786 206.826 89.2903C207.391 86.8841 210.335 84.6509 213.956 84.6509C219.521 84.6509 218.773 89.5159 221.266 91.2303C222.37 91.99 224.186 90.6126 224.745 90.5081C227.88 89.9248 229.081 90.604 231.379 92.4282C233.153 93.8362 234.466 96.623 235.91 97.6049C236.713 98.1504 237.564 97.4047 237.843 97.2647C238.986 96.6906 241.44 97.1188 242.12 97.6049C243.117 98.0399 245.562 100.39 245.948 101.757C247.698 107.951 242.172 121.685 240.085 124.261C236.632 128.525 228.38 125.171 231.404 116.933Z" fill="white"/>
<path fill-rule="evenodd" clip-rule="evenodd" d="M91.7015 94.3593C98.3597 98.5639 105.225 101.31 113.05 102.064C119.222 102.647 127.544 101.845 133.522 99.9006C138.552 98.2722 145.356 93.7613 149.901 89.9455C158.722 82.5571 164.286 71.0164 166.716 58.7672C167.057 57.0416 167.575 52.704 167.551 48.4022C167.551 43.3956 165.348 29.7139 158.673 21.8251C144.906 5.55448 122.275 -1.77498 103.256 4.48757C96.3948 6.74668 89.0899 10.8397 83.5737 16.1866C76.6238 22.9674 71.4965 32.2029 69.4553 41.6329C67.3169 51.5975 70.0985 63.5065 74.9343 73.2767C78.798 81.054 85.1647 90.2033 91.7015 94.3593ZM156.583 64.989C152.015 78.7208 140.108 88.9771 125.139 92.088C122.854 92.5497 121.275 92.7199 118.067 92.7685C115.807 92.8414 113.547 92.8171 113.086 92.7685C102.612 91.5047 94.6418 87.6403 87.3031 80.3005C84.0955 77.0681 82.7347 75.3182 80.7421 71.8671C77.6073 66.3987 75.9306 60.8087 75.4203 54.0765C73.6707 31.012 90.1706 11.7876 113.402 9.79464C122.514 9.01691 132.623 11.8119 140.302 17.256C143.145 19.2732 148.297 24.377 149.901 26.7588C150.557 27.7067 156.923 37.0151 158.041 42.362C159.475 49.3129 158.916 58.0138 156.583 64.989Z" fill="white"/>
<path fill-rule="evenodd" clip-rule="evenodd" d="M167.56 48.4022C167.56 64.7153 159.844 82.5499 149.887 90.1665C145.137 93.8004 138.928 98.2006 133.522 99.9005C125.599 102.392 113.05 102.064 113.05 102.064C113.05 102.064 125.853 100.352 130.597 98.4422C144.203 92.966 151.629 84.5598 156.216 76.4941C165.268 60.5729 167.56 48.0059 167.56 48.4022Z" fill="#E7EAEE"/>
<path fill-rule="evenodd" clip-rule="evenodd" d="M113.329 89.852C106.84 89.0256 100.401 86.7167 95.2006 83.2899C92.1145 81.2726 87.4489 76.5334 85.1889 73.1551C81.957 68.2943 79.8186 63.0933 78.7737 57.5033C78.0204 53.4446 78.0447 47.1984 78.798 43.5771C79.5756 39.8829 80.5719 37.0637 82.3458 33.491C84.4113 29.3593 86.5984 26.3213 89.8789 23.0403C95.468 17.4504 101.956 13.902 109.684 12.2007C112.187 11.666 121.251 11.2285 121.566 11.6417C121.639 11.7632 122.125 12.0792 122.636 12.3465C123.146 12.6382 124.507 13.6589 125.625 14.6554C127.301 16.1136 128.055 17.0372 129.513 19.3218C130.509 20.8772 131.311 22.2868 131.311 22.4084C131.311 22.6757 132.088 23.1618 132.526 23.1618C133.133 23.1618 133.546 21.339 133.668 18.1309C133.741 16.3567 133.887 14.8984 133.984 14.8984C134.324 14.8984 138.066 16.9643 139.816 18.1309C143.242 20.4154 146.669 23.6236 149.196 26.9775C150.338 28.4844 150.508 28.8732 150.508 29.7968C150.508 30.6474 150.751 31.3036 151.504 32.616C153.4 35.9214 154.882 40.0774 155.781 44.6708C156.364 47.7574 156.364 53.5904 155.757 56.8228C154.104 65.7181 149.196 74.5647 142.805 80.179C137.386 84.9183 131.627 87.8347 124.823 89.2687C122.49 89.779 115.491 90.1193 113.329 89.852ZM95.954 73.228C96.1727 72.985 96.3185 72.6204 96.2456 72.4503C96.2237 72.3992 95.9194 72.2562 95.474 72.0468L95.474 72.0467C94.4358 71.5586 92.6308 70.7099 91.8486 69.8255C88.7382 66.2771 87.596 63.6279 86.8913 58.1595C86.2109 52.837 86.7825 49.2387 88.0091 43.4556C88.6075 40.6345 90.1979 38.3043 91.1874 36.8545C91.8601 35.8688 92.2551 35.2901 91.8715 35.2409C90.9238 35.0951 90.778 35.168 89.7817 36.1158C87.6433 38.1574 86.6713 39.7857 85.6507 42.9209C84.0711 47.8304 83.7659 61.0979 86.8913 67.0791C90.0168 73.0603 95.3951 73.8599 95.954 73.228ZM130.509 52.8127C130.096 56.5882 128.346 62.0482 126.305 64.43C125.357 65.548 121.878 67.468 118.942 67.0791C116.106 66.7035 113.888 65.3778 111.992 62.5343C110.364 60.0796 109.523 57.1 108.955 53.3474C107.973 46.8673 112.259 39.324 114.106 37.4525C115.977 35.5325 117.314 34.852 119.015 34.8277C120.667 34.8277 121.737 35.1923 123.413 36.3832C126.475 38.5219 131.311 45.4761 130.509 52.8127ZM97.7522 32.7133C98.2382 32.1543 98.3111 31.8869 98.1653 30.8419C98.0681 29.8697 97.8737 29.4808 97.3634 29.0677C96.4643 28.3385 95.3465 28.3385 94.5202 29.1163C93.937 29.6753 93.8641 29.8697 93.937 31.2064C94.0099 32.6404 94.0585 32.7376 94.8604 33.175C95.9297 33.7583 96.9746 33.5882 97.7522 32.7133ZM112.916 17.7177C108.541 20.8529 106.646 22.141 104.678 23.3562C103.123 24.3284 102.637 24.3527 102.637 23.4777C102.637 23.016 102.977 22.5056 103.852 21.7036L105.067 20.5856L102.709 20.2696C100.061 19.9294 97.4849 19.2002 96.926 18.6413C96.0026 17.6934 96.8045 17.4747 99.4289 17.9607C100.595 18.1552 102.855 18.3982 104.459 18.4468L107.375 18.5683L109.489 17.0372C114.131 13.6832 118.942 11.7875 121.251 12.3708C122.684 12.7111 122.514 13.0999 120.886 13.2944C119.015 13.5131 117.873 14.145 112.916 17.7177Z" fill="white"/>
<path d="M119.161 63.7495C119.161 63.628 119.306 63.5065 119.501 63.5065C119.695 63.5065 119.938 63.628 120.011 63.7495C120.084 63.8953 119.938 63.9925 119.671 63.9925C119.379 63.9925 119.161 63.8953 119.161 63.7495Z" fill="white"/>
<path d="M120.619 63.5308C120.619 63.2634 121.226 63.0204 121.907 63.0204C122.441 63.0447 122.441 63.0447 121.979 63.3849C121.445 63.7981 120.619 63.871 120.619 63.5308Z" fill="white"/>
<path d="M116.852 62.8989C116.779 62.7044 116.682 62.3642 116.609 62.1697C116.536 61.9267 116.658 61.8052 116.974 61.8052C117.241 61.8052 117.46 61.951 117.46 62.1454C117.46 62.3399 117.533 62.6558 117.606 62.8746C117.703 63.1419 117.63 63.2634 117.363 63.2634C117.144 63.2634 116.901 63.0933 116.852 62.8989Z" fill="white"/>
<path d="M118.14 62.2913C118.018 61.5621 118.286 61.3191 119.161 61.3191C119.428 61.3191 119.647 61.5621 119.744 61.9753C119.938 62.6801 119.622 63.0204 118.772 63.0204C118.383 63.0204 118.213 62.8502 118.14 62.2913Z" fill="white"/>
<path d="M115.662 62.4128C115.2 62.0482 115.2 62.0482 115.71 62.0482C116.026 62.0482 116.245 62.194 116.245 62.4128C116.245 62.8502 116.245 62.8502 115.662 62.4128Z" fill="white"/>
<path d="M120.546 62.3885C120.23 62.0725 120.376 61.1247 120.764 60.9789C121.469 60.7115 121.785 60.833 121.931 61.4649C122.028 61.8295 122.077 62.1454 122.028 62.1697C121.834 62.3885 120.691 62.5343 120.546 62.3885Z" fill="white"/>
<path d="M122.709 61.8781C122.636 61.8052 122.563 61.4893 122.563 61.1976C122.563 60.7845 122.757 60.6143 123.341 60.4928C123.851 60.3956 124.167 60.4442 124.313 60.6386C124.556 61.0275 124.556 61.5136 124.337 61.6351C123.9 61.8781 122.879 62.024 122.709 61.8781Z" fill="white"/>
<path d="M114.544 61.1246C114.544 60.833 114.763 60.59 115.079 60.5171C115.71 60.3469 115.686 60.3226 115.808 60.9545C115.856 61.3191 115.735 61.4649 115.224 61.5135C114.69 61.5864 114.544 61.4892 114.544 61.1246Z" fill="white"/>
<path d="M116.391 61.149C116.051 60.7844 116.269 60.1039 116.731 60.1039C117.047 60.1039 117.217 60.274 117.217 60.5657C117.217 61.0274 116.658 61.4163 116.391 61.149Z" fill="white"/>
<path d="M117.848 60.4198C117.654 59.9581 118.067 59.6178 118.869 59.6178C119.233 59.6178 119.404 59.7636 119.404 60.0796C119.404 60.3469 119.185 60.59 118.869 60.6872C118.067 60.8816 118.018 60.8816 117.848 60.4198Z" fill="white"/>
<path d="M124.872 60.3469C124.944 60.2254 125.066 60.1039 125.139 60.1039C125.212 60.1039 125.187 60.2254 125.115 60.3469C125.042 60.4927 124.92 60.59 124.847 60.59C124.774 60.59 124.799 60.4927 124.872 60.3469Z" fill="white"/>
<path d="M120.035 59.9338C119.841 59.4477 120.084 59.2047 120.862 59.0831C121.299 59.0345 121.493 59.1318 121.542 59.472C121.712 60.274 120.327 60.7115 120.035 59.9338Z" fill="white"/>
<path d="M114.203 59.5206C113.985 58.7185 114.033 58.6456 114.665 58.6456C115.005 58.6456 115.273 58.7428 115.273 58.8644C115.273 58.9859 115.346 59.2532 115.418 59.4477C115.491 59.6907 115.346 59.8365 114.932 59.9094C114.471 60.0067 114.301 59.9094 114.203 59.5206Z" fill="white"/>
<path d="M122.32 59.2533C122.32 58.8159 122.49 58.6214 122.952 58.4999C123.632 58.3298 124.021 58.67 124.021 59.4478C124.021 59.7637 123.826 59.8609 123.17 59.8609C122.417 59.8609 122.32 59.788 122.32 59.2533Z" fill="white"/>
<path d="M113.475 59.2532C113.402 59.0588 113.45 58.8887 113.572 58.8887C113.718 58.8887 113.815 59.0588 113.815 59.2532C113.815 59.4477 113.766 59.6178 113.718 59.6178C113.669 59.6178 113.572 59.4477 113.475 59.2532Z" fill="white"/>
<path d="M115.929 59.4477C115.588 59.1317 115.783 58.4512 116.22 58.3297C116.488 58.2568 116.755 58.2811 116.828 58.354C117.119 58.6213 116.949 59.3261 116.585 59.472C116.123 59.6421 116.123 59.6421 115.929 59.4477Z" fill="white"/>
<path d="M124.604 59.2775C124.337 58.5727 124.629 58.038 125.309 57.9651C125.819 57.8922 125.965 57.9894 125.965 58.3783C125.965 59.1803 125.698 59.6178 125.212 59.6178C124.944 59.6178 124.677 59.472 124.604 59.2775Z" fill="white"/>
<path d="M117.63 58.9616C117.338 58.6943 117.436 58.2082 117.849 58.0624C118.31 57.8923 119.282 58.3783 119.015 58.6457C118.675 58.9373 117.8 59.1561 117.63 58.9616Z" fill="white"/>
<path d="M119.744 58.354C119.525 58.0137 120.303 57.4304 120.934 57.4304C121.226 57.4304 121.348 57.5762 121.299 57.8436C121.202 58.3297 119.962 58.7185 119.744 58.354Z" fill="white"/>
<path d="M113.086 58.1838C113.086 58.0623 113.013 57.795 112.94 57.5762C112.867 57.3575 112.891 57.1874 113.037 57.1874C113.353 57.1874 113.596 58.1109 113.304 58.3054C113.183 58.3783 113.086 58.3297 113.086 58.1838Z" fill="white"/>
<path d="M113.742 57.6248C113.596 57.0902 113.888 56.7013 114.447 56.7013C114.762 56.7013 115.078 57.6491 114.884 57.9651C114.617 58.3783 113.863 58.1352 113.742 57.6248Z" fill="white"/>
<path d="M115.443 57.7464C115.078 57.3819 115.297 56.5069 115.783 56.3854C116.147 56.2882 116.342 56.4097 116.536 56.8472C116.682 57.1631 116.755 57.4791 116.706 57.5277C116.463 57.7464 115.589 57.9166 115.443 57.7464Z" fill="white"/>
<path d="M122.004 57.7464C121.688 57.4304 121.834 57.236 122.563 56.9687C123.17 56.7742 123.34 56.7985 123.462 57.0902C123.68 57.6735 122.465 58.2325 122.004 57.7464Z" fill="white"/>
<path d="M124.142 57.1874C123.899 56.7985 124.239 56.4583 124.871 56.4583C125.625 56.4583 125.843 57.0902 125.163 57.2846C124.434 57.479 124.312 57.4547 124.142 57.1874Z" fill="white"/>
<path d="M126.208 56.6041C126.208 56.2396 126.645 55.8507 126.84 56.0452C127.01 56.2153 126.67 56.9444 126.427 56.9444C126.305 56.9444 126.208 56.7986 126.208 56.6041Z" fill="white"/>
<path d="M112.77 56.2882C112.672 56.2153 112.6 55.8994 112.624 55.632C112.624 55.1703 112.648 55.1703 112.867 55.7049C113.11 56.2882 113.061 56.5799 112.77 56.2882Z" fill="white"/>
<path d="M113.232 55.9237C113.013 55.073 113.037 55.0001 113.669 55.0001C114.374 55.0001 114.811 55.8994 114.277 56.2396C113.718 56.5799 113.402 56.4827 113.232 55.9237Z" fill="white"/>
<path d="M121.591 56.4097C121.591 56.3368 121.712 55.948 121.858 55.5105C122.198 54.5383 122.952 54.4897 123.122 55.4376C123.195 55.8021 123.219 56.1181 123.195 56.1424C123.073 56.2882 121.591 56.5069 121.591 56.4097Z" fill="white"/>
<path d="M114.957 55.8021C114.86 55.7292 114.787 55.4376 114.787 55.1702C114.787 54.7813 114.86 54.757 115.151 55.0001C115.346 55.1702 115.516 55.4619 115.516 55.632C115.516 55.9965 115.224 56.0938 114.957 55.8021Z" fill="white"/>
<path d="M123.705 55.316C123.559 54.5626 123.875 54.2224 124.628 54.3196C124.993 54.3682 125.114 54.5869 125.114 55.1216C125.114 55.7292 125.017 55.875 124.483 55.9236C123.948 55.9966 123.827 55.875 123.705 55.316Z" fill="white"/>
<path d="M126.086 55.4133C125.77 54.4411 125.868 54.1495 126.524 54.0765C127.107 54.0036 127.18 54.0765 127.18 54.7084C127.18 55.2431 127.034 55.4619 126.67 55.5591C126.402 55.632 126.135 55.5591 126.086 55.4133Z" fill="white"/>
<path d="M112.405 54.0279C112.405 53.5662 112.454 53.3717 112.527 53.6148C112.575 53.8335 112.575 54.2224 112.527 54.4654C112.454 54.6841 112.405 54.4897 112.405 54.0279Z" fill="white"/>
<path d="M113.013 54.3439C112.697 54.0522 112.843 53.1044 113.232 52.9585C113.791 52.7398 114.058 53.0071 114.058 53.8092C114.058 54.3196 113.936 54.514 113.62 54.514C113.377 54.514 113.086 54.4411 113.013 54.3439Z" fill="white"/>
<path d="M114.471 53.6877C114.374 53.3231 114.325 52.9343 114.422 52.8614C114.665 52.6183 114.811 53.0072 114.738 53.712L114.665 54.3925L114.471 53.6877Z" fill="white"/>
<path d="M122.32 53.5175C122.32 53.2502 122.441 53.1044 122.563 53.1773C122.709 53.2502 122.806 53.4932 122.806 53.6877C122.806 53.8821 122.709 54.0279 122.563 54.0279C122.441 54.0279 122.32 53.8092 122.32 53.5175Z" fill="white"/>
<path d="M123.413 53.8335C123.073 53.4689 123.341 52.8127 123.899 52.6669C124.604 52.4967 124.628 52.4967 124.847 53.2016C124.993 53.639 124.896 53.7362 124.264 53.8335C123.875 53.9064 123.486 53.8821 123.413 53.8335Z" fill="white"/>
<path d="M125.649 53.3717C125.382 53.1286 125.454 52.3266 125.722 52.3266C125.868 52.3266 125.965 52.2294 125.965 52.0836C125.965 51.962 125.819 51.8405 125.625 51.8405C125.211 51.8405 124.871 50.6496 125.211 50.3094C125.649 49.8719 126.135 50.3337 126.426 51.5246C126.597 52.1565 126.767 52.8856 126.84 53.1286C126.937 53.4446 126.84 53.5418 126.378 53.5418C126.062 53.5418 125.722 53.4689 125.649 53.3717Z" fill="white"/>
<path d="M126.961 52.0836C126.791 51.3545 126.353 49.8962 126.038 48.8268C125.552 47.2714 125.503 46.8825 125.77 46.7124C125.94 46.5909 126.159 46.4937 126.232 46.4937C126.499 46.4937 127.471 51.476 127.374 52.4481L127.301 53.4203L126.961 52.0836Z" fill="white"/>
<path d="M112.162 51.9621C112.162 51.5732 112.211 51.4274 112.284 51.6705C112.332 51.8892 112.332 52.2294 112.284 52.3996C112.211 52.5454 112.162 52.3753 112.162 51.9621Z" fill="white"/>
<path d="M112.648 51.9135C112.746 51.0628 113.45 50.8684 113.645 51.6461C113.815 52.278 113.863 52.2051 113.134 52.4481C112.624 52.594 112.576 52.5454 112.648 51.9135Z" fill="white"/>
<path d="M122.903 51.6948C122.709 50.9899 123.122 50.5768 123.899 50.674C124.483 50.7469 124.701 51.792 124.215 52.1079C123.608 52.4968 123.049 52.3267 122.903 51.6948Z" fill="white"/>
<path d="M114.058 51.5003C114.058 51.0871 114.179 50.8684 114.446 50.8684C114.689 50.8684 114.787 51.0385 114.738 51.4031C114.617 52.1808 114.058 52.2537 114.058 51.5003Z" fill="white"/>
<path d="M111.895 50.4796C111.895 50.2122 111.968 50.1393 112.041 50.3337C112.114 50.5039 112.089 50.7226 112.016 50.7955C111.944 50.8927 111.871 50.7469 111.895 50.4796Z" fill="white"/>
<path d="M112.357 50.4066C112.357 50.0421 112.503 49.8962 112.867 49.8962C113.207 49.8962 113.329 50.0178 113.28 50.3094C113.159 50.9413 112.357 51.0142 112.357 50.4066Z" fill="white"/>
<path d="M113.693 50.1879C113.523 49.7504 113.523 49.7504 114.252 49.556C114.69 49.4102 114.787 49.4831 114.787 49.8477C114.787 50.431 113.912 50.7226 113.693 50.1879Z" fill="white"/>
<path d="M122.49 49.8476C122.32 49.24 122.636 48.9241 123.486 48.9241C123.899 48.9241 124.021 49.0699 124.021 49.5317C124.021 49.8962 123.875 50.1393 123.68 50.1393C123.486 50.1393 123.17 50.2122 122.976 50.2851C122.757 50.358 122.587 50.2122 122.49 49.8476Z" fill="white"/>
<path d="M124.604 49.2886C124.41 48.8025 124.701 48.438 125.26 48.438C125.6 48.438 125.722 48.6081 125.722 49.0456C125.722 49.4831 125.6 49.6532 125.236 49.6532C124.969 49.6532 124.677 49.4831 124.604 49.2886Z" fill="white"/>
<path d="M112.114 48.9484C112.114 48.438 112.673 47.8547 112.916 48.1221C113.013 48.195 113.086 48.5353 113.086 48.8512C113.086 49.2401 112.94 49.4102 112.6 49.4102C112.284 49.4102 112.114 49.2401 112.114 48.9484Z" fill="white"/>
<path d="M113.45 48.6568C113.256 48.0492 113.474 47.7818 114.301 47.6603C115.054 47.5631 115.297 48.3651 114.641 48.8512C114.009 49.313 113.62 49.2401 113.45 48.6568Z" fill="white"/>
<path d="M122.247 48.5109C122.077 48.3651 122.004 47.4658 122.149 47.4658C122.174 47.4658 122.538 47.3686 122.976 47.2471C123.705 47.0284 123.753 47.0527 123.729 47.7089C123.705 48.195 123.559 48.438 123.194 48.5352C122.538 48.7053 122.441 48.7053 122.247 48.5109Z" fill="white"/>
<path d="M121.348 47.9519C121.348 47.7818 121.421 47.7089 121.518 47.7818C121.591 47.879 121.591 48.0249 121.518 48.1221C121.421 48.195 121.348 48.1221 121.348 47.9519Z" fill="white"/>
<path d="M124.07 47.563C124.142 47.1499 124.896 46.5423 125.066 46.7367C125.139 46.8096 125.26 47.1013 125.333 47.4172C125.503 47.9033 125.43 47.9519 124.75 47.9519C124.167 47.9519 123.997 47.8547 124.07 47.563Z" fill="white"/>
<path d="M112.357 47.5388C112.357 47.4172 112.478 47.1742 112.6 46.9798C112.794 46.6881 112.843 46.7124 112.843 47.1742C112.843 47.4659 112.746 47.7089 112.6 47.7089C112.478 47.7089 112.357 47.636 112.357 47.5388Z" fill="white"/>
<path d="M113.086 47.004C113.086 46.3235 113.596 46.1048 113.985 46.6152C114.228 46.9797 114.228 47.1012 113.985 47.2714C113.475 47.5873 113.086 47.4901 113.086 47.004Z" fill="white"/>
<path d="M120.473 46.6881C120.035 46.202 120.035 46.1777 120.448 46.3236C120.691 46.4208 121.007 46.4937 121.129 46.4937C121.25 46.4937 121.348 46.6638 121.348 46.8582C121.348 47.3686 121.007 47.32 120.473 46.6881Z" fill="white"/>
<path d="M115.248 46.6638C114.203 45.8617 114.058 44.0632 115.03 44.0632C115.686 44.0632 116.293 45.084 116.196 46.0319C116.123 46.9068 115.832 47.1012 115.248 46.6638Z" fill="white"/>
<path d="M121.907 46.8096C122.004 46.7367 122.15 46.7367 122.247 46.8096C122.32 46.9068 122.247 46.9797 122.077 46.9797C121.907 46.9797 121.834 46.9068 121.907 46.8096Z" fill="white"/>
<path d="M125.576 45.8617C125.649 45.643 125.722 45.4243 125.722 45.3757C125.722 45.3271 125.844 45.2784 125.965 45.2784C126.111 45.2784 126.208 45.4972 126.208 45.7645C126.208 46.0562 126.038 46.2506 125.819 46.2506C125.552 46.2506 125.479 46.1291 125.576 45.8617Z" fill="white"/>
<path d="M112.843 45.7888C112.843 45.2298 113.353 44.3063 113.645 44.3063C114.155 44.3063 113.79 45.8617 113.256 45.9589C113.037 46.0076 112.843 45.9346 112.843 45.7888Z" fill="white"/>
<path d="M118.31 45.5216L117.581 45.3514L118.237 45.1813C118.918 44.9869 119.404 45.1327 119.404 45.5459C119.404 45.7889 119.379 45.7889 118.31 45.5216Z" fill="white"/>
<path d="M117.46 44.355C117.46 43.3585 118.019 43.2127 118.529 44.0876C118.869 44.6709 118.894 44.7924 118.578 44.7924C118.383 44.7924 118.067 44.8653 117.849 44.9383C117.557 45.0598 117.46 44.914 117.46 44.355Z" fill="white"/>
<path d="M121.688 44.6952C120.594 44.2091 119.89 42.921 119.89 41.3899C119.89 40.2962 119.987 40.0288 120.643 39.4212C121.056 39.0324 121.469 38.7164 121.591 38.7164C122.125 38.7164 124.094 40.5878 124.75 41.7544L125.503 43.0912L124.701 43.9418C123.778 44.914 122.757 45.1813 121.688 44.6952Z" fill="white"/>
<path d="M116.609 44.0632C116.537 43.9417 116.585 43.8202 116.707 43.8202C116.852 43.8202 116.974 43.9417 116.974 44.0632C116.974 44.2091 116.925 44.3063 116.877 44.3063C116.804 44.3063 116.682 44.2091 116.609 44.0632Z" fill="white"/>
<path d="M113.426 43.6744C113.499 43.4556 113.572 43.2369 113.572 43.1883C113.572 43.1397 113.79 43.0911 114.058 43.0911C114.665 43.0911 114.69 43.4799 114.082 43.8202C113.426 44.1604 113.256 44.1361 113.426 43.6744Z" fill="white"/>
<path d="M115.346 43.3828C114.787 43.3099 114.617 42.9939 114.981 42.7752C115.078 42.7023 115.516 42.5808 115.953 42.4835C116.609 42.3377 116.731 42.3863 116.731 42.7995C116.731 43.3099 116.221 43.5286 115.346 43.3828Z" fill="white"/>
<path d="M117.217 42.5564C117.217 42.2648 117.241 42.0946 117.29 42.1432C117.314 42.1919 117.508 42.4349 117.679 42.6779C117.97 43.0182 117.946 43.0911 117.606 43.0911C117.363 43.0911 117.217 42.8967 117.217 42.5564Z" fill="white"/>
<path d="M113.815 42.3863C113.815 42.2405 113.936 42.0704 114.058 41.9975C114.204 41.9246 114.301 42.0218 114.301 42.2162C114.301 42.4349 114.204 42.6051 114.058 42.6051C113.936 42.6051 113.815 42.5079 113.815 42.3863Z" fill="white"/>
<path d="M114.714 42.0217C114.52 41.5356 116.245 41.0009 116.536 41.4627C116.755 41.8516 116.536 42.0217 115.613 42.2161C115.054 42.3376 114.811 42.289 114.714 42.0217Z" fill="white"/>
<path d="M116.998 41.244C116.998 40.9766 117.071 40.9037 117.144 41.0981C117.217 41.2683 117.192 41.487 117.119 41.5599C117.047 41.6571 116.974 41.5113 116.998 41.244Z" fill="white"/>
<path d="M114.932 40.8552C115.224 40.3205 116.075 39.4456 116.293 39.4456C116.536 39.4456 116.561 40.5878 116.318 40.7337C116.196 40.7823 115.807 40.9038 115.443 41.001C114.908 41.1225 114.787 41.0982 114.932 40.8552Z" fill="white"/>
<path d="M116.877 40.2962C116.609 39.5671 116.731 39.2511 117.314 39.1539C117.922 39.0324 117.922 39.0324 117.533 39.7858C117.047 40.758 117.071 40.758 116.877 40.2962Z" fill="white"/>
<path d="M116.731 38.8379C116.731 38.7893 117.217 38.449 117.824 38.1087C118.553 37.6713 119.064 37.5254 119.428 37.6227C119.866 37.7685 119.744 37.8657 118.675 38.3761C117.484 38.9108 116.731 39.1052 116.731 38.8379Z" fill="white"/>
<path d="M130.217 17.3045C129.561 16.3567 128.176 14.8255 127.18 13.902C126.183 12.9784 125.527 12.225 125.722 12.225C126.256 12.225 130.339 13.343 131.359 13.7804C132.21 14.145 132.234 14.1936 132.015 14.947C131.894 15.3845 131.797 16.4782 131.797 17.3774C131.797 18.301 131.724 19.0301 131.627 19.0301C131.505 19.0301 130.898 18.2524 130.217 17.3045Z" fill="white"/>
<path d="M80.7663 90.9214C79.77 90.411 79.5513 90.1194 78.2876 87.6161C76.4651 84.0677 76.4165 83.2413 78.1418 85.2586C78.8222 86.0606 80.4018 87.7133 81.6411 88.9285C83.7552 90.97 83.8524 91.1158 83.1477 91.0186C82.6374 90.9457 82.443 90.9943 82.5645 91.1887C82.8561 91.6262 81.9327 91.5047 80.7663 90.9214Z" fill="white"/>
<path fill-rule="evenodd" clip-rule="evenodd" d="M121.491 135.201C121.289 134.722 121.514 134.17 121.993 133.968L122.516 133.746C127.607 131.568 130.528 130.26 132.513 128.182C134.499 126.104 134.736 123.052 135.109 121.195C135.212 120.685 136.365 121.58 136.875 121.683C137.384 121.785 137.715 122.281 137.612 122.791C137.164 125.024 135.956 127.152 134.012 129.173C132.075 131.187 128.323 133.345 122.723 135.703C122.244 135.905 121.692 135.68 121.491 135.201Z" fill="#00160A"/>
<path fill-rule="evenodd" clip-rule="evenodd" d="M144.509 38.2282C144.956 37.9623 145.533 38.1088 145.799 38.5555C148.461 43.0278 149.887 48.1403 149.887 53.4593C149.887 69.5736 136.826 82.6368 120.714 82.6368C116.433 82.6368 112.28 81.7132 108.478 79.9537C108.006 79.7354 106.224 77.9974 108.019 78.7043C109.813 79.4111 116.757 80.9977 120.764 80.9977C135.836 80.9977 146.499 68.534 146.499 53.4593C146.499 48.4816 144.509 44.0633 144.182 39.5184C144.144 38.9915 144.062 38.4941 144.509 38.2282Z" fill="#00160A"/>
<path fill-rule="evenodd" clip-rule="evenodd" d="M51.3083 109.463C51.641 109.064 52.2344 108.257 52.6337 108.59C54.272 109.954 56.0202 111.536 57.8903 111.841C59.8362 112.158 62.1448 112.158 64.8131 111.835C65.329 111.773 65.7979 112.141 65.8604 112.657C65.9229 113.173 65.5552 113.642 65.0392 113.704C62.2057 114.047 59.7227 114.047 57.5871 113.699C55.3757 113.338 53.319 112.363 51.4291 110.789C51.0298 110.456 50.9757 109.863 51.3083 109.463Z" fill="#00160A"/>
<path d="M71.289 76.5334C70.074 75.5612 67.4738 72.6933 65.5055 70.1657C64.4849 68.829 63.3428 66.107 62.6624 63.3606C62.3465 62.1211 62.0306 61.0031 61.9577 60.8573C61.8605 60.7358 61.4717 59.0102 61.0829 57.0173C60.4997 54.198 60.623 53.2897 60.1109 49.9175C59.894 48.4897 59.6978 47.3536 59.6978 47.3536L60.3296 46.5422C60.6941 46.0562 61.1551 45.2518 61.3259 44.7923C62.1035 42.6997 67.814 36.1401 67.9841 36.3103C68.0327 36.3589 67.8383 37.5012 67.4981 38.8379C67.1822 40.1746 66.7934 42.1918 66.6233 43.3341C66.3803 45.2298 66.2831 45.4486 65.5298 46.0805C64.5821 46.8825 62.7839 49.4587 62.7839 49.9934C62.7839 50.7225 63.8774 50.2364 65.0195 49.0455L66.1859 47.8303V49.1671C66.1859 50.042 66.0158 50.844 65.6999 51.4759C65.0924 52.6668 65.0924 53.9307 65.6756 54.9028C65.9672 55.3889 66.2345 56.5555 66.4046 57.9408C67.1579 64.2112 68.7617 69.6553 71.5077 75.1237C72.1881 76.4848 72.7227 77.6027 72.6984 77.6027C72.6498 77.6027 72.018 77.1167 71.289 76.5334Z" fill="white"/>
<path fill-rule="evenodd" clip-rule="evenodd" d="M172.402 91.529L174.152 92.3068C174.515 92.4742 178.517 94.3976 183.325 96.708C191.075 100.433 200.919 105.164 200.979 105.164C201.077 105.164 201.533 104.109 201.636 102.879C201.879 100.23 202.778 96.6329 203.823 94.1296C204.309 93.0116 204.697 91.6143 204.697 91.4928C204.697 91.4373 204.302 91.278 203.656 91.017C202.886 90.7065 201.759 90.252 200.518 89.6576C194.394 86.7168 182.414 80.7138 180.932 79.8145C179.474 78.9639 179.182 78.891 179.182 79.4499C179.182 80.1791 177.7 83.5573 176.558 85.3801C175.95 86.3766 174.759 88.1751 173.909 89.366L172.402 91.529ZM200.566 100.789C201.263 101.193 200.056 101.785 199.764 101.883C198.047 102.028 196.026 101.705 194.37 100.74C193.504 100.126 186.685 96.3373 182.162 93.824C180.094 92.675 178.506 91.7926 178.186 91.6019C177.165 90.9943 176.193 90.3381 176.023 90.1437C175.513 89.4875 175.999 89.1959 177.433 89.3174C178.294 89.3904 199.061 99.9164 200.566 100.789Z" fill="white"/>
<path d="M154.955 93.7163C154.323 93.4976 153.642 93.0115 153.205 92.4525L152.476 91.5533L155.052 89.0014C159.013 85.1127 161.929 80.8629 164.553 76.1236C165.428 74.5439 168.028 68.1728 168.344 67.468C168.83 66.4473 169.195 66.0584 170.24 65.4751C171.479 64.746 172.888 64.5029 173.496 64.9161C174.662 65.6938 174.662 68.1485 173.496 72.3774C172.208 77.0195 170.483 80.3491 166.91 85.137C166.352 85.8661 165.307 87.3001 164.553 88.2965C162.536 90.97 161.224 92.2581 159.45 93.2546C157.701 94.2267 156.68 94.3482 154.955 93.7163Z" fill="white"/>
<path d="M164.116 93.1573L163.606 92.6469C163.606 92.6469 172.076 81.8844 173.593 77.9187C174.752 74.8924 175.433 74.0342 176.353 74.0342C176.867 74.0342 177.287 74.1516 177.481 74.4432C177.822 74.9536 178.149 75.5855 177.712 77.7486C176.983 81.2484 175.865 83.5572 172.512 88.5396C171.734 89.6818 170.738 90.9457 170.3 91.3831C169.28 92.331 166.984 93.3031 165.647 93.5219C164.797 93.6434 164.554 93.5948 164.116 93.1573Z" fill="white"/>
<path fill-rule="evenodd" clip-rule="evenodd" d="M178.343 81.9033C178.833 80.7819 179.182 79.8039 179.182 79.4499C179.182 78.891 179.474 78.9639 180.932 79.8145C182.414 80.7138 194.394 86.7168 200.518 89.6576C202.802 90.7513 204.697 91.3713 204.697 91.4928C204.697 91.6143 177.823 83.0921 178.343 81.9033Z" fill="#E7EAEE"/>
<path fill-rule="evenodd" clip-rule="evenodd" d="M95.2006 83.2899C92.1145 81.2727 87.4489 76.5334 85.1889 73.1551C81.957 68.2943 79.8186 63.0933 78.7737 57.5034C78.0204 53.4446 78.0447 47.1985 78.798 43.5772C79.5756 39.883 80.5719 37.0637 82.3458 33.491C84.4113 29.3593 86.5984 26.3213 89.8789 23.0403C93.0959 19.8228 78.798 33.1285 82.3458 56.9352C85.1889 76.8852 97.4077 84.7443 95.2006 83.2899Z" fill="#E7EAEE"/>
</svg>
