<svg width="20" height="20" viewBox="0 0 20 20" fill="none" xmlns="http://www.w3.org/2000/svg">
<path d="M16.3917 6.7835C16.3176 6.4979 16.169 6.23709 15.9611 6.02772C15.7532 5.81835 15.4934 5.66793 15.2083 5.59182C13.48 5.38798 11.7403 5.29612 10 5.31682C8.25979 5.29612 6.52005 5.38798 4.79168 5.59182C4.50661 5.66793 4.24686 5.81835 4.03896 6.02772C3.83105 6.23709 3.68246 6.4979 3.60835 6.7835C3.41902 7.84511 3.32697 8.92181 3.33335 10.0001C3.32666 11.0841 3.41871 12.1663 3.60835 13.2335C3.6863 13.5145 3.8366 13.7701 4.04425 13.9748C4.25189 14.1796 4.50961 14.3262 4.79168 14.4001C6.52005 14.604 8.25979 14.6959 10 14.6751C11.7403 14.6959 13.48 14.604 15.2083 14.4001C15.4904 14.3262 15.7482 14.1796 15.9558 13.9748C16.1634 13.7701 16.3138 13.5145 16.3917 13.2335C16.5813 12.1663 16.6733 11.0841 16.6667 10.0001C16.6731 8.92181 16.581 7.84511 16.3917 6.7835ZM8.63334 11.9918V8.02515L12.125 10.0001L8.63334 11.9835V11.9918Z" fill="#02BABA"/>
</svg>
