<svg width="22" height="22" viewBox="0 0 22 22" fill="none" xmlns="http://www.w3.org/2000/svg">
<path d="M10.0374 11.9767L8.5497 10.5029C8.42274 10.376 8.26553 10.311 8.07807 10.3081C7.89062 10.3052 7.72577 10.3748 7.58353 10.5169C7.45077 10.6498 7.38439 10.8109 7.38439 11C7.38439 11.1891 7.45077 11.3502 7.58353 11.4831L9.45743 13.357C9.62319 13.5226 9.81653 13.6054 10.0374 13.6054C10.2584 13.6054 10.4517 13.5226 10.6175 13.357L14.4164 9.55807C14.5526 9.42164 14.6199 9.26207 14.618 9.07934C14.6164 8.89662 14.5491 8.73414 14.4164 8.59191C14.2741 8.44982 14.1107 8.37641 13.9262 8.37168C13.7418 8.36694 13.5785 8.43569 13.4362 8.57793L10.0374 11.9767ZM7.70889 19.4175L6.44137 17.2863L4.04382 16.7713C3.83819 16.7314 3.67395 16.6234 3.55112 16.4471C3.42828 16.2707 3.37924 16.0798 3.40399 15.8741L3.63843 13.4081L2.00791 11.5429C1.86689 11.3926 1.79639 11.2116 1.79639 11C1.79639 10.7884 1.86689 10.6074 2.00791 10.4571L3.63843 8.59191L3.40399 6.12584C3.37924 5.92021 3.42828 5.72923 3.55112 5.55293C3.67395 5.37662 3.83819 5.26853 4.04382 5.22866L6.44137 4.71372L7.70889 2.58247C7.81934 2.40158 7.96975 2.27821 8.16012 2.21236C8.35048 2.14652 8.54382 2.15652 8.74014 2.24239L10.9999 3.19778L13.2598 2.24239C13.4561 2.15652 13.6494 2.14652 13.8398 2.21236C14.0301 2.27821 14.1806 2.40158 14.291 2.58247L15.5585 4.71372L17.9561 5.22866C18.1617 5.26853 18.3259 5.37662 18.4488 5.55293C18.5716 5.72923 18.6207 5.92021 18.5959 6.12584L18.3615 8.59191L19.992 10.4571C20.133 10.6074 20.2035 10.7884 20.2035 11C20.2035 11.2116 20.133 11.3926 19.992 11.5429L18.3615 13.4081L18.5959 15.8741C18.6207 16.0798 18.5716 16.2707 18.4488 16.4471C18.3259 16.6234 18.1617 16.7314 17.9561 16.7713L15.5585 17.2863L14.291 19.4175C14.1806 19.5984 14.0301 19.7218 13.8398 19.7876C13.6494 19.8535 13.4561 19.8435 13.2598 19.7576L10.9999 18.8022L8.74014 19.7576C8.54382 19.8435 8.35048 19.8535 8.16012 19.7876C7.96975 19.7218 7.81934 19.5984 7.70889 19.4175Z" fill="#008000"/>
</svg>
