<svg width="20" height="20" viewBox="0 0 20 20" fill="none" xmlns="http://www.w3.org/2000/svg">
<path d="M9.99984 13.75C8.95928 13.75 8.07414 13.3852 7.34442 12.6554C6.6147 11.9257 6.24984 11.0406 6.24984 10C6.24984 8.95947 6.6147 8.07433 7.34442 7.3446C8.07414 6.61488 8.95928 6.25002 9.99984 6.25002C11.0404 6.25002 11.9255 6.61488 12.6553 7.3446C13.385 8.07433 13.7498 8.95947 13.7498 10C13.7498 11.0406 13.385 11.9257 12.6553 12.6554C11.9255 13.3852 11.0404 13.75 9.99984 13.75ZM4.42296 17.0834C4.00199 17.0834 3.64567 16.9375 3.354 16.6459C3.06234 16.3542 2.9165 15.9979 2.9165 15.5769V13.125C2.9165 12.9477 2.97636 12.7992 3.09609 12.6796C3.21567 12.5599 3.36414 12.5 3.5415 12.5C3.71887 12.5 3.86734 12.5599 3.98692 12.6796C4.10664 12.7992 4.1665 12.9477 4.1665 13.125V15.5769C4.1665 15.6411 4.19324 15.6998 4.24671 15.7531C4.30005 15.8066 4.3588 15.8334 4.42296 15.8334H6.87484C7.0522 15.8334 7.20067 15.8932 7.32025 16.0129C7.43998 16.1325 7.49984 16.281 7.49984 16.4584C7.49984 16.6357 7.43998 16.7842 7.32025 16.9038C7.20067 17.0235 7.0522 17.0834 6.87484 17.0834H4.42296ZM15.5767 17.0834H13.1248C12.9475 17.0834 12.799 17.0235 12.6794 16.9038C12.5597 16.7842 12.4998 16.6357 12.4998 16.4584C12.4998 16.281 12.5597 16.1325 12.6794 16.0129C12.799 15.8932 12.9475 15.8334 13.1248 15.8334H15.5767C15.6409 15.8334 15.6996 15.8066 15.753 15.7531C15.8064 15.6998 15.8332 15.6411 15.8332 15.5769V13.125C15.8332 12.9477 15.893 12.7992 16.0128 12.6796C16.1323 12.5599 16.2808 12.5 16.4582 12.5C16.6355 12.5 16.784 12.5599 16.9036 12.6796C17.0233 12.7992 17.0832 12.9477 17.0832 13.125V15.5769C17.0832 15.9979 16.9373 16.3542 16.6457 16.6459C16.354 16.9375 15.9977 17.0834 15.5767 17.0834ZM2.9165 6.87502V4.42315C2.9165 4.00217 3.06234 3.64585 3.354 3.35419C3.64567 3.06252 4.00199 2.91669 4.42296 2.91669H6.87484C7.0522 2.91669 7.20067 2.97655 7.32025 3.09627C7.43998 3.21585 7.49984 3.36433 7.49984 3.54169C7.49984 3.71905 7.43998 3.86752 7.32025 3.9871C7.20067 4.10683 7.0522 4.16669 6.87484 4.16669H4.42296C4.3588 4.16669 4.30005 4.19342 4.24671 4.24689C4.19324 4.30023 4.1665 4.35898 4.1665 4.42315V6.87502C4.1665 7.05238 4.10664 7.20085 3.98692 7.32044C3.86734 7.44016 3.71887 7.50002 3.5415 7.50002C3.36414 7.50002 3.21567 7.44016 3.09609 7.32044C2.97636 7.20085 2.9165 7.05238 2.9165 6.87502ZM15.8332 6.87502V4.42315C15.8332 4.35898 15.8064 4.30023 15.753 4.24689C15.6996 4.19342 15.6409 4.16669 15.5767 4.16669H13.1248C12.9475 4.16669 12.799 4.10683 12.6794 3.9871C12.5597 3.86752 12.4998 3.71905 12.4998 3.54169C12.4998 3.36433 12.5597 3.21585 12.6794 3.09627C12.799 2.97655 12.9475 2.91669 13.1248 2.91669H15.5767C15.9977 2.91669 16.354 3.06252 16.6457 3.35419C16.9373 3.64585 17.0832 4.00217 17.0832 4.42315V6.87502C17.0832 7.05238 17.0233 7.20085 16.9036 7.32044C16.784 7.44016 16.6355 7.50002 16.4582 7.50002C16.2808 7.50002 16.1323 7.44016 16.0128 7.32044C15.893 7.20085 15.8332 7.05238 15.8332 6.87502Z" fill="#8F8B8B"/>
</svg>
